<?xml version="1.0" encoding="utf-8" standalone="no"?>
<!DOCTYPE svg PUBLIC "-//W3C//DTD SVG 1.1//EN"
  "http://www.w3.org/Graphics/SVG/1.1/DTD/svg11.dtd">
<svg height="360pt" version="1.1" viewBox="0 0 360 360" width="360pt" xmlns="http://www.w3.org/2000/svg" xmlns:xlink="http://www.w3.org/1999/xlink">
 <metadata>
  <rdf:RDF xmlns:cc="http://creativecommons.org/ns#" xmlns:dc="http://purl.org/dc/elements/1.1/" xmlns:rdf="http://www.w3.org/1999/02/22-rdf-syntax-ns#">
   <cc:Work>
    <dc:type rdf:resource="http://purl.org/dc/dcmitype/StillImage"/>
    <dc:date>2025-01-22T13:36:33.241647</dc:date>
    <dc:format>image/svg+xml</dc:format>
    <dc:creator>
     <cc:Agent>
      <dc:title>Matplotlib v3.4.2, https://matplotlib.org/</dc:title>
     </cc:Agent>
    </dc:creator>
   </cc:Work>
  </rdf:RDF>
 </metadata>
 <defs>
  <style type="text/css">*{stroke-linecap:butt;stroke-linejoin:round;}</style>
 </defs>
 <g id="figure_1">
  <g id="patch_1">
   <path d="M 0 360 
L 360 360 
L 360 0 
L 0 0 
z
" style="fill:none;"/>
  </g>
  <g id="axes_1">
   <g id="patch_2">
    <path d="M 68.925 211 
L 347.342401 211 
L 347.342401 26.8 
L 68.925 26.8 
z
" style="fill:#ffffff;"/>
   </g>
   <g id="line2d_1">
    <path clip-path="url(#pcc3fd3facb)" d="M 90.371312 202.542424 
L 91.104728 202.608063 
L 92.313874 202.616334 
L 94.494301 202.550963 
L 94.970031 202.556833 
L 95.703447 202.59819 
L 97.408145 202.417872 
L 97.646009 202.246572 
L 97.883874 201.869178 
L 98.617291 199.97079 
L 99.588572 202.065879 
L 100.559853 202.55283 
L 104.444977 202.59232 
L 107.358821 202.220636 
L 107.596686 201.840468 
L 107.83455 200.93562 
L 108.567967 193.324777 
L 108.805831 194.615131 
L 109.301383 200.524713 
L 109.539248 201.629144 
L 110.272664 202.446048 
L 110.510529 202.52428 
L 110.986258 202.459389 
L 111.719675 202.584849 
L 112.453091 202.582181 
L 113.186508 202.530951 
L 115.366935 202.470916 
L 117.05181 202.161722 
L 117.309497 201.913044 
L 117.547362 201.360401 
L 117.785226 199.409396 
L 118.023091 193.607609 
L 118.518643 176.233202 
L 118.756508 179.861986 
L 119.252059 198.456306 
L 119.489924 201.219519 
L 119.727789 201.841749 
L 120.936935 202.46131 
L 121.432486 202.480735 
L 122.403767 202.553898 
L 125.079746 202.383612 
L 126.764621 202.402609 
L 127.022308 202.206975 
L 127.260173 201.881238 
L 127.498038 201.128799 
L 127.735903 198.688975 
L 127.993589 189.243462 
L 128.469319 147.768587 
L 128.707184 153.958867 
L 129.202735 194.396336 
L 129.4406 200.008145 
L 129.678465 201.380679 
L 130.174016 202.011661 
L 130.649746 202.314238 
L 131.383162 202.48906 
L 133.563589 202.409013 
L 136.001703 202.319681 
L 137.210849 201.802472 
L 137.448714 201.056223 
L 137.706401 198.647351 
L 137.944266 186.265724 
L 138.419995 116.155469 
L 138.677682 127.351337 
L 139.153411 192.927746 
L 139.391276 200.193853 
L 139.648963 201.754764 
L 139.886828 201.88476 
L 140.124693 201.862027 
L 140.858109 202.142724 
L 142.30512 202.49034 
L 144.505369 202.423635 
L 144.981098 202.395672 
L 145.714515 202.182748 
L 146.210066 202.320641 
L 146.685796 202.068334 
L 146.923661 201.955628 
L 147.181347 201.67205 
L 147.419212 201.079704 
L 147.657077 198.425355 
L 147.894942 182.391463 
L 148.390493 80.7428 
L 148.628358 92.269527 
L 149.12391 187.898677 
L 149.361774 199.417934 
L 149.599639 201.378545 
L 150.095191 201.645047 
L 150.57092 202.106436 
L 152.275618 202.314558 
L 153.980315 202.153184 
L 154.456045 202.246251 
L 154.951597 202.195555 
L 155.922878 201.949011 
L 156.398607 202.070149 
L 157.132024 201.813145 
L 157.38971 201.545042 
L 157.627575 198.998489 
L 157.86544 182.679631 
L 158.360992 47.123177 
L 158.598856 55.234578 
L 159.074586 186.28707 
L 159.332273 199.472366 
L 159.570137 201.517293 
L 160.303554 201.772375 
L 160.779283 202.194488 
L 161.274835 202.311143 
L 161.750564 202.202492 
L 162.246116 202.305699 
L 162.721846 202.2153 
L 163.217397 202.27827 
L 163.693127 202.183281 
L 164.188678 202.289156 
L 166.864657 201.872487 
L 167.102522 201.617618 
L 167.340387 201.091444 
L 167.598073 198.394403 
L 167.835938 180.747837 
L 168.311668 36.343552 
L 168.569354 45.095326 
L 169.045084 186.43649 
L 169.282949 199.448885 
L 169.540636 201.108521 
L 170.016365 201.5301 
L 170.25423 201.955095 
L 170.511917 202.177411 
L 170.987646 202.122446 
L 171.483198 202.091174 
L 171.721063 202.023721 
L 172.454479 202.377528 
L 172.930209 202.2502 
L 173.42576 202.131198 
L 173.90149 202.218502 
L 174.397041 202.263541 
L 174.892593 202.30175 
L 175.368322 202.395672 
L 176.835155 201.723279 
L 177.07302 201.457524 
L 177.310885 200.768055 
L 177.568572 198.227906 
L 177.806436 182.252715 
L 178.282166 52.566354 
L 178.539853 58.756633 
L 179.015582 185.604004 
L 179.253447 199.49051 
L 179.511134 201.342257 
L 179.986863 201.233393 
L 180.482415 202.080608 
L 180.72028 202.268985 
L 181.929426 202.220316 
L 182.424977 202.343588 
L 182.900707 202.245398 
L 186.072237 202.326832 
L 186.567789 202.34124 
L 186.805653 202.165991 
L 187.043518 201.821684 
L 187.281383 201.151212 
L 187.53907 198.130783 
L 187.776935 183.159911 
L 188.252664 90.668593 
L 188.510351 99.68719 
L 188.98608 190.684303 
L 189.243767 200.169306 
L 189.481632 201.524764 
L 189.719497 201.625089 
L 189.957362 201.535436 
L 190.215048 201.631706 
L 190.690778 202.251268 
L 191.18633 202.370591 
L 192.891027 202.288729 
L 193.624443 202.312743 
L 194.833589 202.3533 
L 195.309319 202.222984 
L 195.80487 202.405491 
L 197.014016 201.994905 
L 197.271703 201.486341 
L 197.509568 198.62387 
L 197.747433 187.343686 
L 198.242984 138.611243 
L 198.480849 145.60199 
L 198.976401 193.250067 
L 199.214265 200.139422 
L 199.45213 201.677599 
L 199.947682 202.166205 
L 200.681098 202.331101 
L 201.652379 202.44957 
L 202.128109 202.448503 
L 202.861525 202.50667 
L 204.328358 202.399941 
L 205.061774 202.503682 
L 205.775369 202.428011 
L 206.27092 202.211564 
L 206.766472 202.298549 
L 207.004337 202.207295 
L 207.242201 201.720931 
L 207.480066 199.787216 
L 207.737753 192.699346 
L 208.213483 166.809034 
L 208.451347 171.355688 
L 208.946899 197.354863 
L 209.184764 201.11279 
L 209.442451 201.968756 
L 209.680315 202.271119 
L 210.651596 202.482122 
L 211.385013 202.412428 
L 211.860742 202.566438 
L 216.974835 202.300683 
L 217.232522 202.0218 
L 217.470386 200.728566 
L 218.203803 188.581742 
L 218.441668 190.919107 
L 218.937219 199.582296 
L 219.175084 201.542907 
L 219.412949 202.243049 
L 219.9085 202.442633 
L 221.375333 202.597123 
L 226.72729 202.534686 
L 227.20302 202.160335 
L 227.460707 201.574606 
L 227.698571 200.342207 
L 228.194123 196.342005 
L 228.431988 197.020801 
L 228.907717 201.166154 
L 229.165404 202.046135 
L 229.403269 202.422034 
L 232.079248 202.585916 
L 236.955475 202.379663 
L 237.451027 202.034394 
L 238.184443 200.337938 
L 239.155725 202.273467 
L 240.860422 202.572575 
L 246.470066 202.537621 
L 246.945796 202.381477 
L 247.679212 202.026069 
L 248.174764 201.848899 
L 248.650493 202.087225 
L 249.38391 202.436763 
L 250.355191 202.602459 
L 256.936116 202.379129 
L 257.431668 202.047415 
L 258.165084 202.059796 
L 259.869781 202.593654 
L 264.746009 202.594721 
L 265.241561 202.594455 
L 266.212842 202.414349 
L 266.946258 202.283073 
L 267.184123 202.16375 
L 267.917539 202.334836 
L 269.384372 202.567239 
L 271.326934 202.620603 
L 276.460849 202.350632 
L 277.43213 202.121699 
L 278.898963 202.564837 
L 279.870244 202.573642 
L 281.574942 202.578445 
L 284.746472 202.587784 
L 285.479888 202.492262 
L 285.717753 202.38692 
L 285.717753 202.38692 
" style="fill:none;stroke:#999999;stroke-linecap:square;stroke-width:1.5;"/>
   </g>
   <g id="line2d_2">
    <defs>
     <path d="M 0 2 
C 0.530406 2 1.03916 1.789267 1.414214 1.414214 
C 1.789267 1.03916 2 0.530406 2 0 
C 2 -0.530406 1.789267 -1.03916 1.414214 -1.414214 
C 1.03916 -1.789267 0.530406 -2 0 -2 
C -0.530406 -2 -1.03916 -1.789267 -1.414214 -1.414214 
C -1.789267 -1.03916 -2 -0.530406 -2 0 
C -2 0.530406 -1.789267 1.03916 -1.414214 1.414214 
C -1.03916 1.789267 -0.530406 2 0 2 
z
" id="m641ddfc329" style="stroke:#ff0000;"/>
    </defs>
    <g clip-path="url(#pcc3fd3facb)">
     <use style="fill:#ff0000;stroke:#ff0000;" x="98.658096" xlink:href="#m641ddfc329" y="199.97079"/>
     <use style="fill:#ff0000;stroke:#ff0000;" x="108.60238" xlink:href="#m641ddfc329" y="193.324777"/>
     <use style="fill:#ff0000;stroke:#ff0000;" x="118.546663" xlink:href="#m641ddfc329" y="176.233202"/>
     <use style="fill:#ff0000;stroke:#ff0000;" x="128.505427" xlink:href="#m641ddfc329" y="147.768587"/>
     <use style="fill:#ff0000;stroke:#ff0000;" x="138.46419" xlink:href="#m641ddfc329" y="116.155469"/>
     <use style="fill:#ff0000;stroke:#ff0000;" x="148.437434" xlink:href="#m641ddfc329" y="80.7428"/>
     <use style="fill:#ff0000;stroke:#ff0000;" x="158.410677" xlink:href="#m641ddfc329" y="47.123177"/>
     <use style="fill:#ff0000;stroke:#ff0000;" x="168.383921" xlink:href="#m641ddfc329" y="36.343552"/>
     <use style="fill:#ff0000;stroke:#ff0000;" x="178.357164" xlink:href="#m641ddfc329" y="52.566354"/>
     <use style="fill:#ff0000;stroke:#ff0000;" x="188.330408" xlink:href="#m641ddfc329" y="90.668593"/>
     <use style="fill:#ff0000;stroke:#ff0000;" x="198.303652" xlink:href="#m641ddfc329" y="138.611243"/>
     <use style="fill:#ff0000;stroke:#ff0000;" x="208.276895" xlink:href="#m641ddfc329" y="166.809034"/>
     <use style="fill:#ff0000;stroke:#ff0000;" x="218.250139" xlink:href="#m641ddfc329" y="188.581742"/>
     <use style="fill:#ff0000;stroke:#ff0000;" x="228.223382" xlink:href="#m641ddfc329" y="196.342005"/>
     <use style="fill:#ff0000;stroke:#ff0000;" x="238.196626" xlink:href="#m641ddfc329" y="200.337938"/>
     <use style="fill:#ff0000;stroke:#ff0000;" x="248.169869" xlink:href="#m641ddfc329" y="201.848899"/>
     <use style="fill:#ff0000;stroke:#ff0000;" x="258.143113" xlink:href="#m641ddfc329" y="202.029592"/>
    </g>
   </g>
   <g id="matplotlib.axis_1">
    <g id="xtick_1">
     <g id="line2d_3">
      <defs>
       <path d="M 0 0 
L 0 3.5 
" id="m4727921dcd" style="stroke:#000000;stroke-width:0.8;"/>
      </defs>
      <g>
       <use style="stroke:#000000;stroke-width:0.8;" x="101.788821" xlink:href="#m4727921dcd" y="211"/>
      </g>
     </g>
     <g id="text_1">
      <!-- 786 -->
      <g transform="translate(92.245071 225.598437)scale(0.1 -0.1)">
       <defs>
        <path d="M 525 4666 
L 3525 4666 
L 3525 4397 
L 1831 0 
L 1172 0 
L 2766 4134 
L 525 4134 
L 525 4666 
z
" id="DejaVuSans-37" transform="scale(0.015625)"/>
        <path d="M 2034 2216 
Q 1584 2216 1326 1975 
Q 1069 1734 1069 1313 
Q 1069 891 1326 650 
Q 1584 409 2034 409 
Q 2484 409 2743 651 
Q 3003 894 3003 1313 
Q 3003 1734 2745 1975 
Q 2488 2216 2034 2216 
z
M 1403 2484 
Q 997 2584 770 2862 
Q 544 3141 544 3541 
Q 544 4100 942 4425 
Q 1341 4750 2034 4750 
Q 2731 4750 3128 4425 
Q 3525 4100 3525 3541 
Q 3525 3141 3298 2862 
Q 3072 2584 2669 2484 
Q 3125 2378 3379 2068 
Q 3634 1759 3634 1313 
Q 3634 634 3220 271 
Q 2806 -91 2034 -91 
Q 1263 -91 848 271 
Q 434 634 434 1313 
Q 434 1759 690 2068 
Q 947 2378 1403 2484 
z
M 1172 3481 
Q 1172 3119 1398 2916 
Q 1625 2713 2034 2713 
Q 2441 2713 2670 2916 
Q 2900 3119 2900 3481 
Q 2900 3844 2670 4047 
Q 2441 4250 2034 4250 
Q 1625 4250 1398 4047 
Q 1172 3844 1172 3481 
z
" id="DejaVuSans-38" transform="scale(0.015625)"/>
        <path d="M 2113 2584 
Q 1688 2584 1439 2293 
Q 1191 2003 1191 1497 
Q 1191 994 1439 701 
Q 1688 409 2113 409 
Q 2538 409 2786 701 
Q 3034 994 3034 1497 
Q 3034 2003 2786 2293 
Q 2538 2584 2113 2584 
z
M 3366 4563 
L 3366 3988 
Q 3128 4100 2886 4159 
Q 2644 4219 2406 4219 
Q 1781 4219 1451 3797 
Q 1122 3375 1075 2522 
Q 1259 2794 1537 2939 
Q 1816 3084 2150 3084 
Q 2853 3084 3261 2657 
Q 3669 2231 3669 1497 
Q 3669 778 3244 343 
Q 2819 -91 2113 -91 
Q 1303 -91 875 529 
Q 447 1150 447 2328 
Q 447 3434 972 4092 
Q 1497 4750 2381 4750 
Q 2619 4750 2861 4703 
Q 3103 4656 3366 4563 
z
" id="DejaVuSans-36" transform="scale(0.015625)"/>
       </defs>
       <use xlink:href="#DejaVuSans-37"/>
       <use x="63.623047" xlink:href="#DejaVuSans-38"/>
       <use x="127.246094" xlink:href="#DejaVuSans-36"/>
      </g>
     </g>
    </g>
    <g id="xtick_2">
     <g id="line2d_4">
      <g>
       <use style="stroke:#000000;stroke-width:0.8;" x="141.432949" xlink:href="#m4727921dcd" y="211"/>
      </g>
     </g>
     <g id="text_2">
      <!-- 788 -->
      <g transform="translate(131.889199 225.598437)scale(0.1 -0.1)">
       <use xlink:href="#DejaVuSans-37"/>
       <use x="63.623047" xlink:href="#DejaVuSans-38"/>
       <use x="127.246094" xlink:href="#DejaVuSans-38"/>
      </g>
     </g>
    </g>
    <g id="xtick_3">
     <g id="line2d_5">
      <g>
       <use style="stroke:#000000;stroke-width:0.8;" x="181.077077" xlink:href="#m4727921dcd" y="211"/>
      </g>
     </g>
     <g id="text_3">
      <!-- 790 -->
      <g transform="translate(171.533327 225.598437)scale(0.1 -0.1)">
       <defs>
        <path d="M 703 97 
L 703 672 
Q 941 559 1184 500 
Q 1428 441 1663 441 
Q 2288 441 2617 861 
Q 2947 1281 2994 2138 
Q 2813 1869 2534 1725 
Q 2256 1581 1919 1581 
Q 1219 1581 811 2004 
Q 403 2428 403 3163 
Q 403 3881 828 4315 
Q 1253 4750 1959 4750 
Q 2769 4750 3195 4129 
Q 3622 3509 3622 2328 
Q 3622 1225 3098 567 
Q 2575 -91 1691 -91 
Q 1453 -91 1209 -44 
Q 966 3 703 97 
z
M 1959 2075 
Q 2384 2075 2632 2365 
Q 2881 2656 2881 3163 
Q 2881 3666 2632 3958 
Q 2384 4250 1959 4250 
Q 1534 4250 1286 3958 
Q 1038 3666 1038 3163 
Q 1038 2656 1286 2365 
Q 1534 2075 1959 2075 
z
" id="DejaVuSans-39" transform="scale(0.015625)"/>
        <path d="M 2034 4250 
Q 1547 4250 1301 3770 
Q 1056 3291 1056 2328 
Q 1056 1369 1301 889 
Q 1547 409 2034 409 
Q 2525 409 2770 889 
Q 3016 1369 3016 2328 
Q 3016 3291 2770 3770 
Q 2525 4250 2034 4250 
z
M 2034 4750 
Q 2819 4750 3233 4129 
Q 3647 3509 3647 2328 
Q 3647 1150 3233 529 
Q 2819 -91 2034 -91 
Q 1250 -91 836 529 
Q 422 1150 422 2328 
Q 422 3509 836 4129 
Q 1250 4750 2034 4750 
z
" id="DejaVuSans-30" transform="scale(0.015625)"/>
       </defs>
       <use xlink:href="#DejaVuSans-37"/>
       <use x="63.623047" xlink:href="#DejaVuSans-39"/>
       <use x="127.246094" xlink:href="#DejaVuSans-30"/>
      </g>
     </g>
    </g>
    <g id="xtick_4">
     <g id="line2d_6">
      <g>
       <use style="stroke:#000000;stroke-width:0.8;" x="220.721205" xlink:href="#m4727921dcd" y="211"/>
      </g>
     </g>
     <g id="text_4">
      <!-- 792 -->
      <g transform="translate(211.177455 225.598437)scale(0.1 -0.1)">
       <defs>
        <path d="M 1228 531 
L 3431 531 
L 3431 0 
L 469 0 
L 469 531 
Q 828 903 1448 1529 
Q 2069 2156 2228 2338 
Q 2531 2678 2651 2914 
Q 2772 3150 2772 3378 
Q 2772 3750 2511 3984 
Q 2250 4219 1831 4219 
Q 1534 4219 1204 4116 
Q 875 4013 500 3803 
L 500 4441 
Q 881 4594 1212 4672 
Q 1544 4750 1819 4750 
Q 2544 4750 2975 4387 
Q 3406 4025 3406 3419 
Q 3406 3131 3298 2873 
Q 3191 2616 2906 2266 
Q 2828 2175 2409 1742 
Q 1991 1309 1228 531 
z
" id="DejaVuSans-32" transform="scale(0.015625)"/>
       </defs>
       <use xlink:href="#DejaVuSans-37"/>
       <use x="63.623047" xlink:href="#DejaVuSans-39"/>
       <use x="127.246094" xlink:href="#DejaVuSans-32"/>
      </g>
     </g>
    </g>
    <g id="xtick_5">
     <g id="line2d_7">
      <g>
       <use style="stroke:#000000;stroke-width:0.8;" x="260.365333" xlink:href="#m4727921dcd" y="211"/>
      </g>
     </g>
     <g id="text_5">
      <!-- 794 -->
      <g transform="translate(250.821583 225.598437)scale(0.1 -0.1)">
       <defs>
        <path d="M 2419 4116 
L 825 1625 
L 2419 1625 
L 2419 4116 
z
M 2253 4666 
L 3047 4666 
L 3047 1625 
L 3713 1625 
L 3713 1100 
L 3047 1100 
L 3047 0 
L 2419 0 
L 2419 1100 
L 313 1100 
L 313 1709 
L 2253 4666 
z
" id="DejaVuSans-34" transform="scale(0.015625)"/>
       </defs>
       <use xlink:href="#DejaVuSans-37"/>
       <use x="63.623047" xlink:href="#DejaVuSans-39"/>
       <use x="127.246094" xlink:href="#DejaVuSans-34"/>
      </g>
     </g>
    </g>
    <g id="xtick_6">
     <g id="line2d_8">
      <g>
       <use style="stroke:#000000;stroke-width:0.8;" x="300.009461" xlink:href="#m4727921dcd" y="211"/>
      </g>
     </g>
     <g id="text_6">
      <!-- 796 -->
      <g transform="translate(290.465711 225.598437)scale(0.1 -0.1)">
       <use xlink:href="#DejaVuSans-37"/>
       <use x="63.623047" xlink:href="#DejaVuSans-39"/>
       <use x="127.246094" xlink:href="#DejaVuSans-36"/>
      </g>
     </g>
    </g>
    <g id="xtick_7">
     <g id="line2d_9">
      <g>
       <use style="stroke:#000000;stroke-width:0.8;" x="339.653589" xlink:href="#m4727921dcd" y="211"/>
      </g>
     </g>
     <g id="text_7">
      <!-- 798 -->
      <g transform="translate(330.109839 225.598437)scale(0.1 -0.1)">
       <use xlink:href="#DejaVuSans-37"/>
       <use x="63.623047" xlink:href="#DejaVuSans-39"/>
       <use x="127.246094" xlink:href="#DejaVuSans-38"/>
      </g>
     </g>
    </g>
    <g id="text_8">
     <!-- m/z -->
     <g transform="translate(198.954794 239.276563)scale(0.1 -0.1)">
      <defs>
       <path d="M 3328 2828 
Q 3544 3216 3844 3400 
Q 4144 3584 4550 3584 
Q 5097 3584 5394 3201 
Q 5691 2819 5691 2113 
L 5691 0 
L 5113 0 
L 5113 2094 
Q 5113 2597 4934 2840 
Q 4756 3084 4391 3084 
Q 3944 3084 3684 2787 
Q 3425 2491 3425 1978 
L 3425 0 
L 2847 0 
L 2847 2094 
Q 2847 2600 2669 2842 
Q 2491 3084 2119 3084 
Q 1678 3084 1418 2786 
Q 1159 2488 1159 1978 
L 1159 0 
L 581 0 
L 581 3500 
L 1159 3500 
L 1159 2956 
Q 1356 3278 1631 3431 
Q 1906 3584 2284 3584 
Q 2666 3584 2933 3390 
Q 3200 3197 3328 2828 
z
" id="DejaVuSans-6d" transform="scale(0.015625)"/>
       <path d="M 1625 4666 
L 2156 4666 
L 531 -594 
L 0 -594 
L 1625 4666 
z
" id="DejaVuSans-2f" transform="scale(0.015625)"/>
       <path d="M 353 3500 
L 3084 3500 
L 3084 2975 
L 922 459 
L 3084 459 
L 3084 0 
L 275 0 
L 275 525 
L 2438 3041 
L 353 3041 
L 353 3500 
z
" id="DejaVuSans-7a" transform="scale(0.015625)"/>
      </defs>
      <use xlink:href="#DejaVuSans-6d"/>
      <use x="97.412109" xlink:href="#DejaVuSans-2f"/>
      <use x="131.103516" xlink:href="#DejaVuSans-7a"/>
     </g>
    </g>
   </g>
   <g id="matplotlib.axis_2">
    <g id="ytick_1">
     <g id="line2d_10">
      <defs>
       <path d="M 0 0 
L -3.5 0 
" id="m3806f3744b" style="stroke:#000000;stroke-width:0.8;"/>
      </defs>
      <g>
       <use style="stroke:#000000;stroke-width:0.8;" x="68.925" xlink:href="#m3806f3744b" y="202.627274"/>
      </g>
     </g>
     <g id="text_9">
      <!-- 0.000 -->
      <g transform="translate(33.296875 206.426492)scale(0.1 -0.1)">
       <defs>
        <path d="M 684 794 
L 1344 794 
L 1344 0 
L 684 0 
L 684 794 
z
" id="DejaVuSans-2e" transform="scale(0.015625)"/>
       </defs>
       <use xlink:href="#DejaVuSans-30"/>
       <use x="63.623047" xlink:href="#DejaVuSans-2e"/>
       <use x="95.410156" xlink:href="#DejaVuSans-30"/>
       <use x="159.033203" xlink:href="#DejaVuSans-30"/>
       <use x="222.65625" xlink:href="#DejaVuSans-30"/>
      </g>
     </g>
    </g>
    <g id="ytick_2">
     <g id="line2d_11">
      <g>
       <use style="stroke:#000000;stroke-width:0.8;" x="68.925" xlink:href="#m3806f3744b" y="177.397126"/>
      </g>
     </g>
     <g id="text_10">
      <!-- 0.025 -->
      <g transform="translate(33.296875 181.196345)scale(0.1 -0.1)">
       <defs>
        <path d="M 691 4666 
L 3169 4666 
L 3169 4134 
L 1269 4134 
L 1269 2991 
Q 1406 3038 1543 3061 
Q 1681 3084 1819 3084 
Q 2600 3084 3056 2656 
Q 3513 2228 3513 1497 
Q 3513 744 3044 326 
Q 2575 -91 1722 -91 
Q 1428 -91 1123 -41 
Q 819 9 494 109 
L 494 744 
Q 775 591 1075 516 
Q 1375 441 1709 441 
Q 2250 441 2565 725 
Q 2881 1009 2881 1497 
Q 2881 1984 2565 2268 
Q 2250 2553 1709 2553 
Q 1456 2553 1204 2497 
Q 953 2441 691 2322 
L 691 4666 
z
" id="DejaVuSans-35" transform="scale(0.015625)"/>
       </defs>
       <use xlink:href="#DejaVuSans-30"/>
       <use x="63.623047" xlink:href="#DejaVuSans-2e"/>
       <use x="95.410156" xlink:href="#DejaVuSans-30"/>
       <use x="159.033203" xlink:href="#DejaVuSans-32"/>
       <use x="222.65625" xlink:href="#DejaVuSans-35"/>
      </g>
     </g>
    </g>
    <g id="ytick_3">
     <g id="line2d_12">
      <g>
       <use style="stroke:#000000;stroke-width:0.8;" x="68.925" xlink:href="#m3806f3744b" y="152.166979"/>
      </g>
     </g>
     <g id="text_11">
      <!-- 0.050 -->
      <g transform="translate(33.296875 155.966197)scale(0.1 -0.1)">
       <use xlink:href="#DejaVuSans-30"/>
       <use x="63.623047" xlink:href="#DejaVuSans-2e"/>
       <use x="95.410156" xlink:href="#DejaVuSans-30"/>
       <use x="159.033203" xlink:href="#DejaVuSans-35"/>
       <use x="222.65625" xlink:href="#DejaVuSans-30"/>
      </g>
     </g>
    </g>
    <g id="ytick_4">
     <g id="line2d_13">
      <g>
       <use style="stroke:#000000;stroke-width:0.8;" x="68.925" xlink:href="#m3806f3744b" y="126.936831"/>
      </g>
     </g>
     <g id="text_12">
      <!-- 0.075 -->
      <g transform="translate(33.296875 130.73605)scale(0.1 -0.1)">
       <use xlink:href="#DejaVuSans-30"/>
       <use x="63.623047" xlink:href="#DejaVuSans-2e"/>
       <use x="95.410156" xlink:href="#DejaVuSans-30"/>
       <use x="159.033203" xlink:href="#DejaVuSans-37"/>
       <use x="222.65625" xlink:href="#DejaVuSans-35"/>
      </g>
     </g>
    </g>
    <g id="ytick_5">
     <g id="line2d_14">
      <g>
       <use style="stroke:#000000;stroke-width:0.8;" x="68.925" xlink:href="#m3806f3744b" y="101.706684"/>
      </g>
     </g>
     <g id="text_13">
      <!-- 0.100 -->
      <g transform="translate(33.296875 105.505902)scale(0.1 -0.1)">
       <defs>
        <path d="M 794 531 
L 1825 531 
L 1825 4091 
L 703 3866 
L 703 4441 
L 1819 4666 
L 2450 4666 
L 2450 531 
L 3481 531 
L 3481 0 
L 794 0 
L 794 531 
z
" id="DejaVuSans-31" transform="scale(0.015625)"/>
       </defs>
       <use xlink:href="#DejaVuSans-30"/>
       <use x="63.623047" xlink:href="#DejaVuSans-2e"/>
       <use x="95.410156" xlink:href="#DejaVuSans-31"/>
       <use x="159.033203" xlink:href="#DejaVuSans-30"/>
       <use x="222.65625" xlink:href="#DejaVuSans-30"/>
      </g>
     </g>
    </g>
    <g id="ytick_6">
     <g id="line2d_15">
      <g>
       <use style="stroke:#000000;stroke-width:0.8;" x="68.925" xlink:href="#m3806f3744b" y="76.476536"/>
      </g>
     </g>
     <g id="text_14">
      <!-- 0.125 -->
      <g transform="translate(33.296875 80.275755)scale(0.1 -0.1)">
       <use xlink:href="#DejaVuSans-30"/>
       <use x="63.623047" xlink:href="#DejaVuSans-2e"/>
       <use x="95.410156" xlink:href="#DejaVuSans-31"/>
       <use x="159.033203" xlink:href="#DejaVuSans-32"/>
       <use x="222.65625" xlink:href="#DejaVuSans-35"/>
      </g>
     </g>
    </g>
    <g id="ytick_7">
     <g id="line2d_16">
      <g>
       <use style="stroke:#000000;stroke-width:0.8;" x="68.925" xlink:href="#m3806f3744b" y="51.246389"/>
      </g>
     </g>
     <g id="text_15">
      <!-- 0.150 -->
      <g transform="translate(33.296875 55.045607)scale(0.1 -0.1)">
       <use xlink:href="#DejaVuSans-30"/>
       <use x="63.623047" xlink:href="#DejaVuSans-2e"/>
       <use x="95.410156" xlink:href="#DejaVuSans-31"/>
       <use x="159.033203" xlink:href="#DejaVuSans-35"/>
       <use x="222.65625" xlink:href="#DejaVuSans-30"/>
      </g>
     </g>
    </g>
    <g id="text_16">
     <!-- Normalized Intensity -->
     <g transform="translate(27.217187 170.607031)rotate(-90)scale(0.1 -0.1)">
      <defs>
       <path d="M 628 4666 
L 1478 4666 
L 3547 763 
L 3547 4666 
L 4159 4666 
L 4159 0 
L 3309 0 
L 1241 3903 
L 1241 0 
L 628 0 
L 628 4666 
z
" id="DejaVuSans-4e" transform="scale(0.015625)"/>
       <path d="M 1959 3097 
Q 1497 3097 1228 2736 
Q 959 2375 959 1747 
Q 959 1119 1226 758 
Q 1494 397 1959 397 
Q 2419 397 2687 759 
Q 2956 1122 2956 1747 
Q 2956 2369 2687 2733 
Q 2419 3097 1959 3097 
z
M 1959 3584 
Q 2709 3584 3137 3096 
Q 3566 2609 3566 1747 
Q 3566 888 3137 398 
Q 2709 -91 1959 -91 
Q 1206 -91 779 398 
Q 353 888 353 1747 
Q 353 2609 779 3096 
Q 1206 3584 1959 3584 
z
" id="DejaVuSans-6f" transform="scale(0.015625)"/>
       <path d="M 2631 2963 
Q 2534 3019 2420 3045 
Q 2306 3072 2169 3072 
Q 1681 3072 1420 2755 
Q 1159 2438 1159 1844 
L 1159 0 
L 581 0 
L 581 3500 
L 1159 3500 
L 1159 2956 
Q 1341 3275 1631 3429 
Q 1922 3584 2338 3584 
Q 2397 3584 2469 3576 
Q 2541 3569 2628 3553 
L 2631 2963 
z
" id="DejaVuSans-72" transform="scale(0.015625)"/>
       <path d="M 2194 1759 
Q 1497 1759 1228 1600 
Q 959 1441 959 1056 
Q 959 750 1161 570 
Q 1363 391 1709 391 
Q 2188 391 2477 730 
Q 2766 1069 2766 1631 
L 2766 1759 
L 2194 1759 
z
M 3341 1997 
L 3341 0 
L 2766 0 
L 2766 531 
Q 2569 213 2275 61 
Q 1981 -91 1556 -91 
Q 1019 -91 701 211 
Q 384 513 384 1019 
Q 384 1609 779 1909 
Q 1175 2209 1959 2209 
L 2766 2209 
L 2766 2266 
Q 2766 2663 2505 2880 
Q 2244 3097 1772 3097 
Q 1472 3097 1187 3025 
Q 903 2953 641 2809 
L 641 3341 
Q 956 3463 1253 3523 
Q 1550 3584 1831 3584 
Q 2591 3584 2966 3190 
Q 3341 2797 3341 1997 
z
" id="DejaVuSans-61" transform="scale(0.015625)"/>
       <path d="M 603 4863 
L 1178 4863 
L 1178 0 
L 603 0 
L 603 4863 
z
" id="DejaVuSans-6c" transform="scale(0.015625)"/>
       <path d="M 603 3500 
L 1178 3500 
L 1178 0 
L 603 0 
L 603 3500 
z
M 603 4863 
L 1178 4863 
L 1178 4134 
L 603 4134 
L 603 4863 
z
" id="DejaVuSans-69" transform="scale(0.015625)"/>
       <path d="M 3597 1894 
L 3597 1613 
L 953 1613 
Q 991 1019 1311 708 
Q 1631 397 2203 397 
Q 2534 397 2845 478 
Q 3156 559 3463 722 
L 3463 178 
Q 3153 47 2828 -22 
Q 2503 -91 2169 -91 
Q 1331 -91 842 396 
Q 353 884 353 1716 
Q 353 2575 817 3079 
Q 1281 3584 2069 3584 
Q 2775 3584 3186 3129 
Q 3597 2675 3597 1894 
z
M 3022 2063 
Q 3016 2534 2758 2815 
Q 2500 3097 2075 3097 
Q 1594 3097 1305 2825 
Q 1016 2553 972 2059 
L 3022 2063 
z
" id="DejaVuSans-65" transform="scale(0.015625)"/>
       <path d="M 2906 2969 
L 2906 4863 
L 3481 4863 
L 3481 0 
L 2906 0 
L 2906 525 
Q 2725 213 2448 61 
Q 2172 -91 1784 -91 
Q 1150 -91 751 415 
Q 353 922 353 1747 
Q 353 2572 751 3078 
Q 1150 3584 1784 3584 
Q 2172 3584 2448 3432 
Q 2725 3281 2906 2969 
z
M 947 1747 
Q 947 1113 1208 752 
Q 1469 391 1925 391 
Q 2381 391 2643 752 
Q 2906 1113 2906 1747 
Q 2906 2381 2643 2742 
Q 2381 3103 1925 3103 
Q 1469 3103 1208 2742 
Q 947 2381 947 1747 
z
" id="DejaVuSans-64" transform="scale(0.015625)"/>
       <path id="DejaVuSans-20" transform="scale(0.015625)"/>
       <path d="M 628 4666 
L 1259 4666 
L 1259 0 
L 628 0 
L 628 4666 
z
" id="DejaVuSans-49" transform="scale(0.015625)"/>
       <path d="M 3513 2113 
L 3513 0 
L 2938 0 
L 2938 2094 
Q 2938 2591 2744 2837 
Q 2550 3084 2163 3084 
Q 1697 3084 1428 2787 
Q 1159 2491 1159 1978 
L 1159 0 
L 581 0 
L 581 3500 
L 1159 3500 
L 1159 2956 
Q 1366 3272 1645 3428 
Q 1925 3584 2291 3584 
Q 2894 3584 3203 3211 
Q 3513 2838 3513 2113 
z
" id="DejaVuSans-6e" transform="scale(0.015625)"/>
       <path d="M 1172 4494 
L 1172 3500 
L 2356 3500 
L 2356 3053 
L 1172 3053 
L 1172 1153 
Q 1172 725 1289 603 
Q 1406 481 1766 481 
L 2356 481 
L 2356 0 
L 1766 0 
Q 1100 0 847 248 
Q 594 497 594 1153 
L 594 3053 
L 172 3053 
L 172 3500 
L 594 3500 
L 594 4494 
L 1172 4494 
z
" id="DejaVuSans-74" transform="scale(0.015625)"/>
       <path d="M 2834 3397 
L 2834 2853 
Q 2591 2978 2328 3040 
Q 2066 3103 1784 3103 
Q 1356 3103 1142 2972 
Q 928 2841 928 2578 
Q 928 2378 1081 2264 
Q 1234 2150 1697 2047 
L 1894 2003 
Q 2506 1872 2764 1633 
Q 3022 1394 3022 966 
Q 3022 478 2636 193 
Q 2250 -91 1575 -91 
Q 1294 -91 989 -36 
Q 684 19 347 128 
L 347 722 
Q 666 556 975 473 
Q 1284 391 1588 391 
Q 1994 391 2212 530 
Q 2431 669 2431 922 
Q 2431 1156 2273 1281 
Q 2116 1406 1581 1522 
L 1381 1569 
Q 847 1681 609 1914 
Q 372 2147 372 2553 
Q 372 3047 722 3315 
Q 1072 3584 1716 3584 
Q 2034 3584 2315 3537 
Q 2597 3491 2834 3397 
z
" id="DejaVuSans-73" transform="scale(0.015625)"/>
       <path d="M 2059 -325 
Q 1816 -950 1584 -1140 
Q 1353 -1331 966 -1331 
L 506 -1331 
L 506 -850 
L 844 -850 
Q 1081 -850 1212 -737 
Q 1344 -625 1503 -206 
L 1606 56 
L 191 3500 
L 800 3500 
L 1894 763 
L 2988 3500 
L 3597 3500 
L 2059 -325 
z
" id="DejaVuSans-79" transform="scale(0.015625)"/>
      </defs>
      <use xlink:href="#DejaVuSans-4e"/>
      <use x="74.804688" xlink:href="#DejaVuSans-6f"/>
      <use x="135.986328" xlink:href="#DejaVuSans-72"/>
      <use x="175.349609" xlink:href="#DejaVuSans-6d"/>
      <use x="272.761719" xlink:href="#DejaVuSans-61"/>
      <use x="334.041016" xlink:href="#DejaVuSans-6c"/>
      <use x="361.824219" xlink:href="#DejaVuSans-69"/>
      <use x="389.607422" xlink:href="#DejaVuSans-7a"/>
      <use x="442.097656" xlink:href="#DejaVuSans-65"/>
      <use x="503.621094" xlink:href="#DejaVuSans-64"/>
      <use x="567.097656" xlink:href="#DejaVuSans-20"/>
      <use x="598.884766" xlink:href="#DejaVuSans-49"/>
      <use x="628.376953" xlink:href="#DejaVuSans-6e"/>
      <use x="691.755859" xlink:href="#DejaVuSans-74"/>
      <use x="730.964844" xlink:href="#DejaVuSans-65"/>
      <use x="792.488281" xlink:href="#DejaVuSans-6e"/>
      <use x="855.867188" xlink:href="#DejaVuSans-73"/>
      <use x="907.966797" xlink:href="#DejaVuSans-69"/>
      <use x="935.75" xlink:href="#DejaVuSans-74"/>
      <use x="974.958984" xlink:href="#DejaVuSans-79"/>
     </g>
    </g>
   </g>
   <g id="line2d_17">
    <path clip-path="url(#pcc3fd3facb)" d="M 98.658096 201.223451 
L 108.60238 193.505207 
L 118.546663 175.058477 
L 128.505427 147.99344 
L 138.46419 115.989678 
L 148.437434 79.97802 
L 158.410677 47.528932 
L 168.383921 35.172727 
L 178.357164 52.691474 
L 188.330408 92.01337 
L 198.303652 135.134231 
L 208.276895 168.311889 
L 218.250139 187.953353 
L 228.223382 197.290966 
L 238.196626 200.955741 
L 248.169869 202.170033 
L 258.143113 202.516545 
" style="fill:none;stroke:#1f77b4;stroke-linecap:square;stroke-opacity:0.5;stroke-width:1.5;"/>
   </g>
   <g id="patch_3">
    <path d="M 68.925 211 
L 68.925 26.8 
" style="fill:none;stroke:#000000;stroke-linecap:square;stroke-linejoin:miter;stroke-width:0.8;"/>
   </g>
   <g id="patch_4">
    <path d="M 347.342401 211 
L 347.342401 26.8 
" style="fill:none;stroke:#000000;stroke-linecap:square;stroke-linejoin:miter;stroke-width:0.8;"/>
   </g>
   <g id="patch_5">
    <path d="M 68.925 211 
L 347.342401 211 
" style="fill:none;stroke:#000000;stroke-linecap:square;stroke-linejoin:miter;stroke-width:0.8;"/>
   </g>
   <g id="patch_6">
    <path d="M 68.925 26.8 
L 347.342401 26.8 
" style="fill:none;stroke:#000000;stroke-linecap:square;stroke-linejoin:miter;stroke-width:0.8;"/>
   </g>
   <g id="text_17">
    <!-- GluFib_HI: 0001-0014 EGVNDNEEGFFSAR z=2 -->
    <g transform="translate(70.434638 20.8)scale(0.12 -0.12)">
     <defs>
      <path d="M 3809 666 
L 3809 1919 
L 2778 1919 
L 2778 2438 
L 4434 2438 
L 4434 434 
Q 4069 175 3628 42 
Q 3188 -91 2688 -91 
Q 1594 -91 976 548 
Q 359 1188 359 2328 
Q 359 3472 976 4111 
Q 1594 4750 2688 4750 
Q 3144 4750 3555 4637 
Q 3966 4525 4313 4306 
L 4313 3634 
Q 3963 3931 3569 4081 
Q 3175 4231 2741 4231 
Q 1884 4231 1454 3753 
Q 1025 3275 1025 2328 
Q 1025 1384 1454 906 
Q 1884 428 2741 428 
Q 3075 428 3337 486 
Q 3600 544 3809 666 
z
" id="DejaVuSans-47" transform="scale(0.015625)"/>
      <path d="M 544 1381 
L 544 3500 
L 1119 3500 
L 1119 1403 
Q 1119 906 1312 657 
Q 1506 409 1894 409 
Q 2359 409 2629 706 
Q 2900 1003 2900 1516 
L 2900 3500 
L 3475 3500 
L 3475 0 
L 2900 0 
L 2900 538 
Q 2691 219 2414 64 
Q 2138 -91 1772 -91 
Q 1169 -91 856 284 
Q 544 659 544 1381 
z
M 1991 3584 
L 1991 3584 
z
" id="DejaVuSans-75" transform="scale(0.015625)"/>
      <path d="M 628 4666 
L 3309 4666 
L 3309 4134 
L 1259 4134 
L 1259 2759 
L 3109 2759 
L 3109 2228 
L 1259 2228 
L 1259 0 
L 628 0 
L 628 4666 
z
" id="DejaVuSans-46" transform="scale(0.015625)"/>
      <path d="M 3116 1747 
Q 3116 2381 2855 2742 
Q 2594 3103 2138 3103 
Q 1681 3103 1420 2742 
Q 1159 2381 1159 1747 
Q 1159 1113 1420 752 
Q 1681 391 2138 391 
Q 2594 391 2855 752 
Q 3116 1113 3116 1747 
z
M 1159 2969 
Q 1341 3281 1617 3432 
Q 1894 3584 2278 3584 
Q 2916 3584 3314 3078 
Q 3713 2572 3713 1747 
Q 3713 922 3314 415 
Q 2916 -91 2278 -91 
Q 1894 -91 1617 61 
Q 1341 213 1159 525 
L 1159 0 
L 581 0 
L 581 4863 
L 1159 4863 
L 1159 2969 
z
" id="DejaVuSans-62" transform="scale(0.015625)"/>
      <path d="M 3263 -1063 
L 3263 -1509 
L -63 -1509 
L -63 -1063 
L 3263 -1063 
z
" id="DejaVuSans-5f" transform="scale(0.015625)"/>
      <path d="M 628 4666 
L 1259 4666 
L 1259 2753 
L 3553 2753 
L 3553 4666 
L 4184 4666 
L 4184 0 
L 3553 0 
L 3553 2222 
L 1259 2222 
L 1259 0 
L 628 0 
L 628 4666 
z
" id="DejaVuSans-48" transform="scale(0.015625)"/>
      <path d="M 750 794 
L 1409 794 
L 1409 0 
L 750 0 
L 750 794 
z
M 750 3309 
L 1409 3309 
L 1409 2516 
L 750 2516 
L 750 3309 
z
" id="DejaVuSans-3a" transform="scale(0.015625)"/>
      <path d="M 313 2009 
L 1997 2009 
L 1997 1497 
L 313 1497 
L 313 2009 
z
" id="DejaVuSans-2d" transform="scale(0.015625)"/>
      <path d="M 628 4666 
L 3578 4666 
L 3578 4134 
L 1259 4134 
L 1259 2753 
L 3481 2753 
L 3481 2222 
L 1259 2222 
L 1259 531 
L 3634 531 
L 3634 0 
L 628 0 
L 628 4666 
z
" id="DejaVuSans-45" transform="scale(0.015625)"/>
      <path d="M 1831 0 
L 50 4666 
L 709 4666 
L 2188 738 
L 3669 4666 
L 4325 4666 
L 2547 0 
L 1831 0 
z
" id="DejaVuSans-56" transform="scale(0.015625)"/>
      <path d="M 1259 4147 
L 1259 519 
L 2022 519 
Q 2988 519 3436 956 
Q 3884 1394 3884 2338 
Q 3884 3275 3436 3711 
Q 2988 4147 2022 4147 
L 1259 4147 
z
M 628 4666 
L 1925 4666 
Q 3281 4666 3915 4102 
Q 4550 3538 4550 2338 
Q 4550 1131 3912 565 
Q 3275 0 1925 0 
L 628 0 
L 628 4666 
z
" id="DejaVuSans-44" transform="scale(0.015625)"/>
      <path d="M 3425 4513 
L 3425 3897 
Q 3066 4069 2747 4153 
Q 2428 4238 2131 4238 
Q 1616 4238 1336 4038 
Q 1056 3838 1056 3469 
Q 1056 3159 1242 3001 
Q 1428 2844 1947 2747 
L 2328 2669 
Q 3034 2534 3370 2195 
Q 3706 1856 3706 1288 
Q 3706 609 3251 259 
Q 2797 -91 1919 -91 
Q 1588 -91 1214 -16 
Q 841 59 441 206 
L 441 856 
Q 825 641 1194 531 
Q 1563 422 1919 422 
Q 2459 422 2753 634 
Q 3047 847 3047 1241 
Q 3047 1584 2836 1778 
Q 2625 1972 2144 2069 
L 1759 2144 
Q 1053 2284 737 2584 
Q 422 2884 422 3419 
Q 422 4038 858 4394 
Q 1294 4750 2059 4750 
Q 2388 4750 2728 4690 
Q 3069 4631 3425 4513 
z
" id="DejaVuSans-53" transform="scale(0.015625)"/>
      <path d="M 2188 4044 
L 1331 1722 
L 3047 1722 
L 2188 4044 
z
M 1831 4666 
L 2547 4666 
L 4325 0 
L 3669 0 
L 3244 1197 
L 1141 1197 
L 716 0 
L 50 0 
L 1831 4666 
z
" id="DejaVuSans-41" transform="scale(0.015625)"/>
      <path d="M 2841 2188 
Q 3044 2119 3236 1894 
Q 3428 1669 3622 1275 
L 4263 0 
L 3584 0 
L 2988 1197 
Q 2756 1666 2539 1819 
Q 2322 1972 1947 1972 
L 1259 1972 
L 1259 0 
L 628 0 
L 628 4666 
L 2053 4666 
Q 2853 4666 3247 4331 
Q 3641 3997 3641 3322 
Q 3641 2881 3436 2590 
Q 3231 2300 2841 2188 
z
M 1259 4147 
L 1259 2491 
L 2053 2491 
Q 2509 2491 2742 2702 
Q 2975 2913 2975 3322 
Q 2975 3731 2742 3939 
Q 2509 4147 2053 4147 
L 1259 4147 
z
" id="DejaVuSans-52" transform="scale(0.015625)"/>
      <path d="M 678 2906 
L 4684 2906 
L 4684 2381 
L 678 2381 
L 678 2906 
z
M 678 1631 
L 4684 1631 
L 4684 1100 
L 678 1100 
L 678 1631 
z
" id="DejaVuSans-3d" transform="scale(0.015625)"/>
     </defs>
     <use xlink:href="#DejaVuSans-47"/>
     <use x="77.490234" xlink:href="#DejaVuSans-6c"/>
     <use x="105.273438" xlink:href="#DejaVuSans-75"/>
     <use x="168.652344" xlink:href="#DejaVuSans-46"/>
     <use x="218.921875" xlink:href="#DejaVuSans-69"/>
     <use x="246.705078" xlink:href="#DejaVuSans-62"/>
     <use x="310.181641" xlink:href="#DejaVuSans-5f"/>
     <use x="360.181641" xlink:href="#DejaVuSans-48"/>
     <use x="435.376953" xlink:href="#DejaVuSans-49"/>
     <use x="464.869141" xlink:href="#DejaVuSans-3a"/>
     <use x="498.560547" xlink:href="#DejaVuSans-20"/>
     <use x="530.347656" xlink:href="#DejaVuSans-30"/>
     <use x="593.970703" xlink:href="#DejaVuSans-30"/>
     <use x="657.59375" xlink:href="#DejaVuSans-30"/>
     <use x="721.216797" xlink:href="#DejaVuSans-31"/>
     <use x="784.839844" xlink:href="#DejaVuSans-2d"/>
     <use x="820.923828" xlink:href="#DejaVuSans-30"/>
     <use x="884.546875" xlink:href="#DejaVuSans-30"/>
     <use x="948.169922" xlink:href="#DejaVuSans-31"/>
     <use x="1011.792969" xlink:href="#DejaVuSans-34"/>
     <use x="1075.416016" xlink:href="#DejaVuSans-20"/>
     <use x="1107.203125" xlink:href="#DejaVuSans-45"/>
     <use x="1170.386719" xlink:href="#DejaVuSans-47"/>
     <use x="1247.876953" xlink:href="#DejaVuSans-56"/>
     <use x="1316.285156" xlink:href="#DejaVuSans-4e"/>
     <use x="1391.089844" xlink:href="#DejaVuSans-44"/>
     <use x="1468.091797" xlink:href="#DejaVuSans-4e"/>
     <use x="1542.896484" xlink:href="#DejaVuSans-45"/>
     <use x="1606.080078" xlink:href="#DejaVuSans-45"/>
     <use x="1669.263672" xlink:href="#DejaVuSans-47"/>
     <use x="1746.753906" xlink:href="#DejaVuSans-46"/>
     <use x="1804.273438" xlink:href="#DejaVuSans-46"/>
     <use x="1860.042969" xlink:href="#DejaVuSans-53"/>
     <use x="1925.394531" xlink:href="#DejaVuSans-41"/>
     <use x="1993.802734" xlink:href="#DejaVuSans-52"/>
     <use x="2063.285156" xlink:href="#DejaVuSans-20"/>
     <use x="2095.072266" xlink:href="#DejaVuSans-7a"/>
     <use x="2147.5625" xlink:href="#DejaVuSans-3d"/>
     <use x="2231.351562" xlink:href="#DejaVuSans-32"/>
    </g>
   </g>
   <g id="legend_1">
    <g id="line2d_18"/>
    <g id="line2d_19">
     <g>
      <use style="fill:#ff0000;stroke:#ff0000;" x="252.258026" xlink:href="#m641ddfc329" y="39.898438"/>
     </g>
    </g>
    <g id="text_18">
     <!-- Exp 15 -->
     <g transform="translate(270.258026 43.398438)scale(0.1 -0.1)">
      <defs>
       <path d="M 3513 3500 
L 2247 1797 
L 3578 0 
L 2900 0 
L 1881 1375 
L 863 0 
L 184 0 
L 1544 1831 
L 300 3500 
L 978 3500 
L 1906 2253 
L 2834 3500 
L 3513 3500 
z
" id="DejaVuSans-78" transform="scale(0.015625)"/>
       <path d="M 1159 525 
L 1159 -1331 
L 581 -1331 
L 581 3500 
L 1159 3500 
L 1159 2969 
Q 1341 3281 1617 3432 
Q 1894 3584 2278 3584 
Q 2916 3584 3314 3078 
Q 3713 2572 3713 1747 
Q 3713 922 3314 415 
Q 2916 -91 2278 -91 
Q 1894 -91 1617 61 
Q 1341 213 1159 525 
z
M 3116 1747 
Q 3116 2381 2855 2742 
Q 2594 3103 2138 3103 
Q 1681 3103 1420 2742 
Q 1159 2381 1159 1747 
Q 1159 1113 1420 752 
Q 1681 391 2138 391 
Q 2594 391 2855 752 
Q 3116 1113 3116 1747 
z
" id="DejaVuSans-70" transform="scale(0.015625)"/>
      </defs>
      <use xlink:href="#DejaVuSans-45"/>
      <use x="63.183594" xlink:href="#DejaVuSans-78"/>
      <use x="122.363281" xlink:href="#DejaVuSans-70"/>
      <use x="185.839844" xlink:href="#DejaVuSans-20"/>
      <use x="217.626953" xlink:href="#DejaVuSans-31"/>
      <use x="281.25" xlink:href="#DejaVuSans-35"/>
     </g>
    </g>
    <g id="line2d_20">
     <path d="M 242.258026 61.215312 
L 262.258026 61.215312 
" style="fill:none;stroke:#000000;stroke-linecap:square;"/>
    </g>
    <g id="line2d_21"/>
    <g id="text_19">
     <!-- pop1 = 0.13 -->
     <g transform="translate(270.258026 58.076562)scale(0.1 -0.1)">
      <defs>
       <path d="M 2597 2516 
Q 3050 2419 3304 2112 
Q 3559 1806 3559 1356 
Q 3559 666 3084 287 
Q 2609 -91 1734 -91 
Q 1441 -91 1130 -33 
Q 819 25 488 141 
L 488 750 
Q 750 597 1062 519 
Q 1375 441 1716 441 
Q 2309 441 2620 675 
Q 2931 909 2931 1356 
Q 2931 1769 2642 2001 
Q 2353 2234 1838 2234 
L 1294 2234 
L 1294 2753 
L 1863 2753 
Q 2328 2753 2575 2939 
Q 2822 3125 2822 3475 
Q 2822 3834 2567 4026 
Q 2313 4219 1838 4219 
Q 1578 4219 1281 4162 
Q 984 4106 628 3988 
L 628 4550 
Q 988 4650 1302 4700 
Q 1616 4750 1894 4750 
Q 2613 4750 3031 4423 
Q 3450 4097 3450 3541 
Q 3450 3153 3228 2886 
Q 3006 2619 2597 2516 
z
" id="DejaVuSans-33" transform="scale(0.015625)"/>
      </defs>
      <use xlink:href="#DejaVuSans-70"/>
      <use x="63.476562" xlink:href="#DejaVuSans-6f"/>
      <use x="124.658203" xlink:href="#DejaVuSans-70"/>
      <use x="188.134766" xlink:href="#DejaVuSans-31"/>
      <use x="251.757812" xlink:href="#DejaVuSans-20"/>
      <use x="283.544922" xlink:href="#DejaVuSans-3d"/>
      <use x="367.333984" xlink:href="#DejaVuSans-20"/>
      <use x="399.121094" xlink:href="#DejaVuSans-30"/>
      <use x="462.744141" xlink:href="#DejaVuSans-2e"/>
      <use x="494.53125" xlink:href="#DejaVuSans-31"/>
      <use x="558.154297" xlink:href="#DejaVuSans-33"/>
     </g>
     <!-- m/z = 787.67 -->
     <g transform="translate(270.258026 69.274375)scale(0.1 -0.1)">
      <use xlink:href="#DejaVuSans-6d"/>
      <use x="97.412109" xlink:href="#DejaVuSans-2f"/>
      <use x="131.103516" xlink:href="#DejaVuSans-7a"/>
      <use x="183.59375" xlink:href="#DejaVuSans-20"/>
      <use x="215.380859" xlink:href="#DejaVuSans-3d"/>
      <use x="299.169922" xlink:href="#DejaVuSans-20"/>
      <use x="330.957031" xlink:href="#DejaVuSans-37"/>
      <use x="394.580078" xlink:href="#DejaVuSans-38"/>
      <use x="458.203125" xlink:href="#DejaVuSans-37"/>
      <use x="521.826172" xlink:href="#DejaVuSans-2e"/>
      <use x="553.613281" xlink:href="#DejaVuSans-36"/>
      <use x="617.236328" xlink:href="#DejaVuSans-37"/>
     </g>
    </g>
    <g id="line2d_22">
     <path d="M 242.258026 87.09125 
L 262.258026 87.09125 
" style="fill:none;stroke:#000000;stroke-linecap:square;"/>
    </g>
    <g id="line2d_23"/>
    <g id="text_20">
     <!-- pop2 = 0.87 -->
     <g transform="translate(270.258026 83.9525)scale(0.1 -0.1)">
      <use xlink:href="#DejaVuSans-70"/>
      <use x="63.476562" xlink:href="#DejaVuSans-6f"/>
      <use x="124.658203" xlink:href="#DejaVuSans-70"/>
      <use x="188.134766" xlink:href="#DejaVuSans-32"/>
      <use x="251.757812" xlink:href="#DejaVuSans-20"/>
      <use x="283.544922" xlink:href="#DejaVuSans-3d"/>
      <use x="367.333984" xlink:href="#DejaVuSans-20"/>
      <use x="399.121094" xlink:href="#DejaVuSans-30"/>
      <use x="462.744141" xlink:href="#DejaVuSans-2e"/>
      <use x="494.53125" xlink:href="#DejaVuSans-38"/>
      <use x="558.154297" xlink:href="#DejaVuSans-37"/>
     </g>
     <!-- m/z = 789.47 -->
     <g transform="translate(270.258026 95.150312)scale(0.1 -0.1)">
      <use xlink:href="#DejaVuSans-6d"/>
      <use x="97.412109" xlink:href="#DejaVuSans-2f"/>
      <use x="131.103516" xlink:href="#DejaVuSans-7a"/>
      <use x="183.59375" xlink:href="#DejaVuSans-20"/>
      <use x="215.380859" xlink:href="#DejaVuSans-3d"/>
      <use x="299.169922" xlink:href="#DejaVuSans-20"/>
      <use x="330.957031" xlink:href="#DejaVuSans-37"/>
      <use x="394.580078" xlink:href="#DejaVuSans-38"/>
      <use x="458.203125" xlink:href="#DejaVuSans-39"/>
      <use x="521.826172" xlink:href="#DejaVuSans-2e"/>
      <use x="553.613281" xlink:href="#DejaVuSans-34"/>
      <use x="617.236328" xlink:href="#DejaVuSans-37"/>
     </g>
    </g>
   </g>
   <g id="line2d_24">
    <path clip-path="url(#pcc3fd3facb)" d="M 98.658096 201.316427 
L 108.60238 194.623678 
L 118.546663 181.384038 
L 128.505427 170.346493 
L 138.46419 171.325371 
L 148.437434 181.971643 
L 158.410677 192.794048 
L 168.383921 199.005848 
L 178.357164 201.537003 
L 188.330408 202.34844 
L 198.303652 202.565009 
L 208.276895 202.614888 
L 218.250139 202.625045 
L 228.223382 202.626907 
L 238.196626 202.627218 
L 248.169869 202.627266 
L 258.143113 202.627273 
" style="fill:none;stroke:#000000;stroke-linecap:square;"/>
   </g>
   <g id="line2d_25">
    <path clip-path="url(#pcc3fd3facb)" d="M 98.658096 202.534298 
L 108.60238 201.508803 
L 118.546663 196.301713 
L 128.505427 180.274221 
L 138.46419 147.291581 
L 148.437434 100.633651 
L 158.410677 57.362158 
L 168.383921 38.794153 
L 178.357164 53.781745 
L 188.330408 92.292204 
L 198.303652 135.196496 
L 208.276895 168.324275 
L 218.250139 187.955582 
L 228.223382 197.291333 
L 238.196626 200.955797 
L 248.169869 202.170041 
L 258.143113 202.516546 
" style="fill:none;stroke:#000000;stroke-linecap:square;"/>
   </g>
  </g>
  <g id="axes_2">
   <g id="patch_7">
    <path d="M 68.925 318.2 
L 347.342401 318.2 
L 347.342401 256.8 
L 68.925 256.8 
z
" style="fill:#ffffff;"/>
   </g>
   <g id="matplotlib.axis_3">
    <g id="xtick_8">
     <g id="line2d_26">
      <g>
       <use style="stroke:#000000;stroke-width:0.8;" x="101.788821" xlink:href="#m4727921dcd" y="318.2"/>
      </g>
     </g>
     <g id="text_21">
      <!-- 786 -->
      <g transform="translate(92.245071 332.798438)scale(0.1 -0.1)">
       <use xlink:href="#DejaVuSans-37"/>
       <use x="63.623047" xlink:href="#DejaVuSans-38"/>
       <use x="127.246094" xlink:href="#DejaVuSans-36"/>
      </g>
     </g>
    </g>
    <g id="xtick_9">
     <g id="line2d_27">
      <g>
       <use style="stroke:#000000;stroke-width:0.8;" x="141.432949" xlink:href="#m4727921dcd" y="318.2"/>
      </g>
     </g>
     <g id="text_22">
      <!-- 788 -->
      <g transform="translate(131.889199 332.798438)scale(0.1 -0.1)">
       <use xlink:href="#DejaVuSans-37"/>
       <use x="63.623047" xlink:href="#DejaVuSans-38"/>
       <use x="127.246094" xlink:href="#DejaVuSans-38"/>
      </g>
     </g>
    </g>
    <g id="xtick_10">
     <g id="line2d_28">
      <g>
       <use style="stroke:#000000;stroke-width:0.8;" x="181.077077" xlink:href="#m4727921dcd" y="318.2"/>
      </g>
     </g>
     <g id="text_23">
      <!-- 790 -->
      <g transform="translate(171.533327 332.798438)scale(0.1 -0.1)">
       <use xlink:href="#DejaVuSans-37"/>
       <use x="63.623047" xlink:href="#DejaVuSans-39"/>
       <use x="127.246094" xlink:href="#DejaVuSans-30"/>
      </g>
     </g>
    </g>
    <g id="xtick_11">
     <g id="line2d_29">
      <g>
       <use style="stroke:#000000;stroke-width:0.8;" x="220.721205" xlink:href="#m4727921dcd" y="318.2"/>
      </g>
     </g>
     <g id="text_24">
      <!-- 792 -->
      <g transform="translate(211.177455 332.798438)scale(0.1 -0.1)">
       <use xlink:href="#DejaVuSans-37"/>
       <use x="63.623047" xlink:href="#DejaVuSans-39"/>
       <use x="127.246094" xlink:href="#DejaVuSans-32"/>
      </g>
     </g>
    </g>
    <g id="xtick_12">
     <g id="line2d_30">
      <g>
       <use style="stroke:#000000;stroke-width:0.8;" x="260.365333" xlink:href="#m4727921dcd" y="318.2"/>
      </g>
     </g>
     <g id="text_25">
      <!-- 794 -->
      <g transform="translate(250.821583 332.798438)scale(0.1 -0.1)">
       <use xlink:href="#DejaVuSans-37"/>
       <use x="63.623047" xlink:href="#DejaVuSans-39"/>
       <use x="127.246094" xlink:href="#DejaVuSans-34"/>
      </g>
     </g>
    </g>
    <g id="xtick_13">
     <g id="line2d_31">
      <g>
       <use style="stroke:#000000;stroke-width:0.8;" x="300.009461" xlink:href="#m4727921dcd" y="318.2"/>
      </g>
     </g>
     <g id="text_26">
      <!-- 796 -->
      <g transform="translate(290.465711 332.798438)scale(0.1 -0.1)">
       <use xlink:href="#DejaVuSans-37"/>
       <use x="63.623047" xlink:href="#DejaVuSans-39"/>
       <use x="127.246094" xlink:href="#DejaVuSans-36"/>
      </g>
     </g>
    </g>
    <g id="xtick_14">
     <g id="line2d_32">
      <g>
       <use style="stroke:#000000;stroke-width:0.8;" x="339.653589" xlink:href="#m4727921dcd" y="318.2"/>
      </g>
     </g>
     <g id="text_27">
      <!-- 798 -->
      <g transform="translate(330.109839 332.798438)scale(0.1 -0.1)">
       <use xlink:href="#DejaVuSans-37"/>
       <use x="63.623047" xlink:href="#DejaVuSans-39"/>
       <use x="127.246094" xlink:href="#DejaVuSans-38"/>
      </g>
     </g>
    </g>
    <g id="text_28">
     <!-- m/z -->
     <g transform="translate(198.954794 346.476562)scale(0.1 -0.1)">
      <use xlink:href="#DejaVuSans-6d"/>
      <use x="97.412109" xlink:href="#DejaVuSans-2f"/>
      <use x="131.103516" xlink:href="#DejaVuSans-7a"/>
     </g>
    </g>
   </g>
   <g id="matplotlib.axis_4">
    <g id="ytick_8">
     <g id="line2d_33">
      <g>
       <use style="stroke:#000000;stroke-width:0.8;" x="68.925" xlink:href="#m3806f3744b" y="312.06"/>
      </g>
     </g>
     <g id="text_29">
      <!-- −0.02 -->
      <g transform="translate(31.279687 315.859219)scale(0.1 -0.1)">
       <defs>
        <path d="M 678 2272 
L 4684 2272 
L 4684 1741 
L 678 1741 
L 678 2272 
z
" id="DejaVuSans-2212" transform="scale(0.015625)"/>
       </defs>
       <use xlink:href="#DejaVuSans-2212"/>
       <use x="83.789062" xlink:href="#DejaVuSans-30"/>
       <use x="147.412109" xlink:href="#DejaVuSans-2e"/>
       <use x="179.199219" xlink:href="#DejaVuSans-30"/>
       <use x="242.822266" xlink:href="#DejaVuSans-32"/>
      </g>
     </g>
    </g>
    <g id="ytick_9">
     <g id="line2d_34">
      <g>
       <use style="stroke:#000000;stroke-width:0.8;" x="68.925" xlink:href="#m3806f3744b" y="287.5"/>
      </g>
     </g>
     <g id="text_30">
      <!-- 0.00 -->
      <g transform="translate(39.659375 291.299219)scale(0.1 -0.1)">
       <use xlink:href="#DejaVuSans-30"/>
       <use x="63.623047" xlink:href="#DejaVuSans-2e"/>
       <use x="95.410156" xlink:href="#DejaVuSans-30"/>
       <use x="159.033203" xlink:href="#DejaVuSans-30"/>
      </g>
     </g>
    </g>
    <g id="ytick_10">
     <g id="line2d_35">
      <g>
       <use style="stroke:#000000;stroke-width:0.8;" x="68.925" xlink:href="#m3806f3744b" y="262.94"/>
      </g>
     </g>
     <g id="text_31">
      <!-- 0.02 -->
      <g transform="translate(39.659375 266.739219)scale(0.1 -0.1)">
       <use xlink:href="#DejaVuSans-30"/>
       <use x="63.623047" xlink:href="#DejaVuSans-2e"/>
       <use x="95.410156" xlink:href="#DejaVuSans-30"/>
       <use x="159.033203" xlink:href="#DejaVuSans-32"/>
      </g>
     </g>
    </g>
    <g id="text_32">
     <!-- residual -->
     <g transform="translate(25.2 307.309375)rotate(-90)scale(0.1 -0.1)">
      <use xlink:href="#DejaVuSans-72"/>
      <use x="38.863281" xlink:href="#DejaVuSans-65"/>
      <use x="100.386719" xlink:href="#DejaVuSans-73"/>
      <use x="152.486328" xlink:href="#DejaVuSans-69"/>
      <use x="180.269531" xlink:href="#DejaVuSans-64"/>
      <use x="243.746094" xlink:href="#DejaVuSans-75"/>
      <use x="307.125" xlink:href="#DejaVuSans-61"/>
      <use x="368.404297" xlink:href="#DejaVuSans-6c"/>
     </g>
    </g>
   </g>
   <g id="line2d_36">
    <path clip-path="url(#p79a7a37d9c)" d="M 98.658096 285.975765 
L 108.60238 287.280453 
L 118.546663 288.929403 
L 128.505427 287.2264 
L 138.46419 287.701734 
L 148.437434 288.430582 
L 158.410677 287.006277 
L 168.383921 288.924657 
L 178.357164 287.347753 
L 188.330408 285.863678 
L 198.303652 291.730822 
L 208.276895 285.671329 
L 218.250139 288.264623 
L 228.223382 286.345306 
L 238.196626 286.748258 
L 248.169869 287.109245 
L 258.143113 286.907475 
" style="fill:none;stroke:#0000ff;stroke-linecap:square;stroke-opacity:0.5;stroke-width:1.5;"/>
   </g>
   <g id="patch_8">
    <path d="M 68.925 318.2 
L 68.925 256.8 
" style="fill:none;stroke:#000000;stroke-linecap:square;stroke-linejoin:miter;stroke-width:0.8;"/>
   </g>
   <g id="patch_9">
    <path d="M 347.342401 318.2 
L 347.342401 256.8 
" style="fill:none;stroke:#000000;stroke-linecap:square;stroke-linejoin:miter;stroke-width:0.8;"/>
   </g>
   <g id="patch_10">
    <path d="M 68.925 318.2 
L 347.342401 318.2 
" style="fill:none;stroke:#000000;stroke-linecap:square;stroke-linejoin:miter;stroke-width:0.8;"/>
   </g>
   <g id="patch_11">
    <path d="M 68.925 256.8 
L 347.342401 256.8 
" style="fill:none;stroke:#000000;stroke-linecap:square;stroke-linejoin:miter;stroke-width:0.8;"/>
   </g>
   <g id="legend_2">
    <g id="line2d_37">
     <path d="M 229.962714 269.898438 
L 249.962714 269.898438 
" style="fill:none;stroke:#0000ff;stroke-linecap:square;stroke-opacity:0.5;stroke-width:1.5;"/>
    </g>
    <g id="line2d_38"/>
    <g id="text_33">
     <!-- rss = 1.350e-06 -->
     <g transform="translate(257.962714 273.398438)scale(0.1 -0.1)">
      <use xlink:href="#DejaVuSans-72"/>
      <use x="41.113281" xlink:href="#DejaVuSans-73"/>
      <use x="93.212891" xlink:href="#DejaVuSans-73"/>
      <use x="145.3125" xlink:href="#DejaVuSans-20"/>
      <use x="177.099609" xlink:href="#DejaVuSans-3d"/>
      <use x="260.888672" xlink:href="#DejaVuSans-20"/>
      <use x="292.675781" xlink:href="#DejaVuSans-31"/>
      <use x="356.298828" xlink:href="#DejaVuSans-2e"/>
      <use x="388.085938" xlink:href="#DejaVuSans-33"/>
      <use x="451.708984" xlink:href="#DejaVuSans-35"/>
      <use x="515.332031" xlink:href="#DejaVuSans-30"/>
      <use x="578.955078" xlink:href="#DejaVuSans-65"/>
      <use x="640.478516" xlink:href="#DejaVuSans-2d"/>
      <use x="676.5625" xlink:href="#DejaVuSans-30"/>
      <use x="740.185547" xlink:href="#DejaVuSans-36"/>
     </g>
    </g>
   </g>
  </g>
 </g>
 <defs>
  <clipPath id="pcc3fd3facb">
   <rect height="184.2" width="278.417401" x="68.925" y="26.8"/>
  </clipPath>
  <clipPath id="p79a7a37d9c">
   <rect height="61.4" width="278.417401" x="68.925" y="256.8"/>
  </clipPath>
 </defs>
</svg>
