<?xml version="1.0" encoding="utf-8" standalone="no"?>
<!DOCTYPE svg PUBLIC "-//W3C//DTD SVG 1.1//EN"
  "http://www.w3.org/Graphics/SVG/1.1/DTD/svg11.dtd">
<svg height="360pt" version="1.1" viewBox="0 0 360 360" width="360pt" xmlns="http://www.w3.org/2000/svg" xmlns:xlink="http://www.w3.org/1999/xlink">
 <metadata>
  <rdf:RDF xmlns:cc="http://creativecommons.org/ns#" xmlns:dc="http://purl.org/dc/elements/1.1/" xmlns:rdf="http://www.w3.org/1999/02/22-rdf-syntax-ns#">
   <cc:Work>
    <dc:type rdf:resource="http://purl.org/dc/dcmitype/StillImage"/>
    <dc:date>2025-01-22T13:36:17.714864</dc:date>
    <dc:format>image/svg+xml</dc:format>
    <dc:creator>
     <cc:Agent>
      <dc:title>Matplotlib v3.4.2, https://matplotlib.org/</dc:title>
     </cc:Agent>
    </dc:creator>
   </cc:Work>
  </rdf:RDF>
 </metadata>
 <defs>
  <style type="text/css">*{stroke-linecap:butt;stroke-linejoin:round;}</style>
 </defs>
 <g id="figure_1">
  <g id="patch_1">
   <path d="M 0 360 
L 360 360 
L 360 0 
L 0 0 
z
" style="fill:none;"/>
  </g>
  <g id="axes_1">
   <g id="patch_2">
    <path d="M 68.925 211 
L 347.342401 211 
L 347.342401 26.8 
L 68.925 26.8 
z
" style="fill:#ffffff;"/>
   </g>
   <g id="line2d_1">
    <path clip-path="url(#p50bcc46063)" d="M 90.371312 202.553894 
L 91.104728 202.613666 
L 92.551739 202.623871 
L 95.227718 202.606377 
L 96.198999 202.537614 
L 97.408145 202.440472 
L 97.646009 202.284481 
L 97.883874 201.940815 
L 98.617291 200.212085 
L 99.588572 202.119937 
L 100.559853 202.56337 
L 104.682842 202.571874 
L 107.101134 202.38138 
L 107.358821 202.260864 
L 107.596686 201.914671 
L 107.83455 201.090688 
L 108.567967 194.160022 
L 108.805831 195.335057 
L 109.301383 200.716504 
L 109.539248 201.722233 
L 110.272664 202.466131 
L 110.748394 202.497523 
L 111.243945 202.55438 
L 111.719675 202.592527 
L 112.453091 202.590097 
L 113.662237 202.563856 
L 114.395654 202.517447 
L 114.871383 202.521821 
L 117.05181 202.207215 
L 117.309497 201.98076 
L 117.547362 201.477507 
L 117.785226 199.700862 
L 118.023091 194.417577 
L 118.518643 178.595909 
L 118.756508 181.900391 
L 119.252059 198.832949 
L 119.489924 201.349215 
L 119.727789 201.915837 
L 120.936935 202.480029 
L 121.670351 202.537371 
L 123.612913 202.503549 
L 126.288892 202.415397 
L 126.764621 202.426574 
L 127.260173 201.951798 
L 127.498038 201.266603 
L 127.735903 199.044825 
L 127.993589 190.443451 
L 128.469319 152.675158 
L 128.707184 158.312217 
L 129.202735 195.135816 
L 129.4406 200.246101 
L 129.678465 201.495973 
L 130.174016 202.070565 
L 130.649746 202.3461 
L 131.383162 202.505298 
L 133.821276 202.432211 
L 136.001703 202.351057 
L 137.210849 201.880071 
L 137.448714 201.200514 
L 137.706401 199.00692 
L 137.944266 187.731831 
L 138.419995 123.887283 
L 138.677682 134.082584 
L 139.153411 193.798473 
L 139.391276 200.415213 
L 139.648963 201.836627 
L 139.886828 201.955005 
L 140.124693 201.934303 
L 140.858109 202.189915 
L 142.30512 202.506465 
L 144.505369 202.445721 
L 144.981098 202.420257 
L 145.714515 202.226361 
L 146.447931 202.279039 
L 147.181347 201.761304 
L 147.419212 201.221896 
L 147.657077 198.804764 
L 147.894942 184.20381 
L 148.390493 91.63942 
L 148.628358 102.136012 
L 149.12391 189.218849 
L 149.361774 199.708637 
L 149.599639 201.49403 
L 150.095191 201.736715 
L 150.57092 202.15687 
L 152.275618 202.346392 
L 153.980315 202.199439 
L 154.456045 202.28419 
L 154.951597 202.238024 
L 155.922878 202.013514 
L 156.398607 202.123825 
L 157.132024 201.88979 
L 157.38971 201.645647 
L 157.627575 199.326678 
L 157.86544 184.466225 
L 158.360992 61.024361 
L 158.598856 68.410851 
L 159.074586 187.751269 
L 159.332273 199.758204 
L 159.570137 201.620377 
L 160.303554 201.852663 
L 160.779283 202.237052 
L 161.274835 202.343282 
L 161.750564 202.244342 
L 162.246116 202.338325 
L 162.721846 202.256004 
L 163.217397 202.313347 
L 163.693127 202.226847 
L 164.188678 202.32326 
L 166.864657 201.943828 
L 167.102522 201.711737 
L 167.340387 201.232587 
L 167.598073 198.776579 
L 167.835938 182.707074 
L 168.311668 51.208103 
L 168.569354 59.177738 
L 169.045084 187.887336 
L 169.282949 199.736822 
L 169.540636 201.248137 
L 170.016365 201.63204 
L 170.25423 202.019054 
L 170.511917 202.221502 
L 171.721063 202.081547 
L 172.692344 202.389156 
L 173.42576 202.179418 
L 174.892593 202.334729 
L 175.368322 202.420257 
L 176.835155 201.807955 
L 177.07302 201.565951 
L 177.310885 200.938099 
L 177.568572 198.624961 
L 177.806436 184.077462 
L 178.282166 65.981085 
L 178.539853 71.618143 
L 179.015582 187.129249 
L 179.253447 199.774727 
L 179.511134 201.460985 
L 179.986863 201.36185 
L 180.482415 202.13335 
L 180.72028 202.304891 
L 181.929426 202.260572 
L 182.424977 202.372828 
L 182.900707 202.283412 
L 186.805653 202.211102 
L 187.043518 201.897565 
L 187.281383 201.287013 
L 187.53907 198.536518 
L 187.776935 184.903583 
L 188.252664 100.678152 
L 188.510351 108.890763 
L 188.98608 191.755525 
L 189.243767 200.392859 
L 189.481632 201.627181 
L 189.719497 201.71854 
L 189.957362 201.6369 
L 190.215048 201.724566 
L 190.690778 202.288758 
L 191.18633 202.397417 
L 192.891027 202.322872 
L 193.624443 202.344739 
L 194.833589 202.381672 
L 195.309319 202.263002 
L 195.80487 202.429198 
L 197.014016 202.055306 
L 197.271703 201.592192 
L 197.509568 198.985538 
L 197.747433 188.713457 
L 198.242984 144.336199 
L 198.480849 150.702188 
L 198.976401 194.091988 
L 199.214265 200.365646 
L 199.45213 201.766358 
L 199.947682 202.211297 
L 200.681098 202.361456 
L 201.652379 202.469338 
L 202.128109 202.468366 
L 202.861525 202.521335 
L 204.328358 202.424144 
L 205.061774 202.518614 
L 205.775369 202.449705 
L 206.27092 202.252603 
L 206.766472 202.331813 
L 207.004337 202.248715 
L 207.242201 201.805817 
L 207.480066 200.044917 
L 207.737753 193.590485 
L 208.213483 170.013973 
L 208.451347 174.154295 
L 208.946899 197.829941 
L 209.184764 201.252025 
L 209.442451 202.031494 
L 209.680315 202.306835 
L 210.651596 202.498981 
L 211.385013 202.435516 
L 211.860742 202.575762 
L 216.974835 202.333757 
L 217.232522 202.079798 
L 217.470386 200.902138 
L 218.203803 189.840869 
L 218.441668 191.969344 
L 218.937219 199.858311 
L 219.175084 201.643703 
L 219.412949 202.281274 
L 219.9085 202.463021 
L 221.613198 202.601517 
L 225.993874 202.52668 
L 226.489426 202.588882 
L 226.965155 202.421229 
L 227.20302 202.205951 
L 227.460707 201.672569 
L 227.698571 200.550308 
L 228.194123 196.907602 
L 228.431988 197.525735 
L 228.907717 201.30062 
L 229.165404 202.101957 
L 229.403269 202.444263 
L 232.079248 202.593499 
L 236.955475 202.405678 
L 237.451027 202.091266 
L 238.184443 200.546421 
L 239.155725 202.308973 
L 241.098287 202.583294 
L 242.327255 202.605648 
L 246.945796 202.40733 
L 247.917077 201.974346 
L 248.412628 201.981149 
L 249.146045 202.387698 
L 250.117326 202.610021 
L 256.460386 202.474392 
L 256.936116 202.405192 
L 257.669532 202.086893 
L 258.402949 202.196232 
L 258.8985 202.460299 
L 259.631917 202.60662 
L 264.508144 202.574547 
L 265.241561 202.601274 
L 266.212842 202.437265 
L 266.946258 202.31772 
L 267.184123 202.209061 
L 267.917539 202.364858 
L 269.384372 202.576491 
L 271.326934 202.625086 
L 276.460849 202.379242 
L 277.43213 202.170768 
L 278.898963 202.574304 
L 280.108109 202.596901 
L 285.242023 202.558753 
L 285.717753 202.412287 
L 285.717753 202.412287 
" style="fill:none;stroke:#999999;stroke-linecap:square;stroke-width:1.5;"/>
   </g>
   <g id="line2d_2">
    <defs>
     <path d="M 0 2 
C 0.530406 2 1.03916 1.789267 1.414214 1.414214 
C 1.789267 1.03916 2 0.530406 2 0 
C 2 -0.530406 1.789267 -1.03916 1.414214 -1.414214 
C 1.03916 -1.789267 0.530406 -2 0 -2 
C -0.530406 -2 -1.03916 -1.789267 -1.414214 -1.414214 
C -1.789267 -1.03916 -2 -0.530406 -2 0 
C -2 0.530406 -1.789267 1.03916 -1.414214 1.414214 
C -1.03916 1.789267 -0.530406 2 0 2 
z
" id="m19d9a2f9ac" style="stroke:#ff0000;"/>
    </defs>
    <g clip-path="url(#p50bcc46063)">
     <use style="fill:#ff0000;stroke:#ff0000;" x="98.658096" xlink:href="#m19d9a2f9ac" y="200.212085"/>
     <use style="fill:#ff0000;stroke:#ff0000;" x="108.60238" xlink:href="#m19d9a2f9ac" y="194.160022"/>
     <use style="fill:#ff0000;stroke:#ff0000;" x="118.546663" xlink:href="#m19d9a2f9ac" y="178.595909"/>
     <use style="fill:#ff0000;stroke:#ff0000;" x="128.505427" xlink:href="#m19d9a2f9ac" y="152.675158"/>
     <use style="fill:#ff0000;stroke:#ff0000;" x="138.46419" xlink:href="#m19d9a2f9ac" y="123.887283"/>
     <use style="fill:#ff0000;stroke:#ff0000;" x="148.437434" xlink:href="#m19d9a2f9ac" y="91.63942"/>
     <use style="fill:#ff0000;stroke:#ff0000;" x="158.410677" xlink:href="#m19d9a2f9ac" y="61.024361"/>
     <use style="fill:#ff0000;stroke:#ff0000;" x="168.383921" xlink:href="#m19d9a2f9ac" y="51.208103"/>
     <use style="fill:#ff0000;stroke:#ff0000;" x="178.357164" xlink:href="#m19d9a2f9ac" y="65.981085"/>
     <use style="fill:#ff0000;stroke:#ff0000;" x="188.330408" xlink:href="#m19d9a2f9ac" y="100.678152"/>
     <use style="fill:#ff0000;stroke:#ff0000;" x="198.303652" xlink:href="#m19d9a2f9ac" y="144.336199"/>
     <use style="fill:#ff0000;stroke:#ff0000;" x="208.276895" xlink:href="#m19d9a2f9ac" y="170.013973"/>
     <use style="fill:#ff0000;stroke:#ff0000;" x="218.250139" xlink:href="#m19d9a2f9ac" y="189.840869"/>
     <use style="fill:#ff0000;stroke:#ff0000;" x="228.223382" xlink:href="#m19d9a2f9ac" y="196.907602"/>
     <use style="fill:#ff0000;stroke:#ff0000;" x="238.196626" xlink:href="#m19d9a2f9ac" y="200.546421"/>
     <use style="fill:#ff0000;stroke:#ff0000;" x="248.169869" xlink:href="#m19d9a2f9ac" y="201.922349"/>
     <use style="fill:#ff0000;stroke:#ff0000;" x="258.143113" xlink:href="#m19d9a2f9ac" y="202.086893"/>
    </g>
   </g>
   <g id="matplotlib.axis_1">
    <g id="xtick_1">
     <g id="line2d_3">
      <defs>
       <path d="M 0 0 
L 0 3.5 
" id="me5074ad8a4" style="stroke:#000000;stroke-width:0.8;"/>
      </defs>
      <g>
       <use style="stroke:#000000;stroke-width:0.8;" x="101.788821" xlink:href="#me5074ad8a4" y="211"/>
      </g>
     </g>
     <g id="text_1">
      <!-- 786 -->
      <g transform="translate(92.245071 225.598437)scale(0.1 -0.1)">
       <defs>
        <path d="M 525 4666 
L 3525 4666 
L 3525 4397 
L 1831 0 
L 1172 0 
L 2766 4134 
L 525 4134 
L 525 4666 
z
" id="DejaVuSans-37" transform="scale(0.015625)"/>
        <path d="M 2034 2216 
Q 1584 2216 1326 1975 
Q 1069 1734 1069 1313 
Q 1069 891 1326 650 
Q 1584 409 2034 409 
Q 2484 409 2743 651 
Q 3003 894 3003 1313 
Q 3003 1734 2745 1975 
Q 2488 2216 2034 2216 
z
M 1403 2484 
Q 997 2584 770 2862 
Q 544 3141 544 3541 
Q 544 4100 942 4425 
Q 1341 4750 2034 4750 
Q 2731 4750 3128 4425 
Q 3525 4100 3525 3541 
Q 3525 3141 3298 2862 
Q 3072 2584 2669 2484 
Q 3125 2378 3379 2068 
Q 3634 1759 3634 1313 
Q 3634 634 3220 271 
Q 2806 -91 2034 -91 
Q 1263 -91 848 271 
Q 434 634 434 1313 
Q 434 1759 690 2068 
Q 947 2378 1403 2484 
z
M 1172 3481 
Q 1172 3119 1398 2916 
Q 1625 2713 2034 2713 
Q 2441 2713 2670 2916 
Q 2900 3119 2900 3481 
Q 2900 3844 2670 4047 
Q 2441 4250 2034 4250 
Q 1625 4250 1398 4047 
Q 1172 3844 1172 3481 
z
" id="DejaVuSans-38" transform="scale(0.015625)"/>
        <path d="M 2113 2584 
Q 1688 2584 1439 2293 
Q 1191 2003 1191 1497 
Q 1191 994 1439 701 
Q 1688 409 2113 409 
Q 2538 409 2786 701 
Q 3034 994 3034 1497 
Q 3034 2003 2786 2293 
Q 2538 2584 2113 2584 
z
M 3366 4563 
L 3366 3988 
Q 3128 4100 2886 4159 
Q 2644 4219 2406 4219 
Q 1781 4219 1451 3797 
Q 1122 3375 1075 2522 
Q 1259 2794 1537 2939 
Q 1816 3084 2150 3084 
Q 2853 3084 3261 2657 
Q 3669 2231 3669 1497 
Q 3669 778 3244 343 
Q 2819 -91 2113 -91 
Q 1303 -91 875 529 
Q 447 1150 447 2328 
Q 447 3434 972 4092 
Q 1497 4750 2381 4750 
Q 2619 4750 2861 4703 
Q 3103 4656 3366 4563 
z
" id="DejaVuSans-36" transform="scale(0.015625)"/>
       </defs>
       <use xlink:href="#DejaVuSans-37"/>
       <use x="63.623047" xlink:href="#DejaVuSans-38"/>
       <use x="127.246094" xlink:href="#DejaVuSans-36"/>
      </g>
     </g>
    </g>
    <g id="xtick_2">
     <g id="line2d_4">
      <g>
       <use style="stroke:#000000;stroke-width:0.8;" x="141.432949" xlink:href="#me5074ad8a4" y="211"/>
      </g>
     </g>
     <g id="text_2">
      <!-- 788 -->
      <g transform="translate(131.889199 225.598437)scale(0.1 -0.1)">
       <use xlink:href="#DejaVuSans-37"/>
       <use x="63.623047" xlink:href="#DejaVuSans-38"/>
       <use x="127.246094" xlink:href="#DejaVuSans-38"/>
      </g>
     </g>
    </g>
    <g id="xtick_3">
     <g id="line2d_5">
      <g>
       <use style="stroke:#000000;stroke-width:0.8;" x="181.077077" xlink:href="#me5074ad8a4" y="211"/>
      </g>
     </g>
     <g id="text_3">
      <!-- 790 -->
      <g transform="translate(171.533327 225.598437)scale(0.1 -0.1)">
       <defs>
        <path d="M 703 97 
L 703 672 
Q 941 559 1184 500 
Q 1428 441 1663 441 
Q 2288 441 2617 861 
Q 2947 1281 2994 2138 
Q 2813 1869 2534 1725 
Q 2256 1581 1919 1581 
Q 1219 1581 811 2004 
Q 403 2428 403 3163 
Q 403 3881 828 4315 
Q 1253 4750 1959 4750 
Q 2769 4750 3195 4129 
Q 3622 3509 3622 2328 
Q 3622 1225 3098 567 
Q 2575 -91 1691 -91 
Q 1453 -91 1209 -44 
Q 966 3 703 97 
z
M 1959 2075 
Q 2384 2075 2632 2365 
Q 2881 2656 2881 3163 
Q 2881 3666 2632 3958 
Q 2384 4250 1959 4250 
Q 1534 4250 1286 3958 
Q 1038 3666 1038 3163 
Q 1038 2656 1286 2365 
Q 1534 2075 1959 2075 
z
" id="DejaVuSans-39" transform="scale(0.015625)"/>
        <path d="M 2034 4250 
Q 1547 4250 1301 3770 
Q 1056 3291 1056 2328 
Q 1056 1369 1301 889 
Q 1547 409 2034 409 
Q 2525 409 2770 889 
Q 3016 1369 3016 2328 
Q 3016 3291 2770 3770 
Q 2525 4250 2034 4250 
z
M 2034 4750 
Q 2819 4750 3233 4129 
Q 3647 3509 3647 2328 
Q 3647 1150 3233 529 
Q 2819 -91 2034 -91 
Q 1250 -91 836 529 
Q 422 1150 422 2328 
Q 422 3509 836 4129 
Q 1250 4750 2034 4750 
z
" id="DejaVuSans-30" transform="scale(0.015625)"/>
       </defs>
       <use xlink:href="#DejaVuSans-37"/>
       <use x="63.623047" xlink:href="#DejaVuSans-39"/>
       <use x="127.246094" xlink:href="#DejaVuSans-30"/>
      </g>
     </g>
    </g>
    <g id="xtick_4">
     <g id="line2d_6">
      <g>
       <use style="stroke:#000000;stroke-width:0.8;" x="220.721205" xlink:href="#me5074ad8a4" y="211"/>
      </g>
     </g>
     <g id="text_4">
      <!-- 792 -->
      <g transform="translate(211.177455 225.598437)scale(0.1 -0.1)">
       <defs>
        <path d="M 1228 531 
L 3431 531 
L 3431 0 
L 469 0 
L 469 531 
Q 828 903 1448 1529 
Q 2069 2156 2228 2338 
Q 2531 2678 2651 2914 
Q 2772 3150 2772 3378 
Q 2772 3750 2511 3984 
Q 2250 4219 1831 4219 
Q 1534 4219 1204 4116 
Q 875 4013 500 3803 
L 500 4441 
Q 881 4594 1212 4672 
Q 1544 4750 1819 4750 
Q 2544 4750 2975 4387 
Q 3406 4025 3406 3419 
Q 3406 3131 3298 2873 
Q 3191 2616 2906 2266 
Q 2828 2175 2409 1742 
Q 1991 1309 1228 531 
z
" id="DejaVuSans-32" transform="scale(0.015625)"/>
       </defs>
       <use xlink:href="#DejaVuSans-37"/>
       <use x="63.623047" xlink:href="#DejaVuSans-39"/>
       <use x="127.246094" xlink:href="#DejaVuSans-32"/>
      </g>
     </g>
    </g>
    <g id="xtick_5">
     <g id="line2d_7">
      <g>
       <use style="stroke:#000000;stroke-width:0.8;" x="260.365333" xlink:href="#me5074ad8a4" y="211"/>
      </g>
     </g>
     <g id="text_5">
      <!-- 794 -->
      <g transform="translate(250.821583 225.598437)scale(0.1 -0.1)">
       <defs>
        <path d="M 2419 4116 
L 825 1625 
L 2419 1625 
L 2419 4116 
z
M 2253 4666 
L 3047 4666 
L 3047 1625 
L 3713 1625 
L 3713 1100 
L 3047 1100 
L 3047 0 
L 2419 0 
L 2419 1100 
L 313 1100 
L 313 1709 
L 2253 4666 
z
" id="DejaVuSans-34" transform="scale(0.015625)"/>
       </defs>
       <use xlink:href="#DejaVuSans-37"/>
       <use x="63.623047" xlink:href="#DejaVuSans-39"/>
       <use x="127.246094" xlink:href="#DejaVuSans-34"/>
      </g>
     </g>
    </g>
    <g id="xtick_6">
     <g id="line2d_8">
      <g>
       <use style="stroke:#000000;stroke-width:0.8;" x="300.009461" xlink:href="#me5074ad8a4" y="211"/>
      </g>
     </g>
     <g id="text_6">
      <!-- 796 -->
      <g transform="translate(290.465711 225.598437)scale(0.1 -0.1)">
       <use xlink:href="#DejaVuSans-37"/>
       <use x="63.623047" xlink:href="#DejaVuSans-39"/>
       <use x="127.246094" xlink:href="#DejaVuSans-36"/>
      </g>
     </g>
    </g>
    <g id="xtick_7">
     <g id="line2d_9">
      <g>
       <use style="stroke:#000000;stroke-width:0.8;" x="339.653589" xlink:href="#me5074ad8a4" y="211"/>
      </g>
     </g>
     <g id="text_7">
      <!-- 798 -->
      <g transform="translate(330.109839 225.598437)scale(0.1 -0.1)">
       <use xlink:href="#DejaVuSans-37"/>
       <use x="63.623047" xlink:href="#DejaVuSans-39"/>
       <use x="127.246094" xlink:href="#DejaVuSans-38"/>
      </g>
     </g>
    </g>
    <g id="text_8">
     <!-- m/z -->
     <g transform="translate(198.954794 239.276563)scale(0.1 -0.1)">
      <defs>
       <path d="M 3328 2828 
Q 3544 3216 3844 3400 
Q 4144 3584 4550 3584 
Q 5097 3584 5394 3201 
Q 5691 2819 5691 2113 
L 5691 0 
L 5113 0 
L 5113 2094 
Q 5113 2597 4934 2840 
Q 4756 3084 4391 3084 
Q 3944 3084 3684 2787 
Q 3425 2491 3425 1978 
L 3425 0 
L 2847 0 
L 2847 2094 
Q 2847 2600 2669 2842 
Q 2491 3084 2119 3084 
Q 1678 3084 1418 2786 
Q 1159 2488 1159 1978 
L 1159 0 
L 581 0 
L 581 3500 
L 1159 3500 
L 1159 2956 
Q 1356 3278 1631 3431 
Q 1906 3584 2284 3584 
Q 2666 3584 2933 3390 
Q 3200 3197 3328 2828 
z
" id="DejaVuSans-6d" transform="scale(0.015625)"/>
       <path d="M 1625 4666 
L 2156 4666 
L 531 -594 
L 0 -594 
L 1625 4666 
z
" id="DejaVuSans-2f" transform="scale(0.015625)"/>
       <path d="M 353 3500 
L 3084 3500 
L 3084 2975 
L 922 459 
L 3084 459 
L 3084 0 
L 275 0 
L 275 525 
L 2438 3041 
L 353 3041 
L 353 3500 
z
" id="DejaVuSans-7a" transform="scale(0.015625)"/>
      </defs>
      <use xlink:href="#DejaVuSans-6d"/>
      <use x="97.412109" xlink:href="#DejaVuSans-2f"/>
      <use x="131.103516" xlink:href="#DejaVuSans-7a"/>
     </g>
    </g>
   </g>
   <g id="matplotlib.axis_2">
    <g id="ytick_1">
     <g id="line2d_10">
      <defs>
       <path d="M 0 0 
L -3.5 0 
" id="mc845956f69" style="stroke:#000000;stroke-width:0.8;"/>
      </defs>
      <g>
       <use style="stroke:#000000;stroke-width:0.8;" x="68.925" xlink:href="#mc845956f69" y="202.63116"/>
      </g>
     </g>
     <g id="text_9">
      <!-- 0.000 -->
      <g transform="translate(33.296875 206.430379)scale(0.1 -0.1)">
       <defs>
        <path d="M 684 794 
L 1344 794 
L 1344 0 
L 684 0 
L 684 794 
z
" id="DejaVuSans-2e" transform="scale(0.015625)"/>
       </defs>
       <use xlink:href="#DejaVuSans-30"/>
       <use x="63.623047" xlink:href="#DejaVuSans-2e"/>
       <use x="95.410156" xlink:href="#DejaVuSans-30"/>
       <use x="159.033203" xlink:href="#DejaVuSans-30"/>
       <use x="222.65625" xlink:href="#DejaVuSans-30"/>
      </g>
     </g>
    </g>
    <g id="ytick_2">
     <g id="line2d_11">
      <g>
       <use style="stroke:#000000;stroke-width:0.8;" x="68.925" xlink:href="#mc845956f69" y="179.655814"/>
      </g>
     </g>
     <g id="text_10">
      <!-- 0.025 -->
      <g transform="translate(33.296875 183.455033)scale(0.1 -0.1)">
       <defs>
        <path d="M 691 4666 
L 3169 4666 
L 3169 4134 
L 1269 4134 
L 1269 2991 
Q 1406 3038 1543 3061 
Q 1681 3084 1819 3084 
Q 2600 3084 3056 2656 
Q 3513 2228 3513 1497 
Q 3513 744 3044 326 
Q 2575 -91 1722 -91 
Q 1428 -91 1123 -41 
Q 819 9 494 109 
L 494 744 
Q 775 591 1075 516 
Q 1375 441 1709 441 
Q 2250 441 2565 725 
Q 2881 1009 2881 1497 
Q 2881 1984 2565 2268 
Q 2250 2553 1709 2553 
Q 1456 2553 1204 2497 
Q 953 2441 691 2322 
L 691 4666 
z
" id="DejaVuSans-35" transform="scale(0.015625)"/>
       </defs>
       <use xlink:href="#DejaVuSans-30"/>
       <use x="63.623047" xlink:href="#DejaVuSans-2e"/>
       <use x="95.410156" xlink:href="#DejaVuSans-30"/>
       <use x="159.033203" xlink:href="#DejaVuSans-32"/>
       <use x="222.65625" xlink:href="#DejaVuSans-35"/>
      </g>
     </g>
    </g>
    <g id="ytick_3">
     <g id="line2d_12">
      <g>
       <use style="stroke:#000000;stroke-width:0.8;" x="68.925" xlink:href="#mc845956f69" y="156.680468"/>
      </g>
     </g>
     <g id="text_11">
      <!-- 0.050 -->
      <g transform="translate(33.296875 160.479687)scale(0.1 -0.1)">
       <use xlink:href="#DejaVuSans-30"/>
       <use x="63.623047" xlink:href="#DejaVuSans-2e"/>
       <use x="95.410156" xlink:href="#DejaVuSans-30"/>
       <use x="159.033203" xlink:href="#DejaVuSans-35"/>
       <use x="222.65625" xlink:href="#DejaVuSans-30"/>
      </g>
     </g>
    </g>
    <g id="ytick_4">
     <g id="line2d_13">
      <g>
       <use style="stroke:#000000;stroke-width:0.8;" x="68.925" xlink:href="#mc845956f69" y="133.705122"/>
      </g>
     </g>
     <g id="text_12">
      <!-- 0.075 -->
      <g transform="translate(33.296875 137.504341)scale(0.1 -0.1)">
       <use xlink:href="#DejaVuSans-30"/>
       <use x="63.623047" xlink:href="#DejaVuSans-2e"/>
       <use x="95.410156" xlink:href="#DejaVuSans-30"/>
       <use x="159.033203" xlink:href="#DejaVuSans-37"/>
       <use x="222.65625" xlink:href="#DejaVuSans-35"/>
      </g>
     </g>
    </g>
    <g id="ytick_5">
     <g id="line2d_14">
      <g>
       <use style="stroke:#000000;stroke-width:0.8;" x="68.925" xlink:href="#mc845956f69" y="110.729776"/>
      </g>
     </g>
     <g id="text_13">
      <!-- 0.100 -->
      <g transform="translate(33.296875 114.528995)scale(0.1 -0.1)">
       <defs>
        <path d="M 794 531 
L 1825 531 
L 1825 4091 
L 703 3866 
L 703 4441 
L 1819 4666 
L 2450 4666 
L 2450 531 
L 3481 531 
L 3481 0 
L 794 0 
L 794 531 
z
" id="DejaVuSans-31" transform="scale(0.015625)"/>
       </defs>
       <use xlink:href="#DejaVuSans-30"/>
       <use x="63.623047" xlink:href="#DejaVuSans-2e"/>
       <use x="95.410156" xlink:href="#DejaVuSans-31"/>
       <use x="159.033203" xlink:href="#DejaVuSans-30"/>
       <use x="222.65625" xlink:href="#DejaVuSans-30"/>
      </g>
     </g>
    </g>
    <g id="ytick_6">
     <g id="line2d_15">
      <g>
       <use style="stroke:#000000;stroke-width:0.8;" x="68.925" xlink:href="#mc845956f69" y="87.75443"/>
      </g>
     </g>
     <g id="text_14">
      <!-- 0.125 -->
      <g transform="translate(33.296875 91.553649)scale(0.1 -0.1)">
       <use xlink:href="#DejaVuSans-30"/>
       <use x="63.623047" xlink:href="#DejaVuSans-2e"/>
       <use x="95.410156" xlink:href="#DejaVuSans-31"/>
       <use x="159.033203" xlink:href="#DejaVuSans-32"/>
       <use x="222.65625" xlink:href="#DejaVuSans-35"/>
      </g>
     </g>
    </g>
    <g id="ytick_7">
     <g id="line2d_16">
      <g>
       <use style="stroke:#000000;stroke-width:0.8;" x="68.925" xlink:href="#mc845956f69" y="64.779084"/>
      </g>
     </g>
     <g id="text_15">
      <!-- 0.150 -->
      <g transform="translate(33.296875 68.578303)scale(0.1 -0.1)">
       <use xlink:href="#DejaVuSans-30"/>
       <use x="63.623047" xlink:href="#DejaVuSans-2e"/>
       <use x="95.410156" xlink:href="#DejaVuSans-31"/>
       <use x="159.033203" xlink:href="#DejaVuSans-35"/>
       <use x="222.65625" xlink:href="#DejaVuSans-30"/>
      </g>
     </g>
    </g>
    <g id="ytick_8">
     <g id="line2d_17">
      <g>
       <use style="stroke:#000000;stroke-width:0.8;" x="68.925" xlink:href="#mc845956f69" y="41.803738"/>
      </g>
     </g>
     <g id="text_16">
      <!-- 0.175 -->
      <g transform="translate(33.296875 45.602957)scale(0.1 -0.1)">
       <use xlink:href="#DejaVuSans-30"/>
       <use x="63.623047" xlink:href="#DejaVuSans-2e"/>
       <use x="95.410156" xlink:href="#DejaVuSans-31"/>
       <use x="159.033203" xlink:href="#DejaVuSans-37"/>
       <use x="222.65625" xlink:href="#DejaVuSans-35"/>
      </g>
     </g>
    </g>
    <g id="text_17">
     <!-- Normalized Intensity -->
     <g transform="translate(27.217187 170.607031)rotate(-90)scale(0.1 -0.1)">
      <defs>
       <path d="M 628 4666 
L 1478 4666 
L 3547 763 
L 3547 4666 
L 4159 4666 
L 4159 0 
L 3309 0 
L 1241 3903 
L 1241 0 
L 628 0 
L 628 4666 
z
" id="DejaVuSans-4e" transform="scale(0.015625)"/>
       <path d="M 1959 3097 
Q 1497 3097 1228 2736 
Q 959 2375 959 1747 
Q 959 1119 1226 758 
Q 1494 397 1959 397 
Q 2419 397 2687 759 
Q 2956 1122 2956 1747 
Q 2956 2369 2687 2733 
Q 2419 3097 1959 3097 
z
M 1959 3584 
Q 2709 3584 3137 3096 
Q 3566 2609 3566 1747 
Q 3566 888 3137 398 
Q 2709 -91 1959 -91 
Q 1206 -91 779 398 
Q 353 888 353 1747 
Q 353 2609 779 3096 
Q 1206 3584 1959 3584 
z
" id="DejaVuSans-6f" transform="scale(0.015625)"/>
       <path d="M 2631 2963 
Q 2534 3019 2420 3045 
Q 2306 3072 2169 3072 
Q 1681 3072 1420 2755 
Q 1159 2438 1159 1844 
L 1159 0 
L 581 0 
L 581 3500 
L 1159 3500 
L 1159 2956 
Q 1341 3275 1631 3429 
Q 1922 3584 2338 3584 
Q 2397 3584 2469 3576 
Q 2541 3569 2628 3553 
L 2631 2963 
z
" id="DejaVuSans-72" transform="scale(0.015625)"/>
       <path d="M 2194 1759 
Q 1497 1759 1228 1600 
Q 959 1441 959 1056 
Q 959 750 1161 570 
Q 1363 391 1709 391 
Q 2188 391 2477 730 
Q 2766 1069 2766 1631 
L 2766 1759 
L 2194 1759 
z
M 3341 1997 
L 3341 0 
L 2766 0 
L 2766 531 
Q 2569 213 2275 61 
Q 1981 -91 1556 -91 
Q 1019 -91 701 211 
Q 384 513 384 1019 
Q 384 1609 779 1909 
Q 1175 2209 1959 2209 
L 2766 2209 
L 2766 2266 
Q 2766 2663 2505 2880 
Q 2244 3097 1772 3097 
Q 1472 3097 1187 3025 
Q 903 2953 641 2809 
L 641 3341 
Q 956 3463 1253 3523 
Q 1550 3584 1831 3584 
Q 2591 3584 2966 3190 
Q 3341 2797 3341 1997 
z
" id="DejaVuSans-61" transform="scale(0.015625)"/>
       <path d="M 603 4863 
L 1178 4863 
L 1178 0 
L 603 0 
L 603 4863 
z
" id="DejaVuSans-6c" transform="scale(0.015625)"/>
       <path d="M 603 3500 
L 1178 3500 
L 1178 0 
L 603 0 
L 603 3500 
z
M 603 4863 
L 1178 4863 
L 1178 4134 
L 603 4134 
L 603 4863 
z
" id="DejaVuSans-69" transform="scale(0.015625)"/>
       <path d="M 3597 1894 
L 3597 1613 
L 953 1613 
Q 991 1019 1311 708 
Q 1631 397 2203 397 
Q 2534 397 2845 478 
Q 3156 559 3463 722 
L 3463 178 
Q 3153 47 2828 -22 
Q 2503 -91 2169 -91 
Q 1331 -91 842 396 
Q 353 884 353 1716 
Q 353 2575 817 3079 
Q 1281 3584 2069 3584 
Q 2775 3584 3186 3129 
Q 3597 2675 3597 1894 
z
M 3022 2063 
Q 3016 2534 2758 2815 
Q 2500 3097 2075 3097 
Q 1594 3097 1305 2825 
Q 1016 2553 972 2059 
L 3022 2063 
z
" id="DejaVuSans-65" transform="scale(0.015625)"/>
       <path d="M 2906 2969 
L 2906 4863 
L 3481 4863 
L 3481 0 
L 2906 0 
L 2906 525 
Q 2725 213 2448 61 
Q 2172 -91 1784 -91 
Q 1150 -91 751 415 
Q 353 922 353 1747 
Q 353 2572 751 3078 
Q 1150 3584 1784 3584 
Q 2172 3584 2448 3432 
Q 2725 3281 2906 2969 
z
M 947 1747 
Q 947 1113 1208 752 
Q 1469 391 1925 391 
Q 2381 391 2643 752 
Q 2906 1113 2906 1747 
Q 2906 2381 2643 2742 
Q 2381 3103 1925 3103 
Q 1469 3103 1208 2742 
Q 947 2381 947 1747 
z
" id="DejaVuSans-64" transform="scale(0.015625)"/>
       <path id="DejaVuSans-20" transform="scale(0.015625)"/>
       <path d="M 628 4666 
L 1259 4666 
L 1259 0 
L 628 0 
L 628 4666 
z
" id="DejaVuSans-49" transform="scale(0.015625)"/>
       <path d="M 3513 2113 
L 3513 0 
L 2938 0 
L 2938 2094 
Q 2938 2591 2744 2837 
Q 2550 3084 2163 3084 
Q 1697 3084 1428 2787 
Q 1159 2491 1159 1978 
L 1159 0 
L 581 0 
L 581 3500 
L 1159 3500 
L 1159 2956 
Q 1366 3272 1645 3428 
Q 1925 3584 2291 3584 
Q 2894 3584 3203 3211 
Q 3513 2838 3513 2113 
z
" id="DejaVuSans-6e" transform="scale(0.015625)"/>
       <path d="M 1172 4494 
L 1172 3500 
L 2356 3500 
L 2356 3053 
L 1172 3053 
L 1172 1153 
Q 1172 725 1289 603 
Q 1406 481 1766 481 
L 2356 481 
L 2356 0 
L 1766 0 
Q 1100 0 847 248 
Q 594 497 594 1153 
L 594 3053 
L 172 3053 
L 172 3500 
L 594 3500 
L 594 4494 
L 1172 4494 
z
" id="DejaVuSans-74" transform="scale(0.015625)"/>
       <path d="M 2834 3397 
L 2834 2853 
Q 2591 2978 2328 3040 
Q 2066 3103 1784 3103 
Q 1356 3103 1142 2972 
Q 928 2841 928 2578 
Q 928 2378 1081 2264 
Q 1234 2150 1697 2047 
L 1894 2003 
Q 2506 1872 2764 1633 
Q 3022 1394 3022 966 
Q 3022 478 2636 193 
Q 2250 -91 1575 -91 
Q 1294 -91 989 -36 
Q 684 19 347 128 
L 347 722 
Q 666 556 975 473 
Q 1284 391 1588 391 
Q 1994 391 2212 530 
Q 2431 669 2431 922 
Q 2431 1156 2273 1281 
Q 2116 1406 1581 1522 
L 1381 1569 
Q 847 1681 609 1914 
Q 372 2147 372 2553 
Q 372 3047 722 3315 
Q 1072 3584 1716 3584 
Q 2034 3584 2315 3537 
Q 2597 3491 2834 3397 
z
" id="DejaVuSans-73" transform="scale(0.015625)"/>
       <path d="M 2059 -325 
Q 1816 -950 1584 -1140 
Q 1353 -1331 966 -1331 
L 506 -1331 
L 506 -850 
L 844 -850 
Q 1081 -850 1212 -737 
Q 1344 -625 1503 -206 
L 1606 56 
L 191 3500 
L 800 3500 
L 1894 763 
L 2988 3500 
L 3597 3500 
L 2059 -325 
z
" id="DejaVuSans-79" transform="scale(0.015625)"/>
      </defs>
      <use xlink:href="#DejaVuSans-4e"/>
      <use x="74.804688" xlink:href="#DejaVuSans-6f"/>
      <use x="135.986328" xlink:href="#DejaVuSans-72"/>
      <use x="175.349609" xlink:href="#DejaVuSans-6d"/>
      <use x="272.761719" xlink:href="#DejaVuSans-61"/>
      <use x="334.041016" xlink:href="#DejaVuSans-6c"/>
      <use x="361.824219" xlink:href="#DejaVuSans-69"/>
      <use x="389.607422" xlink:href="#DejaVuSans-7a"/>
      <use x="442.097656" xlink:href="#DejaVuSans-65"/>
      <use x="503.621094" xlink:href="#DejaVuSans-64"/>
      <use x="567.097656" xlink:href="#DejaVuSans-20"/>
      <use x="598.884766" xlink:href="#DejaVuSans-49"/>
      <use x="628.376953" xlink:href="#DejaVuSans-6e"/>
      <use x="691.755859" xlink:href="#DejaVuSans-74"/>
      <use x="730.964844" xlink:href="#DejaVuSans-65"/>
      <use x="792.488281" xlink:href="#DejaVuSans-6e"/>
      <use x="855.867188" xlink:href="#DejaVuSans-73"/>
      <use x="907.966797" xlink:href="#DejaVuSans-69"/>
      <use x="935.75" xlink:href="#DejaVuSans-74"/>
      <use x="974.958984" xlink:href="#DejaVuSans-79"/>
     </g>
    </g>
   </g>
   <g id="line2d_18">
    <path clip-path="url(#p50bcc46063)" d="M 98.658096 202.433817 
L 108.60238 200.542196 
L 118.546663 192.170426 
L 128.505427 169.67056 
L 138.46419 129.300591 
L 148.437434 80.07321 
L 158.410677 42.756554 
L 168.383921 35.611477 
L 178.357164 60.29841 
L 188.330408 102.291933 
L 198.303652 143.44644 
L 208.276895 173.127388 
L 218.250139 190.081084 
L 228.223382 198.030901 
L 238.196626 201.162982 
L 248.169869 202.218757 
L 258.143113 202.528095 
" style="fill:none;stroke:#1f77b4;stroke-linecap:square;stroke-opacity:0.5;stroke-width:1.5;"/>
   </g>
   <g id="line2d_19">
    <path clip-path="url(#p50bcc46063)" d="M 98.658096 202.438378 
L 108.60238 200.583136 
L 118.546663 192.338969 
L 128.505427 170.087876 
L 138.46419 129.979321 
L 148.437434 80.797337 
L 158.410677 43.177716 
L 168.383921 35.519925 
L 178.357164 59.783607 
L 188.330408 101.635089 
L 198.303652 142.895568 
L 208.276895 172.777122 
L 218.250139 189.902718 
L 228.223382 197.955871 
L 238.196626 201.136321 
L 248.169869 202.210605 
L 258.143113 202.525914 
" style="fill:none;stroke:#ff7f0e;stroke-linecap:square;stroke-opacity:0.5;stroke-width:1.5;"/>
   </g>
   <g id="line2d_20">
    <path clip-path="url(#p50bcc46063)" d="M 98.658096 202.434496 
L 108.60238 200.548281 
L 118.546663 192.195435 
L 128.505427 169.732371 
L 138.46419 129.400916 
L 148.437434 80.179964 
L 158.410677 42.818305 
L 168.383921 35.597503 
L 178.357164 60.222182 
L 188.330408 102.195025 
L 198.303652 143.365334 
L 208.276895 173.075897 
L 218.250139 190.054896 
L 228.223382 198.019897 
L 238.196626 201.159075 
L 248.169869 202.217563 
L 258.143113 202.527776 
" style="fill:none;stroke:#2ca02c;stroke-linecap:square;stroke-opacity:0.5;stroke-width:1.5;"/>
   </g>
   <g id="line2d_21">
    <path clip-path="url(#p50bcc46063)" d="M 98.658096 202.425611 
L 108.60238 200.468935 
L 118.546663 191.870517 
L 128.505427 168.932362 
L 138.46419 128.107867 
L 148.437434 78.81149 
L 158.410677 42.035656 
L 168.383921 35.789201 
L 178.357164 61.208114 
L 188.330408 103.439239 
L 198.303652 144.402306 
L 208.276895 173.732148 
L 218.250139 190.387792 
L 228.223382 198.159478 
L 238.196626 201.208537 
L 248.169869 202.232654 
L 258.143113 202.531804 
" style="fill:none;stroke:#d62728;stroke-linecap:square;stroke-opacity:0.5;stroke-width:1.5;"/>
   </g>
   <g id="line2d_22">
    <path clip-path="url(#p50bcc46063)" d="M 98.658096 202.434944 
L 108.60238 200.552295 
L 118.546663 192.211938 
L 128.505427 169.77318 
L 138.46419 129.467192 
L 148.437434 80.250541 
L 158.410677 42.859194 
L 168.383921 35.588355 
L 178.357164 60.171849 
L 188.330408 102.130971 
L 198.303652 143.311693 
L 208.276895 173.041828 
L 218.250139 190.037563 
L 228.223382 198.012611 
L 238.196626 201.156488 
L 248.169869 202.216773 
L 258.143113 202.527564 
" style="fill:none;stroke:#9467bd;stroke-linecap:square;stroke-opacity:0.5;stroke-width:1.5;"/>
   </g>
   <g id="line2d_23">
    <path clip-path="url(#p50bcc46063)" d="M 98.658096 202.458849 
L 108.60238 200.768974 
L 118.546663 193.112985 
L 128.505427 172.028069 
L 138.46419 133.178459 
L 148.437434 84.271128 
L 158.410677 45.272068 
L 168.383921 35.185495 
L 178.357164 57.387433 
L 188.330408 98.499998 
L 198.303652 140.228921 
L 208.276895 171.06352 
L 218.250139 189.022501 
L 228.223382 197.582895 
L 238.196626 201.002976 
L 248.169869 202.169619 
L 258.143113 202.514903 
" style="fill:none;stroke:#8c564b;stroke-linecap:square;stroke-opacity:0.5;stroke-width:1.5;"/>
   </g>
   <g id="line2d_24">
    <path clip-path="url(#p50bcc46063)" d="M 98.658096 202.434033 
L 108.60238 200.544131 
L 118.546663 192.178379 
L 128.505427 169.690213 
L 138.46419 129.332482 
L 148.437434 80.107134 
L 158.410677 42.776164 
L 168.383921 35.607018 
L 178.357164 60.274173 
L 188.330408 102.261135 
L 198.303652 143.42067 
L 208.276895 173.111031 
L 218.250139 190.072766 
L 228.223382 198.027406 
L 238.196626 201.161741 
L 248.169869 202.218378 
L 258.143113 202.527993 
" style="fill:none;stroke:#e377c2;stroke-linecap:square;stroke-opacity:0.5;stroke-width:1.5;"/>
   </g>
   <g id="line2d_25">
    <path clip-path="url(#p50bcc46063)" d="M 98.658096 202.45986 
L 108.60238 200.778241 
L 118.546663 193.151988 
L 128.505427 172.126901 
L 138.46419 133.343385 
L 148.437434 84.452955 
L 158.410677 45.385017 
L 168.383921 35.172727 
L 178.357164 57.265343 
L 188.330408 98.336611 
L 198.303652 140.088218 
L 208.276895 170.97227 
L 218.250139 188.975277 
L 228.223382 197.562759 
L 238.196626 200.995739 
L 248.169869 202.167385 
L 258.143113 202.5143 
" style="fill:none;stroke:#7f7f7f;stroke-linecap:square;stroke-opacity:0.5;stroke-width:1.5;"/>
   </g>
   <g id="line2d_26">
    <path clip-path="url(#p50bcc46063)" d="M 98.658096 202.426808 
L 108.60238 200.479592 
L 118.546663 191.914012 
L 128.505427 169.039076 
L 138.46419 128.27967 
L 148.437434 78.992387 
L 158.410677 42.137999 
L 168.383921 35.762293 
L 178.357164 61.076691 
L 188.330408 103.274523 
L 198.303652 144.265566 
L 208.276895 173.645869 
L 218.250139 190.344132 
L 228.223382 198.14121 
L 238.196626 201.202075 
L 248.169869 202.230685 
L 258.143113 202.53128 
" style="fill:none;stroke:#bcbd22;stroke-linecap:square;stroke-opacity:0.5;stroke-width:1.5;"/>
   </g>
   <g id="line2d_27">
    <path clip-path="url(#p50bcc46063)" d="M 98.658096 202.427901 
L 108.60238 200.489326 
L 118.546663 191.953776 
L 128.505427 169.13674 
L 138.46419 128.437083 
L 148.437434 79.158382 
L 158.410677 42.23221 
L 168.383921 35.738024 
L 178.357164 60.956388 
L 188.330408 103.123442 
L 198.303652 144.140001 
L 208.276895 173.566573 
L 218.250139 190.303977 
L 228.223382 198.124397 
L 238.196626 201.196125 
L 248.169869 202.228871 
L 258.143113 202.530796 
" style="fill:none;stroke:#17becf;stroke-linecap:square;stroke-opacity:0.5;stroke-width:1.5;"/>
   </g>
   <g id="line2d_28">
    <path clip-path="url(#p50bcc46063)" d="M 98.658096 202.442735 
L 108.60238 200.622399 
L 118.546663 192.501257 
L 128.505427 170.491414 
L 138.46419 130.638751 
L 148.437434 81.505163 
L 158.410677 43.594581 
L 168.383921 35.437755 
L 178.357164 59.285516 
L 188.330408 100.994155 
L 198.303652 142.355459 
L 208.276895 172.432464 
L 218.250139 189.726692 
L 228.223382 197.881641 
L 238.196626 201.109891 
L 248.169869 202.202509 
L 258.143113 202.523745 
" style="fill:none;stroke:#1f77b4;stroke-linecap:square;stroke-opacity:0.5;stroke-width:1.5;"/>
   </g>
   <g id="line2d_29">
    <path clip-path="url(#p50bcc46063)" d="M 98.658096 202.433542 
L 108.60238 200.539732 
L 118.546663 192.160303 
L 128.505427 169.645554 
L 138.46419 129.260023 
L 148.437434 80.03007 
L 158.410677 42.731633 
L 168.383921 35.617171 
L 178.357164 60.329247 
L 188.330408 102.331102 
L 198.303652 143.479206 
L 208.276895 173.148181 
L 218.250139 190.091655 
L 228.223382 198.035342 
L 238.196626 201.164558 
L 248.169869 202.219239 
L 258.143113 202.528223 
" style="fill:none;stroke:#ff7f0e;stroke-linecap:square;stroke-opacity:0.5;stroke-width:1.5;"/>
   </g>
   <g id="line2d_30">
    <path clip-path="url(#p50bcc46063)" d="M 98.658096 202.434138 
L 108.60238 200.545065 
L 118.546663 192.182215 
L 128.505427 169.69969 
L 138.46419 129.347859 
L 148.437434 80.12349 
L 158.410677 42.785616 
L 168.383921 35.604863 
L 178.357164 60.262483 
L 188.330408 102.246284 
L 198.303652 143.408246 
L 208.276895 173.103146 
L 218.250139 190.068757 
L 228.223382 198.025722 
L 238.196626 201.161143 
L 248.169869 202.218195 
L 258.143113 202.527945 
" style="fill:none;stroke:#2ca02c;stroke-linecap:square;stroke-opacity:0.5;stroke-width:1.5;"/>
   </g>
   <g id="line2d_31">
    <path clip-path="url(#p50bcc46063)" d="M 98.658096 202.457541 
L 108.60238 200.756987 
L 118.546663 193.062601 
L 128.505427 171.900553 
L 138.46419 132.965951 
L 148.437434 84.037242 
L 158.410677 45.127262 
L 168.383921 35.202607 
L 178.357164 57.544964 
L 188.330408 98.710268 
L 198.303652 140.409742 
L 208.276895 171.180665 
L 218.250139 189.083074 
L 228.223382 197.608704 
L 238.196626 201.012246 
L 248.169869 202.172479 
L 258.143113 202.515674 
" style="fill:none;stroke:#d62728;stroke-linecap:square;stroke-opacity:0.5;stroke-width:1.5;"/>
   </g>
   <g id="line2d_32">
    <path clip-path="url(#p50bcc46063)" d="M 98.658096 202.434992 
L 108.60238 200.552723 
L 118.546663 192.2137 
L 128.505427 169.777538 
L 138.46419 129.474272 
L 148.437434 80.258083 
L 158.410677 42.863566 
L 168.383921 35.587382 
L 178.357164 60.166474 
L 188.330408 102.124127 
L 198.303652 143.30596 
L 208.276895 173.038186 
L 218.250139 190.03571 
L 228.223382 198.011832 
L 238.196626 201.156211 
L 248.169869 202.216688 
L 258.143113 202.527542 
" style="fill:none;stroke:#9467bd;stroke-linecap:square;stroke-opacity:0.5;stroke-width:1.5;"/>
   </g>
   <g id="line2d_33">
    <path clip-path="url(#p50bcc46063)" d="M 98.658096 202.407398 
L 108.60238 200.308093 
L 118.546663 191.219347 
L 128.505427 167.348214 
L 138.46419 125.58154 
L 148.437434 76.183946 
L 158.410677 40.588025 
L 168.383921 36.234394 
L 178.357164 63.154869 
L 188.330408 105.840366 
L 198.303652 146.377214 
L 208.276895 174.969559 
L 218.250139 191.010373 
L 228.223382 198.418733 
L 238.196626 201.299877 
L 248.169869 202.260385 
L 258.143113 202.539178 
" style="fill:none;stroke:#8c564b;stroke-linecap:square;stroke-opacity:0.5;stroke-width:1.5;"/>
   </g>
   <g id="line2d_34">
    <path clip-path="url(#p50bcc46063)" d="M 98.658096 202.419293 
L 108.60238 200.412874 
L 118.546663 191.642441 
L 128.505427 168.374647 
L 138.46419 127.213338 
L 148.437434 77.874174 
L 158.410677 41.510863 
L 168.383921 35.936307 
L 178.357164 61.894431 
L 188.330408 104.293919 
L 198.303652 145.109201 
L 208.276895 174.176933 
L 218.250139 190.612351 
L 228.223382 198.25326 
L 238.196626 201.241659 
L 248.169869 202.24273 
L 258.143113 202.534488 
" style="fill:none;stroke:#e377c2;stroke-linecap:square;stroke-opacity:0.5;stroke-width:1.5;"/>
   </g>
   <g id="line2d_35">
    <path clip-path="url(#p50bcc46063)" d="M 98.658096 202.459283 
L 108.60238 200.772948 
L 118.546663 193.129706 
L 128.505427 172.070427 
L 138.46419 133.24912 
L 148.437434 84.348997 
L 158.410677 45.3204 
L 168.383921 35.17997 
L 178.357164 57.335107 
L 188.330408 98.430018 
L 198.303652 140.168678 
L 208.276895 171.024461 
L 218.250139 189.002291 
L 228.223382 197.574279 
L 238.196626 200.99988 
L 248.169869 202.168663 
L 258.143113 202.514645 
" style="fill:none;stroke:#7f7f7f;stroke-linecap:square;stroke-opacity:0.5;stroke-width:1.5;"/>
   </g>
   <g id="line2d_36">
    <path clip-path="url(#p50bcc46063)" d="M 98.658096 202.448155 
L 108.60238 200.671448 
L 118.546663 192.704915 
L 128.505427 171.000237 
L 138.46419 131.474644 
L 148.437434 82.408508 
L 158.410677 44.133985 
L 168.383921 35.34335 
L 178.357164 58.65717 
L 188.330408 100.177771 
L 198.303652 141.663769 
L 208.276895 171.989287 
L 218.250139 189.499597 
L 228.223382 197.785611 
L 238.196626 201.075617 
L 248.169869 202.191989 
L 258.143113 202.520922 
" style="fill:none;stroke:#bcbd22;stroke-linecap:square;stroke-opacity:0.5;stroke-width:1.5;"/>
   </g>
   <g id="line2d_37">
    <path clip-path="url(#p50bcc46063)" d="M 98.658096 202.421736 
L 108.60238 200.434519 
L 118.546663 191.730358 
L 128.505427 168.589258 
L 138.46419 127.556892 
L 148.437434 78.233257 
L 158.410677 41.710819 
L 168.383921 35.878425 
L 178.357164 61.630443 
L 188.330408 103.966253 
L 198.303652 144.83871 
L 208.276895 174.006984 
L 218.250139 190.526651 
L 228.223382 198.217505 
L 238.196626 201.229042 
L 248.169869 202.238894 
L 258.143113 202.533467 
" style="fill:none;stroke:#17becf;stroke-linecap:square;stroke-opacity:0.5;stroke-width:1.5;"/>
   </g>
   <g id="line2d_38">
    <path clip-path="url(#p50bcc46063)" d="M 98.658096 202.416405 
L 108.60238 200.38734 
L 118.546663 191.538961 
L 128.505427 168.122631 
L 138.46419 126.810958 
L 148.437434 77.455037 
L 158.410677 41.279183 
L 168.383921 36.00627 
L 178.357164 62.204239 
L 188.330408 104.676765 
L 198.303652 145.424434 
L 208.276895 174.374609 
L 218.250139 190.711874 
L 228.223382 198.294726 
L 238.196626 201.256275 
L 248.169869 202.247169 
L 258.143113 202.535669 
" style="fill:none;stroke:#1f77b4;stroke-linecap:square;stroke-opacity:0.5;stroke-width:1.5;"/>
   </g>
   <g id="patch_3">
    <path d="M 68.925 211 
L 68.925 26.8 
" style="fill:none;stroke:#000000;stroke-linecap:square;stroke-linejoin:miter;stroke-width:0.8;"/>
   </g>
   <g id="patch_4">
    <path d="M 347.342401 211 
L 347.342401 26.8 
" style="fill:none;stroke:#000000;stroke-linecap:square;stroke-linejoin:miter;stroke-width:0.8;"/>
   </g>
   <g id="patch_5">
    <path d="M 68.925 211 
L 347.342401 211 
" style="fill:none;stroke:#000000;stroke-linecap:square;stroke-linejoin:miter;stroke-width:0.8;"/>
   </g>
   <g id="patch_6">
    <path d="M 68.925 26.8 
L 347.342401 26.8 
" style="fill:none;stroke:#000000;stroke-linecap:square;stroke-linejoin:miter;stroke-width:0.8;"/>
   </g>
   <g id="text_18">
    <!-- GluFib_HI: 0001-0014 EGVNDNEEGFFSAR z=2 -->
    <g transform="translate(70.434638 20.8)scale(0.12 -0.12)">
     <defs>
      <path d="M 3809 666 
L 3809 1919 
L 2778 1919 
L 2778 2438 
L 4434 2438 
L 4434 434 
Q 4069 175 3628 42 
Q 3188 -91 2688 -91 
Q 1594 -91 976 548 
Q 359 1188 359 2328 
Q 359 3472 976 4111 
Q 1594 4750 2688 4750 
Q 3144 4750 3555 4637 
Q 3966 4525 4313 4306 
L 4313 3634 
Q 3963 3931 3569 4081 
Q 3175 4231 2741 4231 
Q 1884 4231 1454 3753 
Q 1025 3275 1025 2328 
Q 1025 1384 1454 906 
Q 1884 428 2741 428 
Q 3075 428 3337 486 
Q 3600 544 3809 666 
z
" id="DejaVuSans-47" transform="scale(0.015625)"/>
      <path d="M 544 1381 
L 544 3500 
L 1119 3500 
L 1119 1403 
Q 1119 906 1312 657 
Q 1506 409 1894 409 
Q 2359 409 2629 706 
Q 2900 1003 2900 1516 
L 2900 3500 
L 3475 3500 
L 3475 0 
L 2900 0 
L 2900 538 
Q 2691 219 2414 64 
Q 2138 -91 1772 -91 
Q 1169 -91 856 284 
Q 544 659 544 1381 
z
M 1991 3584 
L 1991 3584 
z
" id="DejaVuSans-75" transform="scale(0.015625)"/>
      <path d="M 628 4666 
L 3309 4666 
L 3309 4134 
L 1259 4134 
L 1259 2759 
L 3109 2759 
L 3109 2228 
L 1259 2228 
L 1259 0 
L 628 0 
L 628 4666 
z
" id="DejaVuSans-46" transform="scale(0.015625)"/>
      <path d="M 3116 1747 
Q 3116 2381 2855 2742 
Q 2594 3103 2138 3103 
Q 1681 3103 1420 2742 
Q 1159 2381 1159 1747 
Q 1159 1113 1420 752 
Q 1681 391 2138 391 
Q 2594 391 2855 752 
Q 3116 1113 3116 1747 
z
M 1159 2969 
Q 1341 3281 1617 3432 
Q 1894 3584 2278 3584 
Q 2916 3584 3314 3078 
Q 3713 2572 3713 1747 
Q 3713 922 3314 415 
Q 2916 -91 2278 -91 
Q 1894 -91 1617 61 
Q 1341 213 1159 525 
L 1159 0 
L 581 0 
L 581 4863 
L 1159 4863 
L 1159 2969 
z
" id="DejaVuSans-62" transform="scale(0.015625)"/>
      <path d="M 3263 -1063 
L 3263 -1509 
L -63 -1509 
L -63 -1063 
L 3263 -1063 
z
" id="DejaVuSans-5f" transform="scale(0.015625)"/>
      <path d="M 628 4666 
L 1259 4666 
L 1259 2753 
L 3553 2753 
L 3553 4666 
L 4184 4666 
L 4184 0 
L 3553 0 
L 3553 2222 
L 1259 2222 
L 1259 0 
L 628 0 
L 628 4666 
z
" id="DejaVuSans-48" transform="scale(0.015625)"/>
      <path d="M 750 794 
L 1409 794 
L 1409 0 
L 750 0 
L 750 794 
z
M 750 3309 
L 1409 3309 
L 1409 2516 
L 750 2516 
L 750 3309 
z
" id="DejaVuSans-3a" transform="scale(0.015625)"/>
      <path d="M 313 2009 
L 1997 2009 
L 1997 1497 
L 313 1497 
L 313 2009 
z
" id="DejaVuSans-2d" transform="scale(0.015625)"/>
      <path d="M 628 4666 
L 3578 4666 
L 3578 4134 
L 1259 4134 
L 1259 2753 
L 3481 2753 
L 3481 2222 
L 1259 2222 
L 1259 531 
L 3634 531 
L 3634 0 
L 628 0 
L 628 4666 
z
" id="DejaVuSans-45" transform="scale(0.015625)"/>
      <path d="M 1831 0 
L 50 4666 
L 709 4666 
L 2188 738 
L 3669 4666 
L 4325 4666 
L 2547 0 
L 1831 0 
z
" id="DejaVuSans-56" transform="scale(0.015625)"/>
      <path d="M 1259 4147 
L 1259 519 
L 2022 519 
Q 2988 519 3436 956 
Q 3884 1394 3884 2338 
Q 3884 3275 3436 3711 
Q 2988 4147 2022 4147 
L 1259 4147 
z
M 628 4666 
L 1925 4666 
Q 3281 4666 3915 4102 
Q 4550 3538 4550 2338 
Q 4550 1131 3912 565 
Q 3275 0 1925 0 
L 628 0 
L 628 4666 
z
" id="DejaVuSans-44" transform="scale(0.015625)"/>
      <path d="M 3425 4513 
L 3425 3897 
Q 3066 4069 2747 4153 
Q 2428 4238 2131 4238 
Q 1616 4238 1336 4038 
Q 1056 3838 1056 3469 
Q 1056 3159 1242 3001 
Q 1428 2844 1947 2747 
L 2328 2669 
Q 3034 2534 3370 2195 
Q 3706 1856 3706 1288 
Q 3706 609 3251 259 
Q 2797 -91 1919 -91 
Q 1588 -91 1214 -16 
Q 841 59 441 206 
L 441 856 
Q 825 641 1194 531 
Q 1563 422 1919 422 
Q 2459 422 2753 634 
Q 3047 847 3047 1241 
Q 3047 1584 2836 1778 
Q 2625 1972 2144 2069 
L 1759 2144 
Q 1053 2284 737 2584 
Q 422 2884 422 3419 
Q 422 4038 858 4394 
Q 1294 4750 2059 4750 
Q 2388 4750 2728 4690 
Q 3069 4631 3425 4513 
z
" id="DejaVuSans-53" transform="scale(0.015625)"/>
      <path d="M 2188 4044 
L 1331 1722 
L 3047 1722 
L 2188 4044 
z
M 1831 4666 
L 2547 4666 
L 4325 0 
L 3669 0 
L 3244 1197 
L 1141 1197 
L 716 0 
L 50 0 
L 1831 4666 
z
" id="DejaVuSans-41" transform="scale(0.015625)"/>
      <path d="M 2841 2188 
Q 3044 2119 3236 1894 
Q 3428 1669 3622 1275 
L 4263 0 
L 3584 0 
L 2988 1197 
Q 2756 1666 2539 1819 
Q 2322 1972 1947 1972 
L 1259 1972 
L 1259 0 
L 628 0 
L 628 4666 
L 2053 4666 
Q 2853 4666 3247 4331 
Q 3641 3997 3641 3322 
Q 3641 2881 3436 2590 
Q 3231 2300 2841 2188 
z
M 1259 4147 
L 1259 2491 
L 2053 2491 
Q 2509 2491 2742 2702 
Q 2975 2913 2975 3322 
Q 2975 3731 2742 3939 
Q 2509 4147 2053 4147 
L 1259 4147 
z
" id="DejaVuSans-52" transform="scale(0.015625)"/>
      <path d="M 678 2906 
L 4684 2906 
L 4684 2381 
L 678 2381 
L 678 2906 
z
M 678 1631 
L 4684 1631 
L 4684 1100 
L 678 1100 
L 678 1631 
z
" id="DejaVuSans-3d" transform="scale(0.015625)"/>
     </defs>
     <use xlink:href="#DejaVuSans-47"/>
     <use x="77.490234" xlink:href="#DejaVuSans-6c"/>
     <use x="105.273438" xlink:href="#DejaVuSans-75"/>
     <use x="168.652344" xlink:href="#DejaVuSans-46"/>
     <use x="218.921875" xlink:href="#DejaVuSans-69"/>
     <use x="246.705078" xlink:href="#DejaVuSans-62"/>
     <use x="310.181641" xlink:href="#DejaVuSans-5f"/>
     <use x="360.181641" xlink:href="#DejaVuSans-48"/>
     <use x="435.376953" xlink:href="#DejaVuSans-49"/>
     <use x="464.869141" xlink:href="#DejaVuSans-3a"/>
     <use x="498.560547" xlink:href="#DejaVuSans-20"/>
     <use x="530.347656" xlink:href="#DejaVuSans-30"/>
     <use x="593.970703" xlink:href="#DejaVuSans-30"/>
     <use x="657.59375" xlink:href="#DejaVuSans-30"/>
     <use x="721.216797" xlink:href="#DejaVuSans-31"/>
     <use x="784.839844" xlink:href="#DejaVuSans-2d"/>
     <use x="820.923828" xlink:href="#DejaVuSans-30"/>
     <use x="884.546875" xlink:href="#DejaVuSans-30"/>
     <use x="948.169922" xlink:href="#DejaVuSans-31"/>
     <use x="1011.792969" xlink:href="#DejaVuSans-34"/>
     <use x="1075.416016" xlink:href="#DejaVuSans-20"/>
     <use x="1107.203125" xlink:href="#DejaVuSans-45"/>
     <use x="1170.386719" xlink:href="#DejaVuSans-47"/>
     <use x="1247.876953" xlink:href="#DejaVuSans-56"/>
     <use x="1316.285156" xlink:href="#DejaVuSans-4e"/>
     <use x="1391.089844" xlink:href="#DejaVuSans-44"/>
     <use x="1468.091797" xlink:href="#DejaVuSans-4e"/>
     <use x="1542.896484" xlink:href="#DejaVuSans-45"/>
     <use x="1606.080078" xlink:href="#DejaVuSans-45"/>
     <use x="1669.263672" xlink:href="#DejaVuSans-47"/>
     <use x="1746.753906" xlink:href="#DejaVuSans-46"/>
     <use x="1804.273438" xlink:href="#DejaVuSans-46"/>
     <use x="1860.042969" xlink:href="#DejaVuSans-53"/>
     <use x="1925.394531" xlink:href="#DejaVuSans-41"/>
     <use x="1993.802734" xlink:href="#DejaVuSans-52"/>
     <use x="2063.285156" xlink:href="#DejaVuSans-20"/>
     <use x="2095.072266" xlink:href="#DejaVuSans-7a"/>
     <use x="2147.5625" xlink:href="#DejaVuSans-3d"/>
     <use x="2231.351562" xlink:href="#DejaVuSans-32"/>
    </g>
   </g>
   <g id="line2d_39">
    <path clip-path="url(#p50bcc46063)" d="M 98.658096 202.438378 
L 108.60238 200.583136 
L 118.546663 192.338969 
L 128.505427 170.087876 
L 138.46419 129.979321 
L 148.437434 80.797337 
L 158.410677 43.177716 
L 168.383921 35.519925 
L 178.357164 59.783607 
L 188.330408 101.635089 
L 198.303652 142.895568 
L 208.276895 172.777122 
L 218.250139 189.902718 
L 228.223382 197.955871 
L 238.196626 201.136321 
L 248.169869 202.210605 
L 258.143113 202.525914 
" style="fill:none;stroke:#008000;stroke-dasharray:11.1,4.8;stroke-dashoffset:0;stroke-opacity:0.2;stroke-width:3;"/>
   </g>
   <g id="line2d_40">
    <path clip-path="url(#p50bcc46063)" d="M 98.658096 202.434496 
L 108.60238 200.548281 
L 118.546663 192.195435 
L 128.505427 169.732371 
L 138.46419 129.400916 
L 148.437434 80.179964 
L 158.410677 42.818305 
L 168.383921 35.597503 
L 178.357164 60.222182 
L 188.330408 102.195025 
L 198.303652 143.365334 
L 208.276895 173.075897 
L 218.250139 190.054896 
L 228.223382 198.019897 
L 238.196626 201.159075 
L 248.169869 202.217563 
L 258.143113 202.527776 
" style="fill:none;stroke:#008000;stroke-dasharray:11.1,4.8;stroke-dashoffset:0;stroke-opacity:0.2;stroke-width:3;"/>
   </g>
   <g id="line2d_41">
    <path clip-path="url(#p50bcc46063)" d="M 98.658096 202.425611 
L 108.60238 200.468935 
L 118.546663 191.870517 
L 128.505427 168.932362 
L 138.46419 128.107867 
L 148.437434 78.81149 
L 158.410677 42.035656 
L 168.383921 35.789201 
L 178.357164 61.208114 
L 188.330408 103.439239 
L 198.303652 144.402306 
L 208.276895 173.732148 
L 218.250139 190.387792 
L 228.223382 198.159478 
L 238.196626 201.208537 
L 248.169869 202.232654 
L 258.143113 202.531804 
" style="fill:none;stroke:#008000;stroke-dasharray:11.1,4.8;stroke-dashoffset:0;stroke-opacity:0.2;stroke-width:3;"/>
   </g>
   <g id="line2d_42">
    <path clip-path="url(#p50bcc46063)" d="M 98.658096 202.434944 
L 108.60238 200.552295 
L 118.546663 192.211938 
L 128.505427 169.77318 
L 138.46419 129.467192 
L 148.437434 80.250541 
L 158.410677 42.859194 
L 168.383921 35.588355 
L 178.357164 60.171849 
L 188.330408 102.130971 
L 198.303652 143.311693 
L 208.276895 173.041828 
L 218.250139 190.037563 
L 228.223382 198.012611 
L 238.196626 201.156488 
L 248.169869 202.216773 
L 258.143113 202.527564 
" style="fill:none;stroke:#008000;stroke-dasharray:11.1,4.8;stroke-dashoffset:0;stroke-opacity:0.2;stroke-width:3;"/>
   </g>
   <g id="line2d_43">
    <path clip-path="url(#p50bcc46063)" d="M 98.658096 202.458849 
L 108.60238 200.768974 
L 118.546663 193.112985 
L 128.505427 172.028069 
L 138.46419 133.178459 
L 148.437434 84.271128 
L 158.410677 45.272068 
L 168.383921 35.185495 
L 178.357164 57.387433 
L 188.330408 98.499998 
L 198.303652 140.228921 
L 208.276895 171.06352 
L 218.250139 189.022501 
L 228.223382 197.582895 
L 238.196626 201.002976 
L 248.169869 202.169619 
L 258.143113 202.514903 
" style="fill:none;stroke:#008000;stroke-dasharray:11.1,4.8;stroke-dashoffset:0;stroke-opacity:0.2;stroke-width:3;"/>
   </g>
   <g id="line2d_44">
    <path clip-path="url(#p50bcc46063)" d="M 98.658096 202.434033 
L 108.60238 200.544131 
L 118.546663 192.178379 
L 128.505427 169.690213 
L 138.46419 129.332482 
L 148.437434 80.107134 
L 158.410677 42.776164 
L 168.383921 35.607018 
L 178.357164 60.274173 
L 188.330408 102.261135 
L 198.303652 143.42067 
L 208.276895 173.111031 
L 218.250139 190.072766 
L 228.223382 198.027406 
L 238.196626 201.161741 
L 248.169869 202.218378 
L 258.143113 202.527993 
" style="fill:none;stroke:#008000;stroke-dasharray:11.1,4.8;stroke-dashoffset:0;stroke-opacity:0.2;stroke-width:3;"/>
   </g>
   <g id="line2d_45">
    <path clip-path="url(#p50bcc46063)" d="M 98.658096 202.45986 
L 108.60238 200.778241 
L 118.546663 193.151988 
L 128.505427 172.126901 
L 138.46419 133.343385 
L 148.437434 84.452955 
L 158.410677 45.385017 
L 168.383921 35.172727 
L 178.357164 57.265343 
L 188.330408 98.336611 
L 198.303652 140.088218 
L 208.276895 170.97227 
L 218.250139 188.975277 
L 228.223382 197.562759 
L 238.196626 200.995739 
L 248.169869 202.167385 
L 258.143113 202.5143 
" style="fill:none;stroke:#008000;stroke-dasharray:11.1,4.8;stroke-dashoffset:0;stroke-opacity:0.2;stroke-width:3;"/>
   </g>
   <g id="line2d_46">
    <path clip-path="url(#p50bcc46063)" d="M 98.658096 202.426808 
L 108.60238 200.479592 
L 118.546663 191.914012 
L 128.505427 169.039076 
L 138.46419 128.27967 
L 148.437434 78.992387 
L 158.410677 42.137999 
L 168.383921 35.762293 
L 178.357164 61.076691 
L 188.330408 103.274523 
L 198.303652 144.265566 
L 208.276895 173.645869 
L 218.250139 190.344132 
L 228.223382 198.14121 
L 238.196626 201.202075 
L 248.169869 202.230685 
L 258.143113 202.53128 
" style="fill:none;stroke:#008000;stroke-dasharray:11.1,4.8;stroke-dashoffset:0;stroke-opacity:0.2;stroke-width:3;"/>
   </g>
   <g id="line2d_47">
    <path clip-path="url(#p50bcc46063)" d="M 98.658096 202.427901 
L 108.60238 200.489326 
L 118.546663 191.953776 
L 128.505427 169.13674 
L 138.46419 128.437083 
L 148.437434 79.158382 
L 158.410677 42.23221 
L 168.383921 35.738024 
L 178.357164 60.956388 
L 188.330408 103.123442 
L 198.303652 144.140001 
L 208.276895 173.566573 
L 218.250139 190.303977 
L 228.223382 198.124397 
L 238.196626 201.196125 
L 248.169869 202.228871 
L 258.143113 202.530796 
" style="fill:none;stroke:#008000;stroke-dasharray:11.1,4.8;stroke-dashoffset:0;stroke-opacity:0.2;stroke-width:3;"/>
   </g>
   <g id="line2d_48">
    <path clip-path="url(#p50bcc46063)" d="M 98.658096 202.442735 
L 108.60238 200.622399 
L 118.546663 192.501257 
L 128.505427 170.491414 
L 138.46419 130.638751 
L 148.437434 81.505163 
L 158.410677 43.594581 
L 168.383921 35.437755 
L 178.357164 59.285516 
L 188.330408 100.994155 
L 198.303652 142.355459 
L 208.276895 172.432464 
L 218.250139 189.726692 
L 228.223382 197.881641 
L 238.196626 201.109891 
L 248.169869 202.202509 
L 258.143113 202.523745 
" style="fill:none;stroke:#008000;stroke-dasharray:11.1,4.8;stroke-dashoffset:0;stroke-opacity:0.2;stroke-width:3;"/>
   </g>
   <g id="line2d_49">
    <path clip-path="url(#p50bcc46063)" d="M 98.658096 202.433542 
L 108.60238 200.539732 
L 118.546663 192.160303 
L 128.505427 169.645554 
L 138.46419 129.260023 
L 148.437434 80.03007 
L 158.410677 42.731633 
L 168.383921 35.617171 
L 178.357164 60.329247 
L 188.330408 102.331102 
L 198.303652 143.479206 
L 208.276895 173.148181 
L 218.250139 190.091655 
L 228.223382 198.035342 
L 238.196626 201.164558 
L 248.169869 202.219239 
L 258.143113 202.528223 
" style="fill:none;stroke:#008000;stroke-dasharray:11.1,4.8;stroke-dashoffset:0;stroke-opacity:0.2;stroke-width:3;"/>
   </g>
   <g id="line2d_50">
    <path clip-path="url(#p50bcc46063)" d="M 98.658096 202.434138 
L 108.60238 200.545065 
L 118.546663 192.182215 
L 128.505427 169.69969 
L 138.46419 129.347859 
L 148.437434 80.12349 
L 158.410677 42.785616 
L 168.383921 35.604863 
L 178.357164 60.262483 
L 188.330408 102.246284 
L 198.303652 143.408246 
L 208.276895 173.103146 
L 218.250139 190.068757 
L 228.223382 198.025722 
L 238.196626 201.161143 
L 248.169869 202.218195 
L 258.143113 202.527945 
" style="fill:none;stroke:#008000;stroke-dasharray:11.1,4.8;stroke-dashoffset:0;stroke-opacity:0.2;stroke-width:3;"/>
   </g>
   <g id="line2d_51">
    <path clip-path="url(#p50bcc46063)" d="M 98.658096 202.457541 
L 108.60238 200.756987 
L 118.546663 193.062601 
L 128.505427 171.900553 
L 138.46419 132.965951 
L 148.437434 84.037242 
L 158.410677 45.127262 
L 168.383921 35.202607 
L 178.357164 57.544964 
L 188.330408 98.710268 
L 198.303652 140.409742 
L 208.276895 171.180665 
L 218.250139 189.083074 
L 228.223382 197.608704 
L 238.196626 201.012246 
L 248.169869 202.172479 
L 258.143113 202.515674 
" style="fill:none;stroke:#008000;stroke-dasharray:11.1,4.8;stroke-dashoffset:0;stroke-opacity:0.2;stroke-width:3;"/>
   </g>
   <g id="line2d_52">
    <path clip-path="url(#p50bcc46063)" d="M 98.658096 202.434992 
L 108.60238 200.552723 
L 118.546663 192.2137 
L 128.505427 169.777538 
L 138.46419 129.474272 
L 148.437434 80.258083 
L 158.410677 42.863566 
L 168.383921 35.587382 
L 178.357164 60.166474 
L 188.330408 102.124127 
L 198.303652 143.30596 
L 208.276895 173.038186 
L 218.250139 190.03571 
L 228.223382 198.011832 
L 238.196626 201.156211 
L 248.169869 202.216688 
L 258.143113 202.527542 
" style="fill:none;stroke:#008000;stroke-dasharray:11.1,4.8;stroke-dashoffset:0;stroke-opacity:0.2;stroke-width:3;"/>
   </g>
   <g id="line2d_53">
    <path clip-path="url(#p50bcc46063)" d="M 98.658096 202.407398 
L 108.60238 200.308093 
L 118.546663 191.219347 
L 128.505427 167.348214 
L 138.46419 125.58154 
L 148.437434 76.183946 
L 158.410677 40.588025 
L 168.383921 36.234394 
L 178.357164 63.154869 
L 188.330408 105.840366 
L 198.303652 146.377214 
L 208.276895 174.969559 
L 218.250139 191.010373 
L 228.223382 198.418733 
L 238.196626 201.299877 
L 248.169869 202.260385 
L 258.143113 202.539178 
" style="fill:none;stroke:#008000;stroke-dasharray:11.1,4.8;stroke-dashoffset:0;stroke-opacity:0.2;stroke-width:3;"/>
   </g>
   <g id="line2d_54">
    <path clip-path="url(#p50bcc46063)" d="M 98.658096 202.419293 
L 108.60238 200.412874 
L 118.546663 191.642441 
L 128.505427 168.374647 
L 138.46419 127.213338 
L 148.437434 77.874174 
L 158.410677 41.510863 
L 168.383921 35.936307 
L 178.357164 61.894431 
L 188.330408 104.293919 
L 198.303652 145.109201 
L 208.276895 174.176933 
L 218.250139 190.612351 
L 228.223382 198.25326 
L 238.196626 201.241659 
L 248.169869 202.24273 
L 258.143113 202.534488 
" style="fill:none;stroke:#008000;stroke-dasharray:11.1,4.8;stroke-dashoffset:0;stroke-opacity:0.2;stroke-width:3;"/>
   </g>
   <g id="line2d_55">
    <path clip-path="url(#p50bcc46063)" d="M 98.658096 202.459283 
L 108.60238 200.772948 
L 118.546663 193.129706 
L 128.505427 172.070427 
L 138.46419 133.24912 
L 148.437434 84.348997 
L 158.410677 45.3204 
L 168.383921 35.17997 
L 178.357164 57.335107 
L 188.330408 98.430018 
L 198.303652 140.168678 
L 208.276895 171.024461 
L 218.250139 189.002291 
L 228.223382 197.574279 
L 238.196626 200.99988 
L 248.169869 202.168663 
L 258.143113 202.514645 
" style="fill:none;stroke:#008000;stroke-dasharray:11.1,4.8;stroke-dashoffset:0;stroke-opacity:0.2;stroke-width:3;"/>
   </g>
   <g id="line2d_56">
    <path clip-path="url(#p50bcc46063)" d="M 98.658096 202.448155 
L 108.60238 200.671448 
L 118.546663 192.704915 
L 128.505427 171.000237 
L 138.46419 131.474644 
L 148.437434 82.408508 
L 158.410677 44.133985 
L 168.383921 35.34335 
L 178.357164 58.65717 
L 188.330408 100.177771 
L 198.303652 141.663769 
L 208.276895 171.989287 
L 218.250139 189.499597 
L 228.223382 197.785611 
L 238.196626 201.075617 
L 248.169869 202.191989 
L 258.143113 202.520922 
" style="fill:none;stroke:#008000;stroke-dasharray:11.1,4.8;stroke-dashoffset:0;stroke-opacity:0.2;stroke-width:3;"/>
   </g>
   <g id="line2d_57">
    <path clip-path="url(#p50bcc46063)" d="M 98.658096 202.421736 
L 108.60238 200.434519 
L 118.546663 191.730358 
L 128.505427 168.589258 
L 138.46419 127.556892 
L 148.437434 78.233257 
L 158.410677 41.710819 
L 168.383921 35.878425 
L 178.357164 61.630443 
L 188.330408 103.966253 
L 198.303652 144.83871 
L 208.276895 174.006984 
L 218.250139 190.526651 
L 228.223382 198.217505 
L 238.196626 201.229042 
L 248.169869 202.238894 
L 258.143113 202.533467 
" style="fill:none;stroke:#008000;stroke-dasharray:11.1,4.8;stroke-dashoffset:0;stroke-opacity:0.2;stroke-width:3;"/>
   </g>
   <g id="line2d_58">
    <path clip-path="url(#p50bcc46063)" d="M 98.658096 202.416405 
L 108.60238 200.38734 
L 118.546663 191.538961 
L 128.505427 168.122631 
L 138.46419 126.810958 
L 148.437434 77.455037 
L 158.410677 41.279183 
L 168.383921 36.00627 
L 178.357164 62.204239 
L 188.330408 104.676765 
L 198.303652 145.424434 
L 208.276895 174.374609 
L 218.250139 190.711874 
L 228.223382 198.294726 
L 238.196626 201.256275 
L 248.169869 202.247169 
L 258.143113 202.535669 
" style="fill:none;stroke:#008000;stroke-dasharray:11.1,4.8;stroke-dashoffset:0;stroke-opacity:0.2;stroke-width:3;"/>
   </g>
   <g id="legend_1">
    <g id="line2d_59"/>
    <g id="line2d_60">
     <g>
      <use style="fill:#ff0000;stroke:#ff0000;" x="252.258026" xlink:href="#m19d9a2f9ac" y="39.898438"/>
     </g>
    </g>
    <g id="text_19">
     <!-- Exp 15 -->
     <g transform="translate(270.258026 43.398438)scale(0.1 -0.1)">
      <defs>
       <path d="M 3513 3500 
L 2247 1797 
L 3578 0 
L 2900 0 
L 1881 1375 
L 863 0 
L 184 0 
L 1544 1831 
L 300 3500 
L 978 3500 
L 1906 2253 
L 2834 3500 
L 3513 3500 
z
" id="DejaVuSans-78" transform="scale(0.015625)"/>
       <path d="M 1159 525 
L 1159 -1331 
L 581 -1331 
L 581 3500 
L 1159 3500 
L 1159 2969 
Q 1341 3281 1617 3432 
Q 1894 3584 2278 3584 
Q 2916 3584 3314 3078 
Q 3713 2572 3713 1747 
Q 3713 922 3314 415 
Q 2916 -91 2278 -91 
Q 1894 -91 1617 61 
Q 1341 213 1159 525 
z
M 3116 1747 
Q 3116 2381 2855 2742 
Q 2594 3103 2138 3103 
Q 1681 3103 1420 2742 
Q 1159 2381 1159 1747 
Q 1159 1113 1420 752 
Q 1681 391 2138 391 
Q 2594 391 2855 752 
Q 3116 1113 3116 1747 
z
" id="DejaVuSans-70" transform="scale(0.015625)"/>
      </defs>
      <use xlink:href="#DejaVuSans-45"/>
      <use x="63.183594" xlink:href="#DejaVuSans-78"/>
      <use x="122.363281" xlink:href="#DejaVuSans-70"/>
      <use x="185.839844" xlink:href="#DejaVuSans-20"/>
      <use x="217.626953" xlink:href="#DejaVuSans-31"/>
      <use x="281.25" xlink:href="#DejaVuSans-35"/>
     </g>
    </g>
    <g id="line2d_61">
     <path d="M 242.258026 61.215312 
L 262.258026 61.215312 
" style="fill:none;stroke:#000000;stroke-linecap:square;"/>
    </g>
    <g id="line2d_62"/>
    <g id="text_20">
     <!-- pop1 = 1.00 -->
     <g transform="translate(270.258026 58.076562)scale(0.1 -0.1)">
      <use xlink:href="#DejaVuSans-70"/>
      <use x="63.476562" xlink:href="#DejaVuSans-6f"/>
      <use x="124.658203" xlink:href="#DejaVuSans-70"/>
      <use x="188.134766" xlink:href="#DejaVuSans-31"/>
      <use x="251.757812" xlink:href="#DejaVuSans-20"/>
      <use x="283.544922" xlink:href="#DejaVuSans-3d"/>
      <use x="367.333984" xlink:href="#DejaVuSans-20"/>
      <use x="399.121094" xlink:href="#DejaVuSans-31"/>
      <use x="462.744141" xlink:href="#DejaVuSans-2e"/>
      <use x="494.53125" xlink:href="#DejaVuSans-30"/>
      <use x="558.154297" xlink:href="#DejaVuSans-30"/>
     </g>
     <!-- m/z = 789.32 -->
     <g transform="translate(270.258026 69.274375)scale(0.1 -0.1)">
      <defs>
       <path d="M 2597 2516 
Q 3050 2419 3304 2112 
Q 3559 1806 3559 1356 
Q 3559 666 3084 287 
Q 2609 -91 1734 -91 
Q 1441 -91 1130 -33 
Q 819 25 488 141 
L 488 750 
Q 750 597 1062 519 
Q 1375 441 1716 441 
Q 2309 441 2620 675 
Q 2931 909 2931 1356 
Q 2931 1769 2642 2001 
Q 2353 2234 1838 2234 
L 1294 2234 
L 1294 2753 
L 1863 2753 
Q 2328 2753 2575 2939 
Q 2822 3125 2822 3475 
Q 2822 3834 2567 4026 
Q 2313 4219 1838 4219 
Q 1578 4219 1281 4162 
Q 984 4106 628 3988 
L 628 4550 
Q 988 4650 1302 4700 
Q 1616 4750 1894 4750 
Q 2613 4750 3031 4423 
Q 3450 4097 3450 3541 
Q 3450 3153 3228 2886 
Q 3006 2619 2597 2516 
z
" id="DejaVuSans-33" transform="scale(0.015625)"/>
      </defs>
      <use xlink:href="#DejaVuSans-6d"/>
      <use x="97.412109" xlink:href="#DejaVuSans-2f"/>
      <use x="131.103516" xlink:href="#DejaVuSans-7a"/>
      <use x="183.59375" xlink:href="#DejaVuSans-20"/>
      <use x="215.380859" xlink:href="#DejaVuSans-3d"/>
      <use x="299.169922" xlink:href="#DejaVuSans-20"/>
      <use x="330.957031" xlink:href="#DejaVuSans-37"/>
      <use x="394.580078" xlink:href="#DejaVuSans-38"/>
      <use x="458.203125" xlink:href="#DejaVuSans-39"/>
      <use x="521.826172" xlink:href="#DejaVuSans-2e"/>
      <use x="553.613281" xlink:href="#DejaVuSans-33"/>
      <use x="617.236328" xlink:href="#DejaVuSans-32"/>
     </g>
    </g>
    <g id="line2d_63">
     <path d="M 242.258026 80.4525 
L 262.258026 80.4525 
" style="fill:none;stroke:#008000;stroke-dasharray:11.1,4.8;stroke-dashoffset:0;stroke-opacity:0.2;stroke-width:3;"/>
    </g>
    <g id="line2d_64"/>
    <g id="text_21">
     <!-- BootFits -->
     <g transform="translate(270.258026 83.9525)scale(0.1 -0.1)">
      <defs>
       <path d="M 1259 2228 
L 1259 519 
L 2272 519 
Q 2781 519 3026 730 
Q 3272 941 3272 1375 
Q 3272 1813 3026 2020 
Q 2781 2228 2272 2228 
L 1259 2228 
z
M 1259 4147 
L 1259 2741 
L 2194 2741 
Q 2656 2741 2882 2914 
Q 3109 3088 3109 3444 
Q 3109 3797 2882 3972 
Q 2656 4147 2194 4147 
L 1259 4147 
z
M 628 4666 
L 2241 4666 
Q 2963 4666 3353 4366 
Q 3744 4066 3744 3513 
Q 3744 3084 3544 2831 
Q 3344 2578 2956 2516 
Q 3422 2416 3680 2098 
Q 3938 1781 3938 1306 
Q 3938 681 3513 340 
Q 3088 0 2303 0 
L 628 0 
L 628 4666 
z
" id="DejaVuSans-42" transform="scale(0.015625)"/>
      </defs>
      <use xlink:href="#DejaVuSans-42"/>
      <use x="68.603516" xlink:href="#DejaVuSans-6f"/>
      <use x="129.785156" xlink:href="#DejaVuSans-6f"/>
      <use x="190.966797" xlink:href="#DejaVuSans-74"/>
      <use x="230.175781" xlink:href="#DejaVuSans-46"/>
      <use x="280.445312" xlink:href="#DejaVuSans-69"/>
      <use x="308.228516" xlink:href="#DejaVuSans-74"/>
      <use x="347.4375" xlink:href="#DejaVuSans-73"/>
     </g>
    </g>
   </g>
   <g id="line2d_65">
    <path clip-path="url(#p50bcc46063)" d="M 98.658096 202.433817 
L 108.60238 200.542196 
L 118.546663 192.170426 
L 128.505427 169.67056 
L 138.46419 129.300591 
L 148.437434 80.07321 
L 158.410677 42.756554 
L 168.383921 35.611477 
L 178.357164 60.29841 
L 188.330408 102.291933 
L 198.303652 143.44644 
L 208.276895 173.127388 
L 218.250139 190.081084 
L 228.223382 198.030901 
L 238.196626 201.162982 
L 248.169869 202.218757 
L 258.143113 202.528095 
" style="fill:none;stroke:#000000;stroke-linecap:square;"/>
   </g>
  </g>
  <g id="axes_2">
   <g id="patch_7">
    <path d="M 68.925 318.2 
L 347.342401 318.2 
L 347.342401 256.8 
L 68.925 256.8 
z
" style="fill:#ffffff;"/>
   </g>
   <g id="matplotlib.axis_3">
    <g id="xtick_8">
     <g id="line2d_66">
      <g>
       <use style="stroke:#000000;stroke-width:0.8;" x="101.788821" xlink:href="#me5074ad8a4" y="318.2"/>
      </g>
     </g>
     <g id="text_22">
      <!-- 786 -->
      <g transform="translate(92.245071 332.798438)scale(0.1 -0.1)">
       <use xlink:href="#DejaVuSans-37"/>
       <use x="63.623047" xlink:href="#DejaVuSans-38"/>
       <use x="127.246094" xlink:href="#DejaVuSans-36"/>
      </g>
     </g>
    </g>
    <g id="xtick_9">
     <g id="line2d_67">
      <g>
       <use style="stroke:#000000;stroke-width:0.8;" x="141.432949" xlink:href="#me5074ad8a4" y="318.2"/>
      </g>
     </g>
     <g id="text_23">
      <!-- 788 -->
      <g transform="translate(131.889199 332.798438)scale(0.1 -0.1)">
       <use xlink:href="#DejaVuSans-37"/>
       <use x="63.623047" xlink:href="#DejaVuSans-38"/>
       <use x="127.246094" xlink:href="#DejaVuSans-38"/>
      </g>
     </g>
    </g>
    <g id="xtick_10">
     <g id="line2d_68">
      <g>
       <use style="stroke:#000000;stroke-width:0.8;" x="181.077077" xlink:href="#me5074ad8a4" y="318.2"/>
      </g>
     </g>
     <g id="text_24">
      <!-- 790 -->
      <g transform="translate(171.533327 332.798438)scale(0.1 -0.1)">
       <use xlink:href="#DejaVuSans-37"/>
       <use x="63.623047" xlink:href="#DejaVuSans-39"/>
       <use x="127.246094" xlink:href="#DejaVuSans-30"/>
      </g>
     </g>
    </g>
    <g id="xtick_11">
     <g id="line2d_69">
      <g>
       <use style="stroke:#000000;stroke-width:0.8;" x="220.721205" xlink:href="#me5074ad8a4" y="318.2"/>
      </g>
     </g>
     <g id="text_25">
      <!-- 792 -->
      <g transform="translate(211.177455 332.798438)scale(0.1 -0.1)">
       <use xlink:href="#DejaVuSans-37"/>
       <use x="63.623047" xlink:href="#DejaVuSans-39"/>
       <use x="127.246094" xlink:href="#DejaVuSans-32"/>
      </g>
     </g>
    </g>
    <g id="xtick_12">
     <g id="line2d_70">
      <g>
       <use style="stroke:#000000;stroke-width:0.8;" x="260.365333" xlink:href="#me5074ad8a4" y="318.2"/>
      </g>
     </g>
     <g id="text_26">
      <!-- 794 -->
      <g transform="translate(250.821583 332.798438)scale(0.1 -0.1)">
       <use xlink:href="#DejaVuSans-37"/>
       <use x="63.623047" xlink:href="#DejaVuSans-39"/>
       <use x="127.246094" xlink:href="#DejaVuSans-34"/>
      </g>
     </g>
    </g>
    <g id="xtick_13">
     <g id="line2d_71">
      <g>
       <use style="stroke:#000000;stroke-width:0.8;" x="300.009461" xlink:href="#me5074ad8a4" y="318.2"/>
      </g>
     </g>
     <g id="text_27">
      <!-- 796 -->
      <g transform="translate(290.465711 332.798438)scale(0.1 -0.1)">
       <use xlink:href="#DejaVuSans-37"/>
       <use x="63.623047" xlink:href="#DejaVuSans-39"/>
       <use x="127.246094" xlink:href="#DejaVuSans-36"/>
      </g>
     </g>
    </g>
    <g id="xtick_14">
     <g id="line2d_72">
      <g>
       <use style="stroke:#000000;stroke-width:0.8;" x="339.653589" xlink:href="#me5074ad8a4" y="318.2"/>
      </g>
     </g>
     <g id="text_28">
      <!-- 798 -->
      <g transform="translate(330.109839 332.798438)scale(0.1 -0.1)">
       <use xlink:href="#DejaVuSans-37"/>
       <use x="63.623047" xlink:href="#DejaVuSans-39"/>
       <use x="127.246094" xlink:href="#DejaVuSans-38"/>
      </g>
     </g>
    </g>
    <g id="text_29">
     <!-- m/z -->
     <g transform="translate(198.954794 346.476562)scale(0.1 -0.1)">
      <use xlink:href="#DejaVuSans-6d"/>
      <use x="97.412109" xlink:href="#DejaVuSans-2f"/>
      <use x="131.103516" xlink:href="#DejaVuSans-7a"/>
     </g>
    </g>
   </g>
   <g id="matplotlib.axis_4">
    <g id="ytick_9">
     <g id="line2d_73">
      <g>
       <use style="stroke:#000000;stroke-width:0.8;" x="68.925" xlink:href="#mc845956f69" y="312.06"/>
      </g>
     </g>
     <g id="text_30">
      <!-- 0.02 -->
      <g transform="translate(31.279687 315.859219)scale(0.1 -0.1)">
       <defs>
        <path d="M 678 2272 
L 4684 2272 
L 4684 1741 
L 678 1741 
L 678 2272 
z
" id="DejaVuSans-2212" transform="scale(0.015625)"/>
       </defs>
       <use xlink:href="#DejaVuSans-2212"/>
       <use x="83.789062" xlink:href="#DejaVuSans-30"/>
       <use x="147.412109" xlink:href="#DejaVuSans-2e"/>
       <use x="179.199219" xlink:href="#DejaVuSans-30"/>
       <use x="242.822266" xlink:href="#DejaVuSans-32"/>
      </g>
     </g>
    </g>
    <g id="ytick_10">
     <g id="line2d_74">
      <g>
       <use style="stroke:#000000;stroke-width:0.8;" x="68.925" xlink:href="#mc845956f69" y="287.5"/>
      </g>
     </g>
     <g id="text_31">
      <!-- 0.00 -->
      <g transform="translate(39.659375 291.299219)scale(0.1 -0.1)">
       <use xlink:href="#DejaVuSans-30"/>
       <use x="63.623047" xlink:href="#DejaVuSans-2e"/>
       <use x="95.410156" xlink:href="#DejaVuSans-30"/>
       <use x="159.033203" xlink:href="#DejaVuSans-30"/>
      </g>
     </g>
    </g>
    <g id="ytick_11">
     <g id="line2d_75">
      <g>
       <use style="stroke:#000000;stroke-width:0.8;" x="68.925" xlink:href="#mc845956f69" y="262.94"/>
      </g>
     </g>
     <g id="text_32">
      <!-- 0.02 -->
      <g transform="translate(39.659375 266.739219)scale(0.1 -0.1)">
       <use xlink:href="#DejaVuSans-30"/>
       <use x="63.623047" xlink:href="#DejaVuSans-2e"/>
       <use x="95.410156" xlink:href="#DejaVuSans-30"/>
       <use x="159.033203" xlink:href="#DejaVuSans-32"/>
      </g>
     </g>
    </g>
    <g id="text_33">
     <!-- residual -->
     <g transform="translate(25.2 307.309375)rotate(-90)scale(0.1 -0.1)">
      <use xlink:href="#DejaVuSans-72"/>
      <use x="38.863281" xlink:href="#DejaVuSans-65"/>
      <use x="100.386719" xlink:href="#DejaVuSans-73"/>
      <use x="152.486328" xlink:href="#DejaVuSans-69"/>
      <use x="180.269531" xlink:href="#DejaVuSans-64"/>
      <use x="243.746094" xlink:href="#DejaVuSans-75"/>
      <use x="307.125" xlink:href="#DejaVuSans-61"/>
      <use x="368.404297" xlink:href="#DejaVuSans-6c"/>
     </g>
    </g>
   </g>
   <g id="line2d_76">
    <path clip-path="url(#pf5a31248b7)" d="M 98.658096 284.531288 
L 108.60238 278.972044 
L 118.546663 269.361528 
L 128.505427 264.79049 
L 138.46419 280.266657 
L 148.437434 302.954942 
L 158.410677 311.909715 
L 168.383921 308.340445 
L 178.357164 295.093275 
L 188.330408 285.343642 
L 198.303652 288.688909 
L 208.276895 283.339809 
L 218.250139 287.179021 
L 228.223382 285.999031 
L 238.196626 286.676142 
L 248.169869 287.103935 
L 258.143113 286.910459 
" style="fill:none;stroke:#0000ff;stroke-linecap:square;stroke-opacity:0.5;stroke-width:1.5;"/>
   </g>
   <g id="line2d_77">
    <path clip-path="url(#pf5a31248b7)" d="M 98.658096 284.525193 
L 108.60238 278.917339 
L 118.546663 269.136318 
L 128.505427 264.232867 
L 138.46419 279.359729 
L 148.437434 301.987353 
L 158.410677 311.346953 
L 168.383921 308.462777 
L 178.357164 295.781161 
L 188.330408 286.221326 
L 198.303652 289.424993 
L 208.276895 283.807839 
L 218.250139 287.417356 
L 228.223382 286.099288 
L 238.196626 286.711766 
L 248.169869 287.114828 
L 258.143113 286.913373 
" style="fill:none;stroke:#008000;stroke-linecap:square;stroke-opacity:0.5;stroke-width:1.5;"/>
   </g>
   <g id="line2d_78">
    <path clip-path="url(#pf5a31248b7)" d="M 98.658096 284.53038 
L 108.60238 278.963913 
L 118.546663 269.32811 
L 128.505427 264.707899 
L 138.46419 280.132602 
L 148.437434 302.812296 
L 158.410677 311.827203 
L 168.383921 308.359117 
L 178.357164 295.195132 
L 188.330408 285.473132 
L 198.303652 288.797285 
L 208.276895 283.408611 
L 218.250139 287.214013 
L 228.223382 286.013735 
L 238.196626 286.681362 
L 248.169869 287.10553 
L 258.143113 286.910886 
" style="fill:none;stroke:#008000;stroke-linecap:square;stroke-opacity:0.5;stroke-width:1.5;"/>
   </g>
   <g id="line2d_79">
    <path clip-path="url(#pf5a31248b7)" d="M 98.658096 284.542253 
L 108.60238 279.069936 
L 118.546663 269.76227 
L 128.505427 265.776882 
L 138.46419 281.860393 
L 148.437434 304.640872 
L 158.410677 312.87299 
L 168.383921 308.102968 
L 178.357164 293.877715 
L 188.330408 283.810595 
L 198.303652 287.411668 
L 208.276895 282.531719 
L 218.250139 286.769193 
L 228.223382 285.827225 
L 238.196626 286.61527 
L 248.169869 287.085366 
L 258.143113 286.905502 
" style="fill:none;stroke:#008000;stroke-linecap:square;stroke-opacity:0.5;stroke-width:1.5;"/>
   </g>
   <g id="line2d_80">
    <path clip-path="url(#pf5a31248b7)" d="M 98.658096 284.529782 
L 108.60238 278.95855 
L 118.546663 269.306058 
L 128.505427 264.653369 
L 138.46419 280.044042 
L 148.437434 302.71799 
L 158.410677 311.772567 
L 168.383921 308.371341 
L 178.357164 295.262387 
L 188.330408 285.558722 
L 198.303652 288.868961 
L 208.276895 283.454135 
L 218.250139 287.237174 
L 228.223382 286.023471 
L 238.196626 286.684819 
L 248.169869 287.106586 
L 258.143113 286.911168 
" style="fill:none;stroke:#008000;stroke-linecap:square;stroke-opacity:0.5;stroke-width:1.5;"/>
   </g>
   <g id="line2d_81">
    <path clip-path="url(#pf5a31248b7)" d="M 98.658096 284.49784 
L 108.60238 278.66902 
L 118.546663 268.102066 
L 128.505427 261.640352 
L 138.46419 275.084992 
L 148.437434 297.345622 
L 158.410677 308.548448 
L 168.383921 308.909648 
L 178.357164 298.982966 
L 188.330408 290.410482 
L 198.303652 292.988206 
L 208.276895 286.097579 
L 218.250139 288.593515 
L 228.223382 286.597664 
L 238.196626 286.889944 
L 248.169869 287.169594 
L 258.143113 286.928087 
" style="fill:none;stroke:#008000;stroke-linecap:square;stroke-opacity:0.5;stroke-width:1.5;"/>
   </g>
   <g id="line2d_82">
    <path clip-path="url(#pf5a31248b7)" d="M 98.658096 284.530999 
L 108.60238 278.969458 
L 118.546663 269.3509 
L 128.505427 264.76423 
L 138.46419 280.224044 
L 148.437434 302.909613 
L 158.410677 311.883512 
L 168.383921 308.346403 
L 178.357164 295.12566 
L 188.330408 285.384794 
L 198.303652 288.723343 
L 208.276895 283.361665 
L 218.250139 287.190135 
L 228.223382 286.003701 
L 238.196626 286.6778 
L 248.169869 287.104441 
L 258.143113 286.910595 
" style="fill:none;stroke:#008000;stroke-linecap:square;stroke-opacity:0.5;stroke-width:1.5;"/>
   </g>
   <g id="line2d_83">
    <path clip-path="url(#pf5a31248b7)" d="M 98.658096 284.496489 
L 108.60238 278.656636 
L 118.546663 268.04995 
L 128.505427 261.508292 
L 138.46419 274.864616 
L 148.437434 297.102662 
L 158.410677 308.397524 
L 168.383921 308.926709 
L 178.357164 299.146104 
L 188.330408 290.628803 
L 198.303652 293.176216 
L 208.276895 286.21951 
L 218.250139 288.656617 
L 228.223382 286.624569 
L 238.196626 286.899614 
L 248.169869 287.172579 
L 258.143113 286.928892 
" style="fill:none;stroke:#008000;stroke-linecap:square;stroke-opacity:0.5;stroke-width:1.5;"/>
   </g>
   <g id="line2d_84">
    <path clip-path="url(#pf5a31248b7)" d="M 98.658096 284.540653 
L 108.60238 279.055696 
L 118.546663 269.704152 
L 128.505427 265.634289 
L 138.46419 281.630828 
L 148.437434 304.399154 
L 158.410677 312.736239 
L 168.383921 308.138922 
L 178.357164 294.053324 
L 188.330408 284.030691 
L 198.303652 287.594381 
L 208.276895 282.647006 
L 218.250139 286.827532 
L 228.223382 285.851635 
L 238.196626 286.623905 
L 248.169869 287.087997 
L 258.143113 286.906204 
" style="fill:none;stroke:#008000;stroke-linecap:square;stroke-opacity:0.5;stroke-width:1.5;"/>
   </g>
   <g id="line2d_85">
    <path clip-path="url(#pf5a31248b7)" d="M 98.658096 284.539194 
L 108.60238 279.04269 
L 118.546663 269.651019 
L 128.505427 265.503789 
L 138.46419 281.420489 
L 148.437434 304.177349 
L 158.410677 312.610352 
L 168.383921 308.171351 
L 178.357164 294.214074 
L 188.330408 284.232568 
L 198.303652 287.762163 
L 208.276895 282.752963 
L 218.250139 286.881187 
L 228.223382 285.8741 
L 238.196626 286.631856 
L 248.169869 287.09042 
L 258.143113 286.90685 
" style="fill:none;stroke:#008000;stroke-linecap:square;stroke-opacity:0.5;stroke-width:1.5;"/>
   </g>
   <g id="line2d_86">
    <path clip-path="url(#pf5a31248b7)" d="M 98.658096 284.519371 
L 108.60238 278.864876 
L 118.546663 268.919467 
L 128.505427 263.693654 
L 138.46419 278.478587 
L 148.437434 301.041546 
L 158.410677 310.789931 
L 168.383921 308.572574 
L 178.357164 296.446719 
L 188.330408 287.077752 
L 198.303652 290.146695 
L 208.276895 284.268376 
L 218.250139 287.652565 
L 228.223382 286.198474 
L 238.196626 286.747083 
L 248.169869 287.125646 
L 258.143113 286.916271 
" style="fill:none;stroke:#008000;stroke-linecap:square;stroke-opacity:0.5;stroke-width:1.5;"/>
   </g>
   <g id="line2d_87">
    <path clip-path="url(#pf5a31248b7)" d="M 98.658096 284.531655 
L 108.60238 278.975337 
L 118.546663 269.375054 
L 128.505427 264.823905 
L 138.46419 280.320865 
L 148.437434 303.012587 
L 158.410677 311.943015 
L 168.383921 308.332836 
L 178.357164 295.05207 
L 188.330408 285.291304 
L 198.303652 288.645128 
L 208.276895 283.312024 
L 218.250139 287.164895 
L 228.223382 285.993097 
L 238.196626 286.674036 
L 248.169869 287.103292 
L 258.143113 286.910287 
" style="fill:none;stroke:#008000;stroke-linecap:square;stroke-opacity:0.5;stroke-width:1.5;"/>
   </g>
   <g id="line2d_88">
    <path clip-path="url(#pf5a31248b7)" d="M 98.658096 284.53086 
L 108.60238 278.96821 
L 118.546663 269.345775 
L 128.505427 264.751567 
L 138.46419 280.203497 
L 148.437434 302.887758 
L 158.410677 311.870883 
L 168.383921 308.349283 
L 178.357164 295.14128 
L 188.330408 285.404639 
L 198.303652 288.739945 
L 208.276895 283.372201 
L 218.250139 287.195492 
L 228.223382 286.005951 
L 238.196626 286.678598 
L 248.169869 287.104685 
L 258.143113 286.91066 
" style="fill:none;stroke:#008000;stroke-linecap:square;stroke-opacity:0.5;stroke-width:1.5;"/>
   </g>
   <g id="line2d_89">
    <path clip-path="url(#pf5a31248b7)" d="M 98.658096 284.499588 
L 108.60238 278.685037 
L 118.546663 268.169389 
L 128.505427 261.810741 
L 138.46419 275.368948 
L 148.437434 297.658144 
L 158.410677 308.741941 
L 168.383921 308.886783 
L 178.357164 298.772471 
L 188.330408 290.129517 
L 198.303652 292.746591 
L 208.276895 285.941048 
L 218.250139 288.512577 
L 228.223382 286.563177 
L 238.196626 286.877557 
L 248.169869 287.165772 
L 258.143113 286.927056 
" style="fill:none;stroke:#008000;stroke-linecap:square;stroke-opacity:0.5;stroke-width:1.5;"/>
   </g>
   <g id="line2d_90">
    <path clip-path="url(#pf5a31248b7)" d="M 98.658096 284.529718 
L 108.60238 278.957977 
L 118.546663 269.303704 
L 128.505427 264.647545 
L 138.46419 280.034582 
L 148.437434 302.707913 
L 158.410677 311.766725 
L 168.383921 308.372641 
L 178.357164 295.269569 
L 188.330408 285.567866 
L 198.303652 288.876621 
L 208.276895 283.459001 
L 218.250139 287.23965 
L 228.223382 286.024511 
L 238.196626 286.685189 
L 248.169869 287.106699 
L 258.143113 286.911198 
" style="fill:none;stroke:#008000;stroke-linecap:square;stroke-opacity:0.5;stroke-width:1.5;"/>
   </g>
   <g id="line2d_91">
    <path clip-path="url(#pf5a31248b7)" d="M 98.658096 284.56659 
L 108.60238 279.284856 
L 118.546663 270.632374 
L 128.505427 267.893645 
L 138.46419 285.236108 
L 148.437434 308.151835 
L 158.410677 314.807336 
L 168.383921 307.508094 
L 178.357164 291.276431 
L 188.330408 280.602173 
L 198.303652 284.772766 
L 208.276895 280.878272 
L 218.250139 285.937291 
L 228.223382 285.480804 
L 238.196626 286.49322 
L 248.169869 287.048312 
L 258.143113 286.895649 
" style="fill:none;stroke:#008000;stroke-linecap:square;stroke-opacity:0.5;stroke-width:1.5;"/>
   </g>
   <g id="line2d_92">
    <path clip-path="url(#pf5a31248b7)" d="M 98.658096 284.550696 
L 108.60238 279.144846 
L 118.546663 270.067029 
L 128.505427 266.522109 
L 138.46419 283.055676 
L 148.437434 305.893327 
L 158.410677 313.574227 
L 168.383921 307.906402 
L 178.357164 292.960648 
L 188.330408 282.668558 
L 198.303652 286.467103 
L 208.276895 281.937391 
L 218.250139 286.469134 
L 228.223382 285.701912 
L 238.196626 286.571012 
L 248.169869 287.071902 
L 258.143113 286.901916 
" style="fill:none;stroke:#008000;stroke-linecap:square;stroke-opacity:0.5;stroke-width:1.5;"/>
   </g>
   <g id="line2d_93">
    <path clip-path="url(#pf5a31248b7)" d="M 98.658096 284.49726 
L 108.60238 278.66371 
L 118.546663 268.079723 
L 128.505427 261.583753 
L 138.46419 274.990574 
L 148.437434 297.241572 
L 158.410677 308.483867 
L 168.383921 308.91703 
L 178.357164 299.052885 
L 188.330408 290.503991 
L 198.303652 293.068704 
L 208.276895 286.149771 
L 218.250139 288.62052 
L 228.223382 286.609176 
L 238.196626 286.894081 
L 248.169869 287.170871 
L 258.143113 286.928431 
" style="fill:none;stroke:#008000;stroke-linecap:square;stroke-opacity:0.5;stroke-width:1.5;"/>
   </g>
   <g id="line2d_94">
    <path clip-path="url(#pf5a31248b7)" d="M 98.658096 284.51213 
L 108.60238 278.799335 
L 118.546663 268.647335 
L 128.505427 263.013756 
L 138.46419 277.361655 
L 148.437434 299.834483 
L 158.410677 310.069172 
L 168.383921 308.69872 
L 178.357164 297.286323 
L 188.330408 288.168617 
L 198.303652 291.070941 
L 208.276895 284.860556 
L 218.250139 287.956012 
L 228.223382 286.326792 
L 238.196626 286.79288 
L 248.169869 287.139702 
L 258.143113 286.920043 
" style="fill:none;stroke:#008000;stroke-linecap:square;stroke-opacity:0.5;stroke-width:1.5;"/>
   </g>
   <g id="line2d_95">
    <path clip-path="url(#pf5a31248b7)" d="M 98.658096 284.547431 
L 108.60238 279.115924 
L 118.546663 269.949554 
L 128.505427 266.235342 
L 138.46419 282.596613 
L 148.437434 305.413516 
L 158.410677 313.307042 
L 168.383921 307.983745 
L 178.357164 293.313393 
L 188.330408 283.106391 
L 198.303652 286.828537 
L 208.276895 282.164479 
L 218.250139 286.583648 
L 228.223382 285.749688 
L 238.196626 286.587872 
L 248.169869 287.077027 
L 258.143113 286.90328 
" style="fill:none;stroke:#008000;stroke-linecap:square;stroke-opacity:0.5;stroke-width:1.5;"/>
   </g>
   <g id="line2d_96">
    <path clip-path="url(#pf5a31248b7)" d="M 98.658096 284.554555 
L 108.60238 279.178965 
L 118.546663 270.205301 
L 128.505427 266.858857 
L 138.46419 283.593342 
L 148.437434 306.453384 
L 158.410677 313.883801 
L 168.383921 307.812917 
L 178.357164 292.546678 
L 188.330408 282.156994 
L 198.303652 286.045885 
L 208.276895 281.673253 
L 218.250139 286.33615 
L 228.223382 285.646504 
L 238.196626 286.551482 
L 248.169869 287.06597 
L 258.143113 286.900338 
" style="fill:none;stroke:#008000;stroke-linecap:square;stroke-opacity:0.5;stroke-width:1.5;"/>
   </g>
   <g id="patch_8">
    <path d="M 68.925 318.2 
L 68.925 256.8 
" style="fill:none;stroke:#000000;stroke-linecap:square;stroke-linejoin:miter;stroke-width:0.8;"/>
   </g>
   <g id="patch_9">
    <path d="M 347.342401 318.2 
L 347.342401 256.8 
" style="fill:none;stroke:#000000;stroke-linecap:square;stroke-linejoin:miter;stroke-width:0.8;"/>
   </g>
   <g id="patch_10">
    <path d="M 68.925 318.2 
L 347.342401 318.2 
" style="fill:none;stroke:#000000;stroke-linecap:square;stroke-linejoin:miter;stroke-width:0.8;"/>
   </g>
   <g id="patch_11">
    <path d="M 68.925 256.8 
L 347.342401 256.8 
" style="fill:none;stroke:#000000;stroke-linecap:square;stroke-linejoin:miter;stroke-width:0.8;"/>
   </g>
   <g id="legend_2">
    <g id="line2d_97">
     <path d="M 229.962714 269.898438 
L 249.962714 269.898438 
" style="fill:none;stroke:#0000ff;stroke-linecap:square;stroke-opacity:0.5;stroke-width:1.5;"/>
    </g>
    <g id="line2d_98"/>
    <g id="text_34">
     <!-- rss = 9.097e-05 -->
     <g transform="translate(257.962714 273.398438)scale(0.1 -0.1)">
      <use xlink:href="#DejaVuSans-72"/>
      <use x="41.113281" xlink:href="#DejaVuSans-73"/>
      <use x="93.212891" xlink:href="#DejaVuSans-73"/>
      <use x="145.3125" xlink:href="#DejaVuSans-20"/>
      <use x="177.099609" xlink:href="#DejaVuSans-3d"/>
      <use x="260.888672" xlink:href="#DejaVuSans-20"/>
      <use x="292.675781" xlink:href="#DejaVuSans-39"/>
      <use x="356.298828" xlink:href="#DejaVuSans-2e"/>
      <use x="388.085938" xlink:href="#DejaVuSans-30"/>
      <use x="451.708984" xlink:href="#DejaVuSans-39"/>
      <use x="515.332031" xlink:href="#DejaVuSans-37"/>
      <use x="578.955078" xlink:href="#DejaVuSans-65"/>
      <use x="640.478516" xlink:href="#DejaVuSans-2d"/>
      <use x="676.5625" xlink:href="#DejaVuSans-30"/>
      <use x="740.185547" xlink:href="#DejaVuSans-35"/>
     </g>
    </g>
   </g>
  </g>
 </g>
 <defs>
  <clipPath id="p50bcc46063">
   <rect height="184.2" width="278.417401" x="68.925" y="26.8"/>
  </clipPath>
  <clipPath id="pf5a31248b7">
   <rect height="61.4" width="278.417401" x="68.925" y="256.8"/>
  </clipPath>
 </defs>
</svg>
