<?xml version="1.0" encoding="utf-8" standalone="no"?>
<!DOCTYPE svg PUBLIC "-//W3C//DTD SVG 1.1//EN"
  "http://www.w3.org/Graphics/SVG/1.1/DTD/svg11.dtd">
<svg height="360pt" version="1.1" viewBox="0 0 360 360" width="360pt" xmlns="http://www.w3.org/2000/svg" xmlns:xlink="http://www.w3.org/1999/xlink">
 <metadata>
  <rdf:RDF xmlns:cc="http://creativecommons.org/ns#" xmlns:dc="http://purl.org/dc/elements/1.1/" xmlns:rdf="http://www.w3.org/1999/02/22-rdf-syntax-ns#">
   <cc:Work>
    <dc:type rdf:resource="http://purl.org/dc/dcmitype/StillImage"/>
    <dc:date>2025-01-22T13:41:03.570327</dc:date>
    <dc:format>image/svg+xml</dc:format>
    <dc:creator>
     <cc:Agent>
      <dc:title>Matplotlib v3.4.2, https://matplotlib.org/</dc:title>
     </cc:Agent>
    </dc:creator>
   </cc:Work>
  </rdf:RDF>
 </metadata>
 <defs>
  <style type="text/css">*{stroke-linecap:butt;stroke-linejoin:round;}</style>
 </defs>
 <g id="figure_1">
  <g id="patch_1">
   <path d="M 0 360 
L 360 360 
L 360 0 
L 0 0 
z
" style="fill:none;"/>
  </g>
  <g id="axes_1">
   <g id="patch_2">
    <path d="M 68.925 211 
L 349.2 211 
L 349.2 26.8 
L 68.925 26.8 
z
" style="fill:#ffffff;"/>
   </g>
   <g id="line2d_1">
    <path clip-path="url(#p5534a3fad6)" d="M 88.419457 202.402063 
L 91.284325 202.525738 
L 91.950992 202.488712 
L 92.383425 202.217621 
L 92.833876 202.373359 
L 93.266309 202.306178 
L 93.716759 202.351983 
L 94.599643 202.118834 
L 94.81586 201.877288 
L 95.032076 200.894306 
L 95.248292 195.202236 
L 95.482527 163.448486 
L 95.91496 36.201404 
L 96.131176 76.586397 
L 96.581627 191.711873 
L 96.797843 200.330901 
L 97.01406 201.510693 
L 97.680727 202.032567 
L 98.11316 202.111658 
L 98.563611 202.251975 
L 99.662711 202.326179 
L 100.113162 202.189374 
L 101.428478 202.459778 
L 101.878929 202.30007 
L 102.311362 202.433669 
L 103.194245 202.141279 
L 103.410462 202.205864 
L 103.626678 202.064173 
L 103.860913 201.737887 
L 104.077129 200.804222 
L 104.293346 194.414385 
L 104.509562 161.371979 
L 104.960013 37.575562 
L 105.176229 83.961048 
L 105.392446 157.799167 
L 105.62668 192.195882 
L 105.842896 200.449995 
L 106.059113 201.615739 
L 106.509564 201.652384 
L 107.158213 202.226476 
L 107.608664 202.20281 
L 108.491548 202.418553 
L 109.806864 202.426798 
L 110.257315 202.219911 
L 111.572631 202.355495 
L 112.023082 202.282206 
L 112.455515 202.058066 
L 112.671731 202.041423 
L 112.905966 201.794075 
L 113.122182 200.66528 
L 113.338399 195.351867 
L 113.554615 175.312054 
L 114.005066 119.521217 
L 114.221282 141.248191 
L 114.437499 177.251145 
L 114.671733 195.822134 
L 114.88795 200.376706 
L 115.104166 201.524892 
L 115.554617 202.011192 
L 115.98705 202.352746 
L 116.203266 202.433669 
L 116.869933 202.25854 
L 117.320384 202.456266 
L 117.969034 202.437181 
L 118.419484 202.312285 
L 119.518584 202.539098 
L 120.185252 202.435196 
L 121.500568 202.497109 
L 121.734803 202.390154 
L 121.951019 201.958516 
L 122.167235 201.074474 
L 122.383452 197.984144 
L 122.617686 188.674983 
L 123.050119 166.02885 
L 123.266336 174.945612 
L 123.716786 197.891006 
L 123.933003 201.027141 
L 124.149219 201.822627 
L 124.59967 202.376107 
L 124.815887 202.50169 
L 125.482554 202.464359 
L 128.797872 202.441303 
L 129.230305 202.227545 
L 130.329405 202.375344 
L 130.563639 202.318087 
L 130.996072 201.783997 
L 131.212289 201.302279 
L 131.446523 199.146071 
L 131.66274 192.837156 
L 132.095172 174.716586 
L 132.329407 177.648124 
L 132.76184 196.868022 
L 132.978056 200.570615 
L 133.21229 201.856522 
L 133.428507 202.224186 
L 133.86094 202.393666 
L 134.527607 202.396261 
L 137.176258 202.410461 
L 137.626709 202.446647 
L 138.059142 202.463901 
L 138.509593 202.418553 
L 138.942025 202.495583 
L 139.824909 202.314728 
L 140.059143 202.034094 
L 140.27536 201.365795 
L 140.491576 199.133856 
L 140.707793 191.48132 
L 141.158244 162.059059 
L 141.37446 163.005701 
L 141.824911 194.902975 
L 142.041127 200.497327 
L 142.257344 201.753461 
L 142.47356 202.144027 
L 142.924011 202.324194 
L 144.257345 202.527646 
L 148.221313 202.28755 
L 148.88798 202.129522 
L 149.104197 201.815756 
L 149.338431 201.194636 
L 149.554648 198.994914 
L 149.770864 188.471913 
L 150.221315 136.988299 
L 150.437531 141.706244 
L 150.869964 192.336352 
L 151.104198 200.474424 
L 151.320415 201.889502 
L 152.635731 202.45703 
L 153.086182 202.476497 
L 153.518615 202.342822 
L 154.635733 202.388627 
L 155.3024 202.359312 
L 155.734833 202.436723 
L 156.833933 202.143569 
L 157.284384 202.360075 
L 158.167268 201.913779 
L 158.383484 201.540924 
L 158.617719 199.28196 
L 158.833935 189.168153 
L 159.266368 125.598052 
L 159.500602 127.018016 
L 159.933035 188.514664 
L 160.149252 199.07889 
L 160.383486 201.637115 
L 160.599703 202.059287 
L 163.698804 202.489857 
L 164.347454 202.448174 
L 164.797904 202.430615 
L 165.464572 202.235638 
L 166.779888 202.260067 
L 167.230339 201.879425 
L 167.446556 201.433282 
L 167.68079 199.059041 
L 167.897006 188.219984 
L 168.329439 131.659618 
L 168.563674 136.041657 
L 168.996106 188.882634 
L 169.212323 198.872766 
L 169.446557 201.378621 
L 169.662774 201.914542 
L 169.87899 202.026002 
L 170.095207 201.975616 
L 170.996108 202.433669 
L 171.428541 202.38252 
L 171.878992 202.463442 
L 173.428543 202.279916 
L 173.860976 202.395956 
L 174.311427 202.355495 
L 174.743859 202.498255 
L 175.626743 202.259609 
L 176.077194 202.188 
L 176.29341 201.989052 
L 176.509627 201.365795 
L 176.743861 198.907884 
L 176.960078 188.487181 
L 177.39251 135.751557 
L 177.626745 141.034433 
L 178.059178 191.682863 
L 178.293412 199.845365 
L 178.509629 201.618488 
L 178.942061 202.166472 
L 179.176296 202.363434 
L 180.942063 202.481078 
L 181.824947 202.245257 
L 182.041163 202.226782 
L 182.491614 202.418095 
L 183.158281 202.341295 
L 183.590714 202.316102 
L 184.041165 202.370763 
L 184.473598 202.323736 
L 184.707832 202.358854 
L 185.140265 202.169525 
L 185.356482 201.857744 
L 185.590716 201.074474 
L 185.806932 198.710921 
L 186.023149 189.641474 
L 186.4736 141.309264 
L 186.689816 142.13376 
L 187.140267 191.435515 
L 187.356483 199.723218 
L 187.5727 201.690097 
L 187.788916 202.024933 
L 188.239367 202.24205 
L 188.455583 202.352746 
L 188.906034 202.348929 
L 189.338467 202.373817 
L 189.788918 202.389849 
L 190.221351 202.439776 
L 191.338469 202.288772 
L 191.770902 202.393666 
L 193.104236 202.30007 
L 193.320453 202.229836 
L 193.770904 202.421912 
L 194.437571 202.020353 
L 194.653787 201.415723 
L 194.870004 198.874293 
L 195.104238 188.421527 
L 195.536671 127.063821 
L 195.752887 130.789317 
L 196.203338 189.381911 
L 196.419555 199.22394 
L 196.653789 201.40702 
L 196.870005 201.877593 
L 198.20334 202.405117 
L 199.969107 202.400537 
L 200.40154 202.460389 
L 201.068207 202.242508 
L 201.951091 202.389849 
L 203.284426 202.19594 
L 203.734876 201.302279 
L 203.951093 198.274244 
L 204.167309 184.106669 
L 204.61776 108.863854 
L 204.833977 116.207968 
L 205.284427 188.339077 
L 205.500644 198.712448 
L 205.71686 201.080581 
L 206.167311 201.694066 
L 206.599744 202.215483 
L 206.833978 202.305567 
L 207.500646 202.160822 
L 208.149295 202.373359 
L 208.599746 202.361907 
L 209.050197 202.443288 
L 209.698846 202.318087 
L 210.365513 202.203879 
L 210.815964 202.447869 
L 211.698848 202.315339 
L 212.149298 202.31656 
L 212.581731 202.134866 
L 212.797948 201.526419 
L 213.032182 198.06812 
L 213.248399 181.37362 
L 213.698849 104.344399 
L 213.915066 117.383637 
L 214.347499 191.62637 
L 214.581733 199.856053 
L 214.797949 201.699716 
L 215.014166 201.905076 
L 215.2484 201.878814 
L 215.89705 202.381451 
L 216.563717 202.258846 
L 217.230384 202.311674 
L 217.680835 202.536807 
L 218.113268 202.518867 
L 218.563719 202.357785 
L 219.230386 202.375649 
L 219.897053 202.441761 
L 220.996153 202.011192 
L 221.21237 202.05776 
L 221.662821 201.821558 
L 221.879037 201.329762 
L 222.113271 197.564262 
L 222.329488 183.434858 
L 222.779939 131.186296 
L 222.996155 142.546007 
L 223.428588 194.684636 
L 223.662822 200.530918 
L 223.879039 201.801251 
L 224.095255 202.171205 
L 224.545706 202.454281 
L 224.978139 202.405117 
L 225.42859 202.423439 
L 225.879041 202.533372 
L 227.194357 202.448632 
L 227.644808 202.437181 
L 227.861024 202.349387 
L 228.743908 202.499018 
L 229.194359 202.494437 
L 229.861026 202.290604 
L 230.311477 202.495964 
L 230.74391 202.103871 
L 230.960126 201.336327 
L 231.194361 198.193321 
L 231.861028 167.983209 
L 232.527695 198.941474 
L 232.743912 201.631313 
L 232.960128 202.20052 
L 233.626795 202.332592 
L 234.077246 202.476497 
L 235.176346 202.484895 
L 235.626797 202.385574 
L 236.293464 202.450159 
L 238.942115 202.3558 
L 239.158332 202.321599 
L 239.824999 201.64704 
L 240.059233 201.119821 
L 240.27545 199.39342 
L 240.725901 191.07976 
L 240.942117 189.850652 
L 241.608784 200.95538 
L 241.825001 202.064631 
L 242.041217 202.442219 
L 242.275452 202.523829 
L 242.707885 202.430615 
L 243.374552 202.594827 
L 244.041219 202.524211 
L 244.49167 202.554366 
L 246.041221 202.412751 
L 247.374555 202.486803 
L 247.806988 202.380382 
L 248.257439 202.38649 
L 249.140323 201.191277 
L 249.590774 199.434644 
L 249.80699 198.657481 
L 250.023206 199.034612 
L 250.689874 202.020353 
L 250.924108 202.413057 
L 251.356541 202.592919 
L 253.140326 202.589102 
L 256.023212 202.497873 
L 256.455645 202.489857 
L 257.122312 202.459778 
L 257.788979 202.376412 
L 258.23943 201.956989 
L 258.671863 201.263802 
L 258.906097 201.095849 
L 259.122314 201.219524 
L 260.005197 202.571161 
L 260.888081 202.596354 
L 262.005199 202.598644 
L 262.671866 202.576887 
L 263.338534 202.547495 
L 265.987185 202.458251 
L 265.987185 202.458251 
" style="fill:none;stroke:#999999;stroke-linecap:square;stroke-width:1.5;"/>
   </g>
   <g id="line2d_2">
    <defs>
     <path d="M 0 2 
C 0.530406 2 1.03916 1.789267 1.414214 1.414214 
C 1.789267 1.03916 2 0.530406 2 0 
C 2 -0.530406 1.789267 -1.03916 1.414214 -1.414214 
C 1.03916 -1.789267 0.530406 -2 0 -2 
C -0.530406 -2 -1.03916 -1.789267 -1.414214 -1.414214 
C -1.789267 -1.03916 -2 -0.530406 -2 0 
C -2 0.530406 -1.789267 1.03916 -1.414214 1.414214 
C -1.03916 1.789267 -0.530406 2 0 2 
z
" id="m0cfb6684f7" style="stroke:#ff0000;"/>
    </defs>
    <g clip-path="url(#p5534a3fad6)">
     <use style="fill:#ff0000;stroke:#ff0000;" x="95.952051" xlink:href="#m0cfb6684f7" y="36.201404"/>
     <use style="fill:#ff0000;stroke:#ff0000;" x="104.991294" xlink:href="#m0cfb6684f7" y="37.575562"/>
     <use style="fill:#ff0000;stroke:#ff0000;" x="114.030536" xlink:href="#m0cfb6684f7" y="119.521217"/>
     <use style="fill:#ff0000;stroke:#ff0000;" x="123.082941" xlink:href="#m0cfb6684f7" y="166.02885"/>
     <use style="fill:#ff0000;stroke:#ff0000;" x="132.135345" xlink:href="#m0cfb6684f7" y="174.716586"/>
     <use style="fill:#ff0000;stroke:#ff0000;" x="141.200912" xlink:href="#m0cfb6684f7" y="162.059059"/>
     <use style="fill:#ff0000;stroke:#ff0000;" x="150.266479" xlink:href="#m0cfb6684f7" y="136.988299"/>
     <use style="fill:#ff0000;stroke:#ff0000;" x="159.332045" xlink:href="#m0cfb6684f7" y="125.598052"/>
     <use style="fill:#ff0000;stroke:#ff0000;" x="168.397612" xlink:href="#m0cfb6684f7" y="131.659618"/>
     <use style="fill:#ff0000;stroke:#ff0000;" x="177.463179" xlink:href="#m0cfb6684f7" y="135.751557"/>
     <use style="fill:#ff0000;stroke:#ff0000;" x="186.528745" xlink:href="#m0cfb6684f7" y="141.309264"/>
     <use style="fill:#ff0000;stroke:#ff0000;" x="195.594312" xlink:href="#m0cfb6684f7" y="127.063821"/>
     <use style="fill:#ff0000;stroke:#ff0000;" x="204.659879" xlink:href="#m0cfb6684f7" y="108.863854"/>
     <use style="fill:#ff0000;stroke:#ff0000;" x="213.725446" xlink:href="#m0cfb6684f7" y="104.344399"/>
     <use style="fill:#ff0000;stroke:#ff0000;" x="222.791012" xlink:href="#m0cfb6684f7" y="131.186296"/>
     <use style="fill:#ff0000;stroke:#ff0000;" x="231.856579" xlink:href="#m0cfb6684f7" y="167.983209"/>
     <use style="fill:#ff0000;stroke:#ff0000;" x="240.922146" xlink:href="#m0cfb6684f7" y="189.850652"/>
     <use style="fill:#ff0000;stroke:#ff0000;" x="249.987713" xlink:href="#m0cfb6684f7" y="198.657481"/>
     <use style="fill:#ff0000;stroke:#ff0000;" x="259.053279" xlink:href="#m0cfb6684f7" y="201.095849"/>
     <use style="fill:#ff0000;stroke:#ff0000;" x="268.118846" xlink:href="#m0cfb6684f7" y="202.627273"/>
    </g>
   </g>
   <g id="matplotlib.axis_1">
    <g id="xtick_1">
     <g id="line2d_3">
      <defs>
       <path d="M 0 0 
L 0 3.5 
" id="m8302dd1c60" style="stroke:#000000;stroke-width:0.8;"/>
      </defs>
      <g>
       <use style="stroke:#000000;stroke-width:0.8;" x="98.797845" xlink:href="#m8302dd1c60" y="211"/>
      </g>
     </g>
     <g id="text_1">
      <!-- 786 -->
      <g transform="translate(89.254095 225.598437)scale(0.1 -0.1)">
       <defs>
        <path d="M 525 4666 
L 3525 4666 
L 3525 4397 
L 1831 0 
L 1172 0 
L 2766 4134 
L 525 4134 
L 525 4666 
z
" id="DejaVuSans-37" transform="scale(0.015625)"/>
        <path d="M 2034 2216 
Q 1584 2216 1326 1975 
Q 1069 1734 1069 1313 
Q 1069 891 1326 650 
Q 1584 409 2034 409 
Q 2484 409 2743 651 
Q 3003 894 3003 1313 
Q 3003 1734 2745 1975 
Q 2488 2216 2034 2216 
z
M 1403 2484 
Q 997 2584 770 2862 
Q 544 3141 544 3541 
Q 544 4100 942 4425 
Q 1341 4750 2034 4750 
Q 2731 4750 3128 4425 
Q 3525 4100 3525 3541 
Q 3525 3141 3298 2862 
Q 3072 2584 2669 2484 
Q 3125 2378 3379 2068 
Q 3634 1759 3634 1313 
Q 3634 634 3220 271 
Q 2806 -91 2034 -91 
Q 1263 -91 848 271 
Q 434 634 434 1313 
Q 434 1759 690 2068 
Q 947 2378 1403 2484 
z
M 1172 3481 
Q 1172 3119 1398 2916 
Q 1625 2713 2034 2713 
Q 2441 2713 2670 2916 
Q 2900 3119 2900 3481 
Q 2900 3844 2670 4047 
Q 2441 4250 2034 4250 
Q 1625 4250 1398 4047 
Q 1172 3844 1172 3481 
z
" id="DejaVuSans-38" transform="scale(0.015625)"/>
        <path d="M 2113 2584 
Q 1688 2584 1439 2293 
Q 1191 2003 1191 1497 
Q 1191 994 1439 701 
Q 1688 409 2113 409 
Q 2538 409 2786 701 
Q 3034 994 3034 1497 
Q 3034 2003 2786 2293 
Q 2538 2584 2113 2584 
z
M 3366 4563 
L 3366 3988 
Q 3128 4100 2886 4159 
Q 2644 4219 2406 4219 
Q 1781 4219 1451 3797 
Q 1122 3375 1075 2522 
Q 1259 2794 1537 2939 
Q 1816 3084 2150 3084 
Q 2853 3084 3261 2657 
Q 3669 2231 3669 1497 
Q 3669 778 3244 343 
Q 2819 -91 2113 -91 
Q 1303 -91 875 529 
Q 447 1150 447 2328 
Q 447 3434 972 4092 
Q 1497 4750 2381 4750 
Q 2619 4750 2861 4703 
Q 3103 4656 3366 4563 
z
" id="DejaVuSans-36" transform="scale(0.015625)"/>
       </defs>
       <use xlink:href="#DejaVuSans-37"/>
       <use x="63.623047" xlink:href="#DejaVuSans-38"/>
       <use x="127.246094" xlink:href="#DejaVuSans-36"/>
      </g>
     </g>
    </g>
    <g id="xtick_2">
     <g id="line2d_4">
      <g>
       <use style="stroke:#000000;stroke-width:0.8;" x="134.833914" xlink:href="#m8302dd1c60" y="211"/>
      </g>
     </g>
     <g id="text_2">
      <!-- 788 -->
      <g transform="translate(125.290164 225.598437)scale(0.1 -0.1)">
       <use xlink:href="#DejaVuSans-37"/>
       <use x="63.623047" xlink:href="#DejaVuSans-38"/>
       <use x="127.246094" xlink:href="#DejaVuSans-38"/>
      </g>
     </g>
    </g>
    <g id="xtick_3">
     <g id="line2d_5">
      <g>
       <use style="stroke:#000000;stroke-width:0.8;" x="170.869982" xlink:href="#m8302dd1c60" y="211"/>
      </g>
     </g>
     <g id="text_3">
      <!-- 790 -->
      <g transform="translate(161.326232 225.598437)scale(0.1 -0.1)">
       <defs>
        <path d="M 703 97 
L 703 672 
Q 941 559 1184 500 
Q 1428 441 1663 441 
Q 2288 441 2617 861 
Q 2947 1281 2994 2138 
Q 2813 1869 2534 1725 
Q 2256 1581 1919 1581 
Q 1219 1581 811 2004 
Q 403 2428 403 3163 
Q 403 3881 828 4315 
Q 1253 4750 1959 4750 
Q 2769 4750 3195 4129 
Q 3622 3509 3622 2328 
Q 3622 1225 3098 567 
Q 2575 -91 1691 -91 
Q 1453 -91 1209 -44 
Q 966 3 703 97 
z
M 1959 2075 
Q 2384 2075 2632 2365 
Q 2881 2656 2881 3163 
Q 2881 3666 2632 3958 
Q 2384 4250 1959 4250 
Q 1534 4250 1286 3958 
Q 1038 3666 1038 3163 
Q 1038 2656 1286 2365 
Q 1534 2075 1959 2075 
z
" id="DejaVuSans-39" transform="scale(0.015625)"/>
        <path d="M 2034 4250 
Q 1547 4250 1301 3770 
Q 1056 3291 1056 2328 
Q 1056 1369 1301 889 
Q 1547 409 2034 409 
Q 2525 409 2770 889 
Q 3016 1369 3016 2328 
Q 3016 3291 2770 3770 
Q 2525 4250 2034 4250 
z
M 2034 4750 
Q 2819 4750 3233 4129 
Q 3647 3509 3647 2328 
Q 3647 1150 3233 529 
Q 2819 -91 2034 -91 
Q 1250 -91 836 529 
Q 422 1150 422 2328 
Q 422 3509 836 4129 
Q 1250 4750 2034 4750 
z
" id="DejaVuSans-30" transform="scale(0.015625)"/>
       </defs>
       <use xlink:href="#DejaVuSans-37"/>
       <use x="63.623047" xlink:href="#DejaVuSans-39"/>
       <use x="127.246094" xlink:href="#DejaVuSans-30"/>
      </g>
     </g>
    </g>
    <g id="xtick_4">
     <g id="line2d_6">
      <g>
       <use style="stroke:#000000;stroke-width:0.8;" x="206.90605" xlink:href="#m8302dd1c60" y="211"/>
      </g>
     </g>
     <g id="text_4">
      <!-- 792 -->
      <g transform="translate(197.3623 225.598437)scale(0.1 -0.1)">
       <defs>
        <path d="M 1228 531 
L 3431 531 
L 3431 0 
L 469 0 
L 469 531 
Q 828 903 1448 1529 
Q 2069 2156 2228 2338 
Q 2531 2678 2651 2914 
Q 2772 3150 2772 3378 
Q 2772 3750 2511 3984 
Q 2250 4219 1831 4219 
Q 1534 4219 1204 4116 
Q 875 4013 500 3803 
L 500 4441 
Q 881 4594 1212 4672 
Q 1544 4750 1819 4750 
Q 2544 4750 2975 4387 
Q 3406 4025 3406 3419 
Q 3406 3131 3298 2873 
Q 3191 2616 2906 2266 
Q 2828 2175 2409 1742 
Q 1991 1309 1228 531 
z
" id="DejaVuSans-32" transform="scale(0.015625)"/>
       </defs>
       <use xlink:href="#DejaVuSans-37"/>
       <use x="63.623047" xlink:href="#DejaVuSans-39"/>
       <use x="127.246094" xlink:href="#DejaVuSans-32"/>
      </g>
     </g>
    </g>
    <g id="xtick_5">
     <g id="line2d_7">
      <g>
       <use style="stroke:#000000;stroke-width:0.8;" x="242.942119" xlink:href="#m8302dd1c60" y="211"/>
      </g>
     </g>
     <g id="text_5">
      <!-- 794 -->
      <g transform="translate(233.398369 225.598437)scale(0.1 -0.1)">
       <defs>
        <path d="M 2419 4116 
L 825 1625 
L 2419 1625 
L 2419 4116 
z
M 2253 4666 
L 3047 4666 
L 3047 1625 
L 3713 1625 
L 3713 1100 
L 3047 1100 
L 3047 0 
L 2419 0 
L 2419 1100 
L 313 1100 
L 313 1709 
L 2253 4666 
z
" id="DejaVuSans-34" transform="scale(0.015625)"/>
       </defs>
       <use xlink:href="#DejaVuSans-37"/>
       <use x="63.623047" xlink:href="#DejaVuSans-39"/>
       <use x="127.246094" xlink:href="#DejaVuSans-34"/>
      </g>
     </g>
    </g>
    <g id="xtick_6">
     <g id="line2d_8">
      <g>
       <use style="stroke:#000000;stroke-width:0.8;" x="278.978187" xlink:href="#m8302dd1c60" y="211"/>
      </g>
     </g>
     <g id="text_6">
      <!-- 796 -->
      <g transform="translate(269.434437 225.598437)scale(0.1 -0.1)">
       <use xlink:href="#DejaVuSans-37"/>
       <use x="63.623047" xlink:href="#DejaVuSans-39"/>
       <use x="127.246094" xlink:href="#DejaVuSans-36"/>
      </g>
     </g>
    </g>
    <g id="xtick_7">
     <g id="line2d_9">
      <g>
       <use style="stroke:#000000;stroke-width:0.8;" x="315.014256" xlink:href="#m8302dd1c60" y="211"/>
      </g>
     </g>
     <g id="text_7">
      <!-- 798 -->
      <g transform="translate(305.470506 225.598437)scale(0.1 -0.1)">
       <use xlink:href="#DejaVuSans-37"/>
       <use x="63.623047" xlink:href="#DejaVuSans-39"/>
       <use x="127.246094" xlink:href="#DejaVuSans-38"/>
      </g>
     </g>
    </g>
    <g id="text_8">
     <!-- m/z -->
     <g transform="translate(199.883594 239.276563)scale(0.1 -0.1)">
      <defs>
       <path d="M 3328 2828 
Q 3544 3216 3844 3400 
Q 4144 3584 4550 3584 
Q 5097 3584 5394 3201 
Q 5691 2819 5691 2113 
L 5691 0 
L 5113 0 
L 5113 2094 
Q 5113 2597 4934 2840 
Q 4756 3084 4391 3084 
Q 3944 3084 3684 2787 
Q 3425 2491 3425 1978 
L 3425 0 
L 2847 0 
L 2847 2094 
Q 2847 2600 2669 2842 
Q 2491 3084 2119 3084 
Q 1678 3084 1418 2786 
Q 1159 2488 1159 1978 
L 1159 0 
L 581 0 
L 581 3500 
L 1159 3500 
L 1159 2956 
Q 1356 3278 1631 3431 
Q 1906 3584 2284 3584 
Q 2666 3584 2933 3390 
Q 3200 3197 3328 2828 
z
" id="DejaVuSans-6d" transform="scale(0.015625)"/>
       <path d="M 1625 4666 
L 2156 4666 
L 531 -594 
L 0 -594 
L 1625 4666 
z
" id="DejaVuSans-2f" transform="scale(0.015625)"/>
       <path d="M 353 3500 
L 3084 3500 
L 3084 2975 
L 922 459 
L 3084 459 
L 3084 0 
L 275 0 
L 275 525 
L 2438 3041 
L 353 3041 
L 353 3500 
z
" id="DejaVuSans-7a" transform="scale(0.015625)"/>
      </defs>
      <use xlink:href="#DejaVuSans-6d"/>
      <use x="97.412109" xlink:href="#DejaVuSans-2f"/>
      <use x="131.103516" xlink:href="#DejaVuSans-7a"/>
     </g>
    </g>
   </g>
   <g id="matplotlib.axis_2">
    <g id="ytick_1">
     <g id="line2d_10">
      <defs>
       <path d="M 0 0 
L -3.5 0 
" id="m655a5d343a" style="stroke:#000000;stroke-width:0.8;"/>
      </defs>
      <g>
       <use style="stroke:#000000;stroke-width:0.8;" x="68.925" xlink:href="#m655a5d343a" y="202.627273"/>
      </g>
     </g>
     <g id="text_9">
      <!-- 0.00 -->
      <g transform="translate(39.659375 206.426491)scale(0.1 -0.1)">
       <defs>
        <path d="M 684 794 
L 1344 794 
L 1344 0 
L 684 0 
L 684 794 
z
" id="DejaVuSans-2e" transform="scale(0.015625)"/>
       </defs>
       <use xlink:href="#DejaVuSans-30"/>
       <use x="63.623047" xlink:href="#DejaVuSans-2e"/>
       <use x="95.410156" xlink:href="#DejaVuSans-30"/>
       <use x="159.033203" xlink:href="#DejaVuSans-30"/>
      </g>
     </g>
    </g>
    <g id="ytick_2">
     <g id="line2d_11">
      <g>
       <use style="stroke:#000000;stroke-width:0.8;" x="68.925" xlink:href="#m655a5d343a" y="177.55801"/>
      </g>
     </g>
     <g id="text_10">
      <!-- 0.02 -->
      <g transform="translate(39.659375 181.357228)scale(0.1 -0.1)">
       <use xlink:href="#DejaVuSans-30"/>
       <use x="63.623047" xlink:href="#DejaVuSans-2e"/>
       <use x="95.410156" xlink:href="#DejaVuSans-30"/>
       <use x="159.033203" xlink:href="#DejaVuSans-32"/>
      </g>
     </g>
    </g>
    <g id="ytick_3">
     <g id="line2d_12">
      <g>
       <use style="stroke:#000000;stroke-width:0.8;" x="68.925" xlink:href="#m655a5d343a" y="152.488747"/>
      </g>
     </g>
     <g id="text_11">
      <!-- 0.04 -->
      <g transform="translate(39.659375 156.287965)scale(0.1 -0.1)">
       <use xlink:href="#DejaVuSans-30"/>
       <use x="63.623047" xlink:href="#DejaVuSans-2e"/>
       <use x="95.410156" xlink:href="#DejaVuSans-30"/>
       <use x="159.033203" xlink:href="#DejaVuSans-34"/>
      </g>
     </g>
    </g>
    <g id="ytick_4">
     <g id="line2d_13">
      <g>
       <use style="stroke:#000000;stroke-width:0.8;" x="68.925" xlink:href="#m655a5d343a" y="127.419484"/>
      </g>
     </g>
     <g id="text_12">
      <!-- 0.06 -->
      <g transform="translate(39.659375 131.218702)scale(0.1 -0.1)">
       <use xlink:href="#DejaVuSans-30"/>
       <use x="63.623047" xlink:href="#DejaVuSans-2e"/>
       <use x="95.410156" xlink:href="#DejaVuSans-30"/>
       <use x="159.033203" xlink:href="#DejaVuSans-36"/>
      </g>
     </g>
    </g>
    <g id="ytick_5">
     <g id="line2d_14">
      <g>
       <use style="stroke:#000000;stroke-width:0.8;" x="68.925" xlink:href="#m655a5d343a" y="102.350221"/>
      </g>
     </g>
     <g id="text_13">
      <!-- 0.08 -->
      <g transform="translate(39.659375 106.149439)scale(0.1 -0.1)">
       <use xlink:href="#DejaVuSans-30"/>
       <use x="63.623047" xlink:href="#DejaVuSans-2e"/>
       <use x="95.410156" xlink:href="#DejaVuSans-30"/>
       <use x="159.033203" xlink:href="#DejaVuSans-38"/>
      </g>
     </g>
    </g>
    <g id="ytick_6">
     <g id="line2d_15">
      <g>
       <use style="stroke:#000000;stroke-width:0.8;" x="68.925" xlink:href="#m655a5d343a" y="77.280958"/>
      </g>
     </g>
     <g id="text_14">
      <!-- 0.10 -->
      <g transform="translate(39.659375 81.080176)scale(0.1 -0.1)">
       <defs>
        <path d="M 794 531 
L 1825 531 
L 1825 4091 
L 703 3866 
L 703 4441 
L 1819 4666 
L 2450 4666 
L 2450 531 
L 3481 531 
L 3481 0 
L 794 0 
L 794 531 
z
" id="DejaVuSans-31" transform="scale(0.015625)"/>
       </defs>
       <use xlink:href="#DejaVuSans-30"/>
       <use x="63.623047" xlink:href="#DejaVuSans-2e"/>
       <use x="95.410156" xlink:href="#DejaVuSans-31"/>
       <use x="159.033203" xlink:href="#DejaVuSans-30"/>
      </g>
     </g>
    </g>
    <g id="ytick_7">
     <g id="line2d_16">
      <g>
       <use style="stroke:#000000;stroke-width:0.8;" x="68.925" xlink:href="#m655a5d343a" y="52.211694"/>
      </g>
     </g>
     <g id="text_15">
      <!-- 0.12 -->
      <g transform="translate(39.659375 56.010913)scale(0.1 -0.1)">
       <use xlink:href="#DejaVuSans-30"/>
       <use x="63.623047" xlink:href="#DejaVuSans-2e"/>
       <use x="95.410156" xlink:href="#DejaVuSans-31"/>
       <use x="159.033203" xlink:href="#DejaVuSans-32"/>
      </g>
     </g>
    </g>
    <g id="ytick_8">
     <g id="line2d_17">
      <g>
       <use style="stroke:#000000;stroke-width:0.8;" x="68.925" xlink:href="#m655a5d343a" y="27.142431"/>
      </g>
     </g>
     <g id="text_16">
      <!-- 0.14 -->
      <g transform="translate(39.659375 30.94165)scale(0.1 -0.1)">
       <use xlink:href="#DejaVuSans-30"/>
       <use x="63.623047" xlink:href="#DejaVuSans-2e"/>
       <use x="95.410156" xlink:href="#DejaVuSans-31"/>
       <use x="159.033203" xlink:href="#DejaVuSans-34"/>
      </g>
     </g>
    </g>
    <g id="text_17">
     <!-- Normalized Intensity -->
     <g transform="translate(33.579687 170.607031)rotate(-90)scale(0.1 -0.1)">
      <defs>
       <path d="M 628 4666 
L 1478 4666 
L 3547 763 
L 3547 4666 
L 4159 4666 
L 4159 0 
L 3309 0 
L 1241 3903 
L 1241 0 
L 628 0 
L 628 4666 
z
" id="DejaVuSans-4e" transform="scale(0.015625)"/>
       <path d="M 1959 3097 
Q 1497 3097 1228 2736 
Q 959 2375 959 1747 
Q 959 1119 1226 758 
Q 1494 397 1959 397 
Q 2419 397 2687 759 
Q 2956 1122 2956 1747 
Q 2956 2369 2687 2733 
Q 2419 3097 1959 3097 
z
M 1959 3584 
Q 2709 3584 3137 3096 
Q 3566 2609 3566 1747 
Q 3566 888 3137 398 
Q 2709 -91 1959 -91 
Q 1206 -91 779 398 
Q 353 888 353 1747 
Q 353 2609 779 3096 
Q 1206 3584 1959 3584 
z
" id="DejaVuSans-6f" transform="scale(0.015625)"/>
       <path d="M 2631 2963 
Q 2534 3019 2420 3045 
Q 2306 3072 2169 3072 
Q 1681 3072 1420 2755 
Q 1159 2438 1159 1844 
L 1159 0 
L 581 0 
L 581 3500 
L 1159 3500 
L 1159 2956 
Q 1341 3275 1631 3429 
Q 1922 3584 2338 3584 
Q 2397 3584 2469 3576 
Q 2541 3569 2628 3553 
L 2631 2963 
z
" id="DejaVuSans-72" transform="scale(0.015625)"/>
       <path d="M 2194 1759 
Q 1497 1759 1228 1600 
Q 959 1441 959 1056 
Q 959 750 1161 570 
Q 1363 391 1709 391 
Q 2188 391 2477 730 
Q 2766 1069 2766 1631 
L 2766 1759 
L 2194 1759 
z
M 3341 1997 
L 3341 0 
L 2766 0 
L 2766 531 
Q 2569 213 2275 61 
Q 1981 -91 1556 -91 
Q 1019 -91 701 211 
Q 384 513 384 1019 
Q 384 1609 779 1909 
Q 1175 2209 1959 2209 
L 2766 2209 
L 2766 2266 
Q 2766 2663 2505 2880 
Q 2244 3097 1772 3097 
Q 1472 3097 1187 3025 
Q 903 2953 641 2809 
L 641 3341 
Q 956 3463 1253 3523 
Q 1550 3584 1831 3584 
Q 2591 3584 2966 3190 
Q 3341 2797 3341 1997 
z
" id="DejaVuSans-61" transform="scale(0.015625)"/>
       <path d="M 603 4863 
L 1178 4863 
L 1178 0 
L 603 0 
L 603 4863 
z
" id="DejaVuSans-6c" transform="scale(0.015625)"/>
       <path d="M 603 3500 
L 1178 3500 
L 1178 0 
L 603 0 
L 603 3500 
z
M 603 4863 
L 1178 4863 
L 1178 4134 
L 603 4134 
L 603 4863 
z
" id="DejaVuSans-69" transform="scale(0.015625)"/>
       <path d="M 3597 1894 
L 3597 1613 
L 953 1613 
Q 991 1019 1311 708 
Q 1631 397 2203 397 
Q 2534 397 2845 478 
Q 3156 559 3463 722 
L 3463 178 
Q 3153 47 2828 -22 
Q 2503 -91 2169 -91 
Q 1331 -91 842 396 
Q 353 884 353 1716 
Q 353 2575 817 3079 
Q 1281 3584 2069 3584 
Q 2775 3584 3186 3129 
Q 3597 2675 3597 1894 
z
M 3022 2063 
Q 3016 2534 2758 2815 
Q 2500 3097 2075 3097 
Q 1594 3097 1305 2825 
Q 1016 2553 972 2059 
L 3022 2063 
z
" id="DejaVuSans-65" transform="scale(0.015625)"/>
       <path d="M 2906 2969 
L 2906 4863 
L 3481 4863 
L 3481 0 
L 2906 0 
L 2906 525 
Q 2725 213 2448 61 
Q 2172 -91 1784 -91 
Q 1150 -91 751 415 
Q 353 922 353 1747 
Q 353 2572 751 3078 
Q 1150 3584 1784 3584 
Q 2172 3584 2448 3432 
Q 2725 3281 2906 2969 
z
M 947 1747 
Q 947 1113 1208 752 
Q 1469 391 1925 391 
Q 2381 391 2643 752 
Q 2906 1113 2906 1747 
Q 2906 2381 2643 2742 
Q 2381 3103 1925 3103 
Q 1469 3103 1208 2742 
Q 947 2381 947 1747 
z
" id="DejaVuSans-64" transform="scale(0.015625)"/>
       <path id="DejaVuSans-20" transform="scale(0.015625)"/>
       <path d="M 628 4666 
L 1259 4666 
L 1259 0 
L 628 0 
L 628 4666 
z
" id="DejaVuSans-49" transform="scale(0.015625)"/>
       <path d="M 3513 2113 
L 3513 0 
L 2938 0 
L 2938 2094 
Q 2938 2591 2744 2837 
Q 2550 3084 2163 3084 
Q 1697 3084 1428 2787 
Q 1159 2491 1159 1978 
L 1159 0 
L 581 0 
L 581 3500 
L 1159 3500 
L 1159 2956 
Q 1366 3272 1645 3428 
Q 1925 3584 2291 3584 
Q 2894 3584 3203 3211 
Q 3513 2838 3513 2113 
z
" id="DejaVuSans-6e" transform="scale(0.015625)"/>
       <path d="M 1172 4494 
L 1172 3500 
L 2356 3500 
L 2356 3053 
L 1172 3053 
L 1172 1153 
Q 1172 725 1289 603 
Q 1406 481 1766 481 
L 2356 481 
L 2356 0 
L 1766 0 
Q 1100 0 847 248 
Q 594 497 594 1153 
L 594 3053 
L 172 3053 
L 172 3500 
L 594 3500 
L 594 4494 
L 1172 4494 
z
" id="DejaVuSans-74" transform="scale(0.015625)"/>
       <path d="M 2834 3397 
L 2834 2853 
Q 2591 2978 2328 3040 
Q 2066 3103 1784 3103 
Q 1356 3103 1142 2972 
Q 928 2841 928 2578 
Q 928 2378 1081 2264 
Q 1234 2150 1697 2047 
L 1894 2003 
Q 2506 1872 2764 1633 
Q 3022 1394 3022 966 
Q 3022 478 2636 193 
Q 2250 -91 1575 -91 
Q 1294 -91 989 -36 
Q 684 19 347 128 
L 347 722 
Q 666 556 975 473 
Q 1284 391 1588 391 
Q 1994 391 2212 530 
Q 2431 669 2431 922 
Q 2431 1156 2273 1281 
Q 2116 1406 1581 1522 
L 1381 1569 
Q 847 1681 609 1914 
Q 372 2147 372 2553 
Q 372 3047 722 3315 
Q 1072 3584 1716 3584 
Q 2034 3584 2315 3537 
Q 2597 3491 2834 3397 
z
" id="DejaVuSans-73" transform="scale(0.015625)"/>
       <path d="M 2059 -325 
Q 1816 -950 1584 -1140 
Q 1353 -1331 966 -1331 
L 506 -1331 
L 506 -850 
L 844 -850 
Q 1081 -850 1212 -737 
Q 1344 -625 1503 -206 
L 1606 56 
L 191 3500 
L 800 3500 
L 1894 763 
L 2988 3500 
L 3597 3500 
L 2059 -325 
z
" id="DejaVuSans-79" transform="scale(0.015625)"/>
      </defs>
      <use xlink:href="#DejaVuSans-4e"/>
      <use x="74.804688" xlink:href="#DejaVuSans-6f"/>
      <use x="135.986328" xlink:href="#DejaVuSans-72"/>
      <use x="175.349609" xlink:href="#DejaVuSans-6d"/>
      <use x="272.761719" xlink:href="#DejaVuSans-61"/>
      <use x="334.041016" xlink:href="#DejaVuSans-6c"/>
      <use x="361.824219" xlink:href="#DejaVuSans-69"/>
      <use x="389.607422" xlink:href="#DejaVuSans-7a"/>
      <use x="442.097656" xlink:href="#DejaVuSans-65"/>
      <use x="503.621094" xlink:href="#DejaVuSans-64"/>
      <use x="567.097656" xlink:href="#DejaVuSans-20"/>
      <use x="598.884766" xlink:href="#DejaVuSans-49"/>
      <use x="628.376953" xlink:href="#DejaVuSans-6e"/>
      <use x="691.755859" xlink:href="#DejaVuSans-74"/>
      <use x="730.964844" xlink:href="#DejaVuSans-65"/>
      <use x="792.488281" xlink:href="#DejaVuSans-6e"/>
      <use x="855.867188" xlink:href="#DejaVuSans-73"/>
      <use x="907.966797" xlink:href="#DejaVuSans-69"/>
      <use x="935.75" xlink:href="#DejaVuSans-74"/>
      <use x="974.958984" xlink:href="#DejaVuSans-79"/>
     </g>
    </g>
   </g>
   <g id="line2d_18">
    <path clip-path="url(#p5534a3fad6)" d="M 95.952051 35.172727 
L 104.991294 40.394147 
L 114.030536 116.684063 
L 123.082941 164.717367 
L 132.135345 174.481751 
L 141.200912 160.736893 
L 150.266479 139.598042 
L 159.332045 126.15364 
L 168.397612 127.893736 
L 177.463179 138.238469 
L 186.528745 141.34117 
L 195.594312 127.574707 
L 204.659879 107.295918 
L 213.725446 105.224738 
L 222.791012 131.772053 
L 231.856579 167.247206 
L 240.922146 189.302038 
L 249.987713 198.57894 
L 259.053279 201.589638 
L 268.118846 202.39593 
" style="fill:none;stroke:#1f77b4;stroke-linecap:square;stroke-opacity:0.5;stroke-width:1.5;"/>
   </g>
   <g id="patch_3">
    <path d="M 68.925 211 
L 68.925 26.8 
" style="fill:none;stroke:#000000;stroke-linecap:square;stroke-linejoin:miter;stroke-width:0.8;"/>
   </g>
   <g id="patch_4">
    <path d="M 349.2 211 
L 349.2 26.8 
" style="fill:none;stroke:#000000;stroke-linecap:square;stroke-linejoin:miter;stroke-width:0.8;"/>
   </g>
   <g id="patch_5">
    <path d="M 68.925 211 
L 349.2 211 
" style="fill:none;stroke:#000000;stroke-linecap:square;stroke-linejoin:miter;stroke-width:0.8;"/>
   </g>
   <g id="patch_6">
    <path d="M 68.925 26.8 
L 349.2 26.8 
" style="fill:none;stroke:#000000;stroke-linecap:square;stroke-linejoin:miter;stroke-width:0.8;"/>
   </g>
   <g id="text_18">
    <!-- GluFib_HI: 0001-0014 EGVNDNEEGFFSAR z=2 -->
    <g transform="translate(71.363438 20.8)scale(0.12 -0.12)">
     <defs>
      <path d="M 3809 666 
L 3809 1919 
L 2778 1919 
L 2778 2438 
L 4434 2438 
L 4434 434 
Q 4069 175 3628 42 
Q 3188 -91 2688 -91 
Q 1594 -91 976 548 
Q 359 1188 359 2328 
Q 359 3472 976 4111 
Q 1594 4750 2688 4750 
Q 3144 4750 3555 4637 
Q 3966 4525 4313 4306 
L 4313 3634 
Q 3963 3931 3569 4081 
Q 3175 4231 2741 4231 
Q 1884 4231 1454 3753 
Q 1025 3275 1025 2328 
Q 1025 1384 1454 906 
Q 1884 428 2741 428 
Q 3075 428 3337 486 
Q 3600 544 3809 666 
z
" id="DejaVuSans-47" transform="scale(0.015625)"/>
      <path d="M 544 1381 
L 544 3500 
L 1119 3500 
L 1119 1403 
Q 1119 906 1312 657 
Q 1506 409 1894 409 
Q 2359 409 2629 706 
Q 2900 1003 2900 1516 
L 2900 3500 
L 3475 3500 
L 3475 0 
L 2900 0 
L 2900 538 
Q 2691 219 2414 64 
Q 2138 -91 1772 -91 
Q 1169 -91 856 284 
Q 544 659 544 1381 
z
M 1991 3584 
L 1991 3584 
z
" id="DejaVuSans-75" transform="scale(0.015625)"/>
      <path d="M 628 4666 
L 3309 4666 
L 3309 4134 
L 1259 4134 
L 1259 2759 
L 3109 2759 
L 3109 2228 
L 1259 2228 
L 1259 0 
L 628 0 
L 628 4666 
z
" id="DejaVuSans-46" transform="scale(0.015625)"/>
      <path d="M 3116 1747 
Q 3116 2381 2855 2742 
Q 2594 3103 2138 3103 
Q 1681 3103 1420 2742 
Q 1159 2381 1159 1747 
Q 1159 1113 1420 752 
Q 1681 391 2138 391 
Q 2594 391 2855 752 
Q 3116 1113 3116 1747 
z
M 1159 2969 
Q 1341 3281 1617 3432 
Q 1894 3584 2278 3584 
Q 2916 3584 3314 3078 
Q 3713 2572 3713 1747 
Q 3713 922 3314 415 
Q 2916 -91 2278 -91 
Q 1894 -91 1617 61 
Q 1341 213 1159 525 
L 1159 0 
L 581 0 
L 581 4863 
L 1159 4863 
L 1159 2969 
z
" id="DejaVuSans-62" transform="scale(0.015625)"/>
      <path d="M 3263 -1063 
L 3263 -1509 
L -63 -1509 
L -63 -1063 
L 3263 -1063 
z
" id="DejaVuSans-5f" transform="scale(0.015625)"/>
      <path d="M 628 4666 
L 1259 4666 
L 1259 2753 
L 3553 2753 
L 3553 4666 
L 4184 4666 
L 4184 0 
L 3553 0 
L 3553 2222 
L 1259 2222 
L 1259 0 
L 628 0 
L 628 4666 
z
" id="DejaVuSans-48" transform="scale(0.015625)"/>
      <path d="M 750 794 
L 1409 794 
L 1409 0 
L 750 0 
L 750 794 
z
M 750 3309 
L 1409 3309 
L 1409 2516 
L 750 2516 
L 750 3309 
z
" id="DejaVuSans-3a" transform="scale(0.015625)"/>
      <path d="M 313 2009 
L 1997 2009 
L 1997 1497 
L 313 1497 
L 313 2009 
z
" id="DejaVuSans-2d" transform="scale(0.015625)"/>
      <path d="M 628 4666 
L 3578 4666 
L 3578 4134 
L 1259 4134 
L 1259 2753 
L 3481 2753 
L 3481 2222 
L 1259 2222 
L 1259 531 
L 3634 531 
L 3634 0 
L 628 0 
L 628 4666 
z
" id="DejaVuSans-45" transform="scale(0.015625)"/>
      <path d="M 1831 0 
L 50 4666 
L 709 4666 
L 2188 738 
L 3669 4666 
L 4325 4666 
L 2547 0 
L 1831 0 
z
" id="DejaVuSans-56" transform="scale(0.015625)"/>
      <path d="M 1259 4147 
L 1259 519 
L 2022 519 
Q 2988 519 3436 956 
Q 3884 1394 3884 2338 
Q 3884 3275 3436 3711 
Q 2988 4147 2022 4147 
L 1259 4147 
z
M 628 4666 
L 1925 4666 
Q 3281 4666 3915 4102 
Q 4550 3538 4550 2338 
Q 4550 1131 3912 565 
Q 3275 0 1925 0 
L 628 0 
L 628 4666 
z
" id="DejaVuSans-44" transform="scale(0.015625)"/>
      <path d="M 3425 4513 
L 3425 3897 
Q 3066 4069 2747 4153 
Q 2428 4238 2131 4238 
Q 1616 4238 1336 4038 
Q 1056 3838 1056 3469 
Q 1056 3159 1242 3001 
Q 1428 2844 1947 2747 
L 2328 2669 
Q 3034 2534 3370 2195 
Q 3706 1856 3706 1288 
Q 3706 609 3251 259 
Q 2797 -91 1919 -91 
Q 1588 -91 1214 -16 
Q 841 59 441 206 
L 441 856 
Q 825 641 1194 531 
Q 1563 422 1919 422 
Q 2459 422 2753 634 
Q 3047 847 3047 1241 
Q 3047 1584 2836 1778 
Q 2625 1972 2144 2069 
L 1759 2144 
Q 1053 2284 737 2584 
Q 422 2884 422 3419 
Q 422 4038 858 4394 
Q 1294 4750 2059 4750 
Q 2388 4750 2728 4690 
Q 3069 4631 3425 4513 
z
" id="DejaVuSans-53" transform="scale(0.015625)"/>
      <path d="M 2188 4044 
L 1331 1722 
L 3047 1722 
L 2188 4044 
z
M 1831 4666 
L 2547 4666 
L 4325 0 
L 3669 0 
L 3244 1197 
L 1141 1197 
L 716 0 
L 50 0 
L 1831 4666 
z
" id="DejaVuSans-41" transform="scale(0.015625)"/>
      <path d="M 2841 2188 
Q 3044 2119 3236 1894 
Q 3428 1669 3622 1275 
L 4263 0 
L 3584 0 
L 2988 1197 
Q 2756 1666 2539 1819 
Q 2322 1972 1947 1972 
L 1259 1972 
L 1259 0 
L 628 0 
L 628 4666 
L 2053 4666 
Q 2853 4666 3247 4331 
Q 3641 3997 3641 3322 
Q 3641 2881 3436 2590 
Q 3231 2300 2841 2188 
z
M 1259 4147 
L 1259 2491 
L 2053 2491 
Q 2509 2491 2742 2702 
Q 2975 2913 2975 3322 
Q 2975 3731 2742 3939 
Q 2509 4147 2053 4147 
L 1259 4147 
z
" id="DejaVuSans-52" transform="scale(0.015625)"/>
      <path d="M 678 2906 
L 4684 2906 
L 4684 2381 
L 678 2381 
L 678 2906 
z
M 678 1631 
L 4684 1631 
L 4684 1100 
L 678 1100 
L 678 1631 
z
" id="DejaVuSans-3d" transform="scale(0.015625)"/>
     </defs>
     <use xlink:href="#DejaVuSans-47"/>
     <use x="77.490234" xlink:href="#DejaVuSans-6c"/>
     <use x="105.273438" xlink:href="#DejaVuSans-75"/>
     <use x="168.652344" xlink:href="#DejaVuSans-46"/>
     <use x="218.921875" xlink:href="#DejaVuSans-69"/>
     <use x="246.705078" xlink:href="#DejaVuSans-62"/>
     <use x="310.181641" xlink:href="#DejaVuSans-5f"/>
     <use x="360.181641" xlink:href="#DejaVuSans-48"/>
     <use x="435.376953" xlink:href="#DejaVuSans-49"/>
     <use x="464.869141" xlink:href="#DejaVuSans-3a"/>
     <use x="498.560547" xlink:href="#DejaVuSans-20"/>
     <use x="530.347656" xlink:href="#DejaVuSans-30"/>
     <use x="593.970703" xlink:href="#DejaVuSans-30"/>
     <use x="657.59375" xlink:href="#DejaVuSans-30"/>
     <use x="721.216797" xlink:href="#DejaVuSans-31"/>
     <use x="784.839844" xlink:href="#DejaVuSans-2d"/>
     <use x="820.923828" xlink:href="#DejaVuSans-30"/>
     <use x="884.546875" xlink:href="#DejaVuSans-30"/>
     <use x="948.169922" xlink:href="#DejaVuSans-31"/>
     <use x="1011.792969" xlink:href="#DejaVuSans-34"/>
     <use x="1075.416016" xlink:href="#DejaVuSans-20"/>
     <use x="1107.203125" xlink:href="#DejaVuSans-45"/>
     <use x="1170.386719" xlink:href="#DejaVuSans-47"/>
     <use x="1247.876953" xlink:href="#DejaVuSans-56"/>
     <use x="1316.285156" xlink:href="#DejaVuSans-4e"/>
     <use x="1391.089844" xlink:href="#DejaVuSans-44"/>
     <use x="1468.091797" xlink:href="#DejaVuSans-4e"/>
     <use x="1542.896484" xlink:href="#DejaVuSans-45"/>
     <use x="1606.080078" xlink:href="#DejaVuSans-45"/>
     <use x="1669.263672" xlink:href="#DejaVuSans-47"/>
     <use x="1746.753906" xlink:href="#DejaVuSans-46"/>
     <use x="1804.273438" xlink:href="#DejaVuSans-46"/>
     <use x="1860.042969" xlink:href="#DejaVuSans-53"/>
     <use x="1925.394531" xlink:href="#DejaVuSans-41"/>
     <use x="1993.802734" xlink:href="#DejaVuSans-52"/>
     <use x="2063.285156" xlink:href="#DejaVuSans-20"/>
     <use x="2095.072266" xlink:href="#DejaVuSans-7a"/>
     <use x="2147.5625" xlink:href="#DejaVuSans-3d"/>
     <use x="2231.351562" xlink:href="#DejaVuSans-32"/>
    </g>
   </g>
   <g id="legend_1">
    <g id="line2d_19"/>
    <g id="line2d_20">
     <g>
      <use style="fill:#ff0000;stroke:#ff0000;" x="254.115625" xlink:href="#m0cfb6684f7" y="39.898438"/>
     </g>
    </g>
    <g id="text_19">
     <!-- Exp 20 -->
     <g transform="translate(272.115625 43.398438)scale(0.1 -0.1)">
      <defs>
       <path d="M 3513 3500 
L 2247 1797 
L 3578 0 
L 2900 0 
L 1881 1375 
L 863 0 
L 184 0 
L 1544 1831 
L 300 3500 
L 978 3500 
L 1906 2253 
L 2834 3500 
L 3513 3500 
z
" id="DejaVuSans-78" transform="scale(0.015625)"/>
       <path d="M 1159 525 
L 1159 -1331 
L 581 -1331 
L 581 3500 
L 1159 3500 
L 1159 2969 
Q 1341 3281 1617 3432 
Q 1894 3584 2278 3584 
Q 2916 3584 3314 3078 
Q 3713 2572 3713 1747 
Q 3713 922 3314 415 
Q 2916 -91 2278 -91 
Q 1894 -91 1617 61 
Q 1341 213 1159 525 
z
M 3116 1747 
Q 3116 2381 2855 2742 
Q 2594 3103 2138 3103 
Q 1681 3103 1420 2742 
Q 1159 2381 1159 1747 
Q 1159 1113 1420 752 
Q 1681 391 2138 391 
Q 2594 391 2855 752 
Q 3116 1113 3116 1747 
z
" id="DejaVuSans-70" transform="scale(0.015625)"/>
      </defs>
      <use xlink:href="#DejaVuSans-45"/>
      <use x="63.183594" xlink:href="#DejaVuSans-78"/>
      <use x="122.363281" xlink:href="#DejaVuSans-70"/>
      <use x="185.839844" xlink:href="#DejaVuSans-20"/>
      <use x="217.626953" xlink:href="#DejaVuSans-32"/>
      <use x="281.25" xlink:href="#DejaVuSans-30"/>
     </g>
    </g>
    <g id="line2d_21">
     <path d="M 244.115625 61.215312 
L 264.115625 61.215312 
" style="fill:none;stroke:#000000;stroke-linecap:square;"/>
    </g>
    <g id="line2d_22"/>
    <g id="text_20">
     <!-- pop1 = 0.36 -->
     <g transform="translate(272.115625 58.076562)scale(0.1 -0.1)">
      <defs>
       <path d="M 2597 2516 
Q 3050 2419 3304 2112 
Q 3559 1806 3559 1356 
Q 3559 666 3084 287 
Q 2609 -91 1734 -91 
Q 1441 -91 1130 -33 
Q 819 25 488 141 
L 488 750 
Q 750 597 1062 519 
Q 1375 441 1716 441 
Q 2309 441 2620 675 
Q 2931 909 2931 1356 
Q 2931 1769 2642 2001 
Q 2353 2234 1838 2234 
L 1294 2234 
L 1294 2753 
L 1863 2753 
Q 2328 2753 2575 2939 
Q 2822 3125 2822 3475 
Q 2822 3834 2567 4026 
Q 2313 4219 1838 4219 
Q 1578 4219 1281 4162 
Q 984 4106 628 3988 
L 628 4550 
Q 988 4650 1302 4700 
Q 1616 4750 1894 4750 
Q 2613 4750 3031 4423 
Q 3450 4097 3450 3541 
Q 3450 3153 3228 2886 
Q 3006 2619 2597 2516 
z
" id="DejaVuSans-33" transform="scale(0.015625)"/>
      </defs>
      <use xlink:href="#DejaVuSans-70"/>
      <use x="63.476562" xlink:href="#DejaVuSans-6f"/>
      <use x="124.658203" xlink:href="#DejaVuSans-70"/>
      <use x="188.134766" xlink:href="#DejaVuSans-31"/>
      <use x="251.757812" xlink:href="#DejaVuSans-20"/>
      <use x="283.544922" xlink:href="#DejaVuSans-3d"/>
      <use x="367.333984" xlink:href="#DejaVuSans-20"/>
      <use x="399.121094" xlink:href="#DejaVuSans-30"/>
      <use x="462.744141" xlink:href="#DejaVuSans-2e"/>
      <use x="494.53125" xlink:href="#DejaVuSans-33"/>
      <use x="558.154297" xlink:href="#DejaVuSans-36"/>
     </g>
     <!-- m/z = 786.37 -->
     <g transform="translate(272.115625 69.274375)scale(0.1 -0.1)">
      <use xlink:href="#DejaVuSans-6d"/>
      <use x="97.412109" xlink:href="#DejaVuSans-2f"/>
      <use x="131.103516" xlink:href="#DejaVuSans-7a"/>
      <use x="183.59375" xlink:href="#DejaVuSans-20"/>
      <use x="215.380859" xlink:href="#DejaVuSans-3d"/>
      <use x="299.169922" xlink:href="#DejaVuSans-20"/>
      <use x="330.957031" xlink:href="#DejaVuSans-37"/>
      <use x="394.580078" xlink:href="#DejaVuSans-38"/>
      <use x="458.203125" xlink:href="#DejaVuSans-36"/>
      <use x="521.826172" xlink:href="#DejaVuSans-2e"/>
      <use x="553.613281" xlink:href="#DejaVuSans-33"/>
      <use x="617.236328" xlink:href="#DejaVuSans-37"/>
     </g>
    </g>
    <g id="line2d_23">
     <path d="M 244.115625 87.09125 
L 264.115625 87.09125 
" style="fill:none;stroke:#000000;stroke-linecap:square;"/>
    </g>
    <g id="line2d_24"/>
    <g id="text_21">
     <!-- pop2 = 0.31 -->
     <g transform="translate(272.115625 83.9525)scale(0.1 -0.1)">
      <use xlink:href="#DejaVuSans-70"/>
      <use x="63.476562" xlink:href="#DejaVuSans-6f"/>
      <use x="124.658203" xlink:href="#DejaVuSans-70"/>
      <use x="188.134766" xlink:href="#DejaVuSans-32"/>
      <use x="251.757812" xlink:href="#DejaVuSans-20"/>
      <use x="283.544922" xlink:href="#DejaVuSans-3d"/>
      <use x="367.333984" xlink:href="#DejaVuSans-20"/>
      <use x="399.121094" xlink:href="#DejaVuSans-30"/>
      <use x="462.744141" xlink:href="#DejaVuSans-2e"/>
      <use x="494.53125" xlink:href="#DejaVuSans-33"/>
      <use x="558.154297" xlink:href="#DejaVuSans-31"/>
     </g>
     <!-- m/z = 789.54 -->
     <g transform="translate(272.115625 95.150312)scale(0.1 -0.1)">
      <defs>
       <path d="M 691 4666 
L 3169 4666 
L 3169 4134 
L 1269 4134 
L 1269 2991 
Q 1406 3038 1543 3061 
Q 1681 3084 1819 3084 
Q 2600 3084 3056 2656 
Q 3513 2228 3513 1497 
Q 3513 744 3044 326 
Q 2575 -91 1722 -91 
Q 1428 -91 1123 -41 
Q 819 9 494 109 
L 494 744 
Q 775 591 1075 516 
Q 1375 441 1709 441 
Q 2250 441 2565 725 
Q 2881 1009 2881 1497 
Q 2881 1984 2565 2268 
Q 2250 2553 1709 2553 
Q 1456 2553 1204 2497 
Q 953 2441 691 2322 
L 691 4666 
z
" id="DejaVuSans-35" transform="scale(0.015625)"/>
      </defs>
      <use xlink:href="#DejaVuSans-6d"/>
      <use x="97.412109" xlink:href="#DejaVuSans-2f"/>
      <use x="131.103516" xlink:href="#DejaVuSans-7a"/>
      <use x="183.59375" xlink:href="#DejaVuSans-20"/>
      <use x="215.380859" xlink:href="#DejaVuSans-3d"/>
      <use x="299.169922" xlink:href="#DejaVuSans-20"/>
      <use x="330.957031" xlink:href="#DejaVuSans-37"/>
      <use x="394.580078" xlink:href="#DejaVuSans-38"/>
      <use x="458.203125" xlink:href="#DejaVuSans-39"/>
      <use x="521.826172" xlink:href="#DejaVuSans-2e"/>
      <use x="553.613281" xlink:href="#DejaVuSans-35"/>
      <use x="617.236328" xlink:href="#DejaVuSans-34"/>
     </g>
    </g>
    <g id="line2d_25">
     <path d="M 244.115625 112.967188 
L 264.115625 112.967188 
" style="fill:none;stroke:#000000;stroke-linecap:square;"/>
    </g>
    <g id="line2d_26"/>
    <g id="text_22">
     <!-- pop3 = 0.33 -->
     <g transform="translate(272.115625 109.828438)scale(0.1 -0.1)">
      <use xlink:href="#DejaVuSans-70"/>
      <use x="63.476562" xlink:href="#DejaVuSans-6f"/>
      <use x="124.658203" xlink:href="#DejaVuSans-70"/>
      <use x="188.134766" xlink:href="#DejaVuSans-33"/>
      <use x="251.757812" xlink:href="#DejaVuSans-20"/>
      <use x="283.544922" xlink:href="#DejaVuSans-3d"/>
      <use x="367.333984" xlink:href="#DejaVuSans-20"/>
      <use x="399.121094" xlink:href="#DejaVuSans-30"/>
      <use x="462.744141" xlink:href="#DejaVuSans-2e"/>
      <use x="494.53125" xlink:href="#DejaVuSans-33"/>
      <use x="558.154297" xlink:href="#DejaVuSans-33"/>
     </g>
     <!-- m/z = 792.18 -->
     <g transform="translate(272.115625 121.02625)scale(0.1 -0.1)">
      <use xlink:href="#DejaVuSans-6d"/>
      <use x="97.412109" xlink:href="#DejaVuSans-2f"/>
      <use x="131.103516" xlink:href="#DejaVuSans-7a"/>
      <use x="183.59375" xlink:href="#DejaVuSans-20"/>
      <use x="215.380859" xlink:href="#DejaVuSans-3d"/>
      <use x="299.169922" xlink:href="#DejaVuSans-20"/>
      <use x="330.957031" xlink:href="#DejaVuSans-37"/>
      <use x="394.580078" xlink:href="#DejaVuSans-39"/>
      <use x="458.203125" xlink:href="#DejaVuSans-32"/>
      <use x="521.826172" xlink:href="#DejaVuSans-2e"/>
      <use x="553.613281" xlink:href="#DejaVuSans-31"/>
      <use x="617.236328" xlink:href="#DejaVuSans-38"/>
     </g>
    </g>
   </g>
   <g id="line2d_27">
    <path clip-path="url(#p5534a3fad6)" d="M 95.952051 35.188414 
L 104.991294 40.624832 
L 114.030536 118.255554 
L 123.082941 171.294299 
L 132.135345 193.394071 
L 141.200912 200.342351 
L 150.266479 202.13572 
L 159.332045 202.533187 
L 168.397612 202.610983 
L 177.463179 202.62469 
L 186.528745 202.626894 
L 195.594312 202.627221 
L 204.659879 202.627266 
L 213.725446 202.627272 
L 222.791012 202.627273 
L 231.856579 202.627273 
L 240.922146 202.627273 
L 249.987713 202.627273 
L 259.053279 202.627273 
L 268.118846 202.627273 
" style="fill:none;stroke:#000000;stroke-linecap:square;"/>
   </g>
   <g id="line2d_28">
    <path clip-path="url(#p5534a3fad6)" d="M 95.952051 202.611586 
L 104.991294 202.396588 
L 114.030536 201.055789 
L 123.082941 196.050475 
L 132.135345 183.716754 
L 141.200912 163.039524 
L 150.266479 140.221068 
L 159.332045 126.998129 
L 168.397612 131.229865 
L 177.463179 149.629841 
L 186.528745 171.429097 
L 195.594312 187.899595 
L 204.659879 196.958685 
L 213.725446 200.807873 
L 222.791012 202.128176 
L 231.856579 202.507731 
L 240.922146 202.601827 
L 249.987713 202.62239 
L 259.053279 202.626418 
L 268.118846 202.627135 
" style="fill:none;stroke:#000000;stroke-linecap:square;"/>
   </g>
   <g id="line2d_29">
    <path clip-path="url(#p5534a3fad6)" d="M 95.952051 202.627273 
L 104.991294 202.627273 
L 114.030536 202.627266 
L 123.082941 202.627139 
L 132.135345 202.625472 
L 141.200912 202.609564 
L 150.266479 202.495799 
L 159.332045 201.876869 
L 168.397612 199.307433 
L 177.463179 191.238484 
L 186.528745 172.539723 
L 195.594312 142.302437 
L 204.659879 112.964512 
L 213.725446 107.044138 
L 222.791012 132.271151 
L 231.856579 167.366748 
L 240.922146 189.327483 
L 249.987713 198.583822 
L 259.053279 201.590493 
L 268.118846 202.396068 
" style="fill:none;stroke:#000000;stroke-linecap:square;"/>
   </g>
  </g>
  <g id="axes_2">
   <g id="patch_7">
    <path d="M 68.925 318.2 
L 349.2 318.2 
L 349.2 256.8 
L 68.925 256.8 
z
" style="fill:#ffffff;"/>
   </g>
   <g id="matplotlib.axis_3">
    <g id="xtick_8">
     <g id="line2d_30">
      <g>
       <use style="stroke:#000000;stroke-width:0.8;" x="98.797845" xlink:href="#m8302dd1c60" y="318.2"/>
      </g>
     </g>
     <g id="text_23">
      <!-- 786 -->
      <g transform="translate(89.254095 332.798438)scale(0.1 -0.1)">
       <use xlink:href="#DejaVuSans-37"/>
       <use x="63.623047" xlink:href="#DejaVuSans-38"/>
       <use x="127.246094" xlink:href="#DejaVuSans-36"/>
      </g>
     </g>
    </g>
    <g id="xtick_9">
     <g id="line2d_31">
      <g>
       <use style="stroke:#000000;stroke-width:0.8;" x="134.833914" xlink:href="#m8302dd1c60" y="318.2"/>
      </g>
     </g>
     <g id="text_24">
      <!-- 788 -->
      <g transform="translate(125.290164 332.798438)scale(0.1 -0.1)">
       <use xlink:href="#DejaVuSans-37"/>
       <use x="63.623047" xlink:href="#DejaVuSans-38"/>
       <use x="127.246094" xlink:href="#DejaVuSans-38"/>
      </g>
     </g>
    </g>
    <g id="xtick_10">
     <g id="line2d_32">
      <g>
       <use style="stroke:#000000;stroke-width:0.8;" x="170.869982" xlink:href="#m8302dd1c60" y="318.2"/>
      </g>
     </g>
     <g id="text_25">
      <!-- 790 -->
      <g transform="translate(161.326232 332.798438)scale(0.1 -0.1)">
       <use xlink:href="#DejaVuSans-37"/>
       <use x="63.623047" xlink:href="#DejaVuSans-39"/>
       <use x="127.246094" xlink:href="#DejaVuSans-30"/>
      </g>
     </g>
    </g>
    <g id="xtick_11">
     <g id="line2d_33">
      <g>
       <use style="stroke:#000000;stroke-width:0.8;" x="206.90605" xlink:href="#m8302dd1c60" y="318.2"/>
      </g>
     </g>
     <g id="text_26">
      <!-- 792 -->
      <g transform="translate(197.3623 332.798438)scale(0.1 -0.1)">
       <use xlink:href="#DejaVuSans-37"/>
       <use x="63.623047" xlink:href="#DejaVuSans-39"/>
       <use x="127.246094" xlink:href="#DejaVuSans-32"/>
      </g>
     </g>
    </g>
    <g id="xtick_12">
     <g id="line2d_34">
      <g>
       <use style="stroke:#000000;stroke-width:0.8;" x="242.942119" xlink:href="#m8302dd1c60" y="318.2"/>
      </g>
     </g>
     <g id="text_27">
      <!-- 794 -->
      <g transform="translate(233.398369 332.798438)scale(0.1 -0.1)">
       <use xlink:href="#DejaVuSans-37"/>
       <use x="63.623047" xlink:href="#DejaVuSans-39"/>
       <use x="127.246094" xlink:href="#DejaVuSans-34"/>
      </g>
     </g>
    </g>
    <g id="xtick_13">
     <g id="line2d_35">
      <g>
       <use style="stroke:#000000;stroke-width:0.8;" x="278.978187" xlink:href="#m8302dd1c60" y="318.2"/>
      </g>
     </g>
     <g id="text_28">
      <!-- 796 -->
      <g transform="translate(269.434437 332.798438)scale(0.1 -0.1)">
       <use xlink:href="#DejaVuSans-37"/>
       <use x="63.623047" xlink:href="#DejaVuSans-39"/>
       <use x="127.246094" xlink:href="#DejaVuSans-36"/>
      </g>
     </g>
    </g>
    <g id="xtick_14">
     <g id="line2d_36">
      <g>
       <use style="stroke:#000000;stroke-width:0.8;" x="315.014256" xlink:href="#m8302dd1c60" y="318.2"/>
      </g>
     </g>
     <g id="text_29">
      <!-- 798 -->
      <g transform="translate(305.470506 332.798438)scale(0.1 -0.1)">
       <use xlink:href="#DejaVuSans-37"/>
       <use x="63.623047" xlink:href="#DejaVuSans-39"/>
       <use x="127.246094" xlink:href="#DejaVuSans-38"/>
      </g>
     </g>
    </g>
    <g id="text_30">
     <!-- m/z -->
     <g transform="translate(199.883594 346.476562)scale(0.1 -0.1)">
      <use xlink:href="#DejaVuSans-6d"/>
      <use x="97.412109" xlink:href="#DejaVuSans-2f"/>
      <use x="131.103516" xlink:href="#DejaVuSans-7a"/>
     </g>
    </g>
   </g>
   <g id="matplotlib.axis_4">
    <g id="ytick_9">
     <g id="line2d_37">
      <g>
       <use style="stroke:#000000;stroke-width:0.8;" x="68.925" xlink:href="#m655a5d343a" y="312.06"/>
      </g>
     </g>
     <g id="text_31">
      <!-- 0.02 -->
      <g transform="translate(31.279687 315.859219)scale(0.1 -0.1)">
       <defs>
        <path d="M 678 2272 
L 4684 2272 
L 4684 1741 
L 678 1741 
L 678 2272 
z
" id="DejaVuSans-2212" transform="scale(0.015625)"/>
       </defs>
       <use xlink:href="#DejaVuSans-2212"/>
       <use x="83.789062" xlink:href="#DejaVuSans-30"/>
       <use x="147.412109" xlink:href="#DejaVuSans-2e"/>
       <use x="179.199219" xlink:href="#DejaVuSans-30"/>
       <use x="242.822266" xlink:href="#DejaVuSans-32"/>
      </g>
     </g>
    </g>
    <g id="ytick_10">
     <g id="line2d_38">
      <g>
       <use style="stroke:#000000;stroke-width:0.8;" x="68.925" xlink:href="#m655a5d343a" y="287.5"/>
      </g>
     </g>
     <g id="text_32">
      <!-- 0.00 -->
      <g transform="translate(39.659375 291.299219)scale(0.1 -0.1)">
       <use xlink:href="#DejaVuSans-30"/>
       <use x="63.623047" xlink:href="#DejaVuSans-2e"/>
       <use x="95.410156" xlink:href="#DejaVuSans-30"/>
       <use x="159.033203" xlink:href="#DejaVuSans-30"/>
      </g>
     </g>
    </g>
    <g id="ytick_11">
     <g id="line2d_39">
      <g>
       <use style="stroke:#000000;stroke-width:0.8;" x="68.925" xlink:href="#m655a5d343a" y="262.94"/>
      </g>
     </g>
     <g id="text_33">
      <!-- 0.02 -->
      <g transform="translate(39.659375 266.739219)scale(0.1 -0.1)">
       <use xlink:href="#DejaVuSans-30"/>
       <use x="63.623047" xlink:href="#DejaVuSans-2e"/>
       <use x="95.410156" xlink:href="#DejaVuSans-30"/>
       <use x="159.033203" xlink:href="#DejaVuSans-32"/>
      </g>
     </g>
    </g>
    <g id="text_34">
     <!-- residual -->
     <g transform="translate(25.2 307.309375)rotate(-90)scale(0.1 -0.1)">
      <use xlink:href="#DejaVuSans-72"/>
      <use x="38.863281" xlink:href="#DejaVuSans-65"/>
      <use x="100.386719" xlink:href="#DejaVuSans-73"/>
      <use x="152.486328" xlink:href="#DejaVuSans-69"/>
      <use x="180.269531" xlink:href="#DejaVuSans-64"/>
      <use x="243.746094" xlink:href="#DejaVuSans-75"/>
      <use x="307.125" xlink:href="#DejaVuSans-61"/>
      <use x="368.404297" xlink:href="#DejaVuSans-6c"/>
     </g>
    </g>
   </g>
   <g id="line2d_40">
    <path clip-path="url(#pa32bbc0e8c)" d="M 95.952051 288.50778 
L 104.991294 284.738672 
L 114.030536 290.279519 
L 123.082941 288.784841 
L 132.135345 287.730064 
L 141.200912 288.795306 
L 150.266479 284.943273 
L 159.332045 286.955698 
L 168.397612 291.189381 
L 177.463179 285.063607 
L 186.528745 287.468743 
L 195.594312 286.999492 
L 204.659879 289.036085 
L 213.725446 286.637545 
L 222.791012 286.926142 
L 231.856579 288.221051 
L 240.922146 288.037469 
L 249.987713 287.576946 
L 259.053279 287.016242 
L 268.118846 287.726643 
" style="fill:none;stroke:#0000ff;stroke-linecap:square;stroke-opacity:0.5;stroke-width:1.5;"/>
   </g>
   <g id="patch_8">
    <path d="M 68.925 318.2 
L 68.925 256.8 
" style="fill:none;stroke:#000000;stroke-linecap:square;stroke-linejoin:miter;stroke-width:0.8;"/>
   </g>
   <g id="patch_9">
    <path d="M 349.2 318.2 
L 349.2 256.8 
" style="fill:none;stroke:#000000;stroke-linecap:square;stroke-linejoin:miter;stroke-width:0.8;"/>
   </g>
   <g id="patch_10">
    <path d="M 68.925 318.2 
L 349.2 318.2 
" style="fill:none;stroke:#000000;stroke-linecap:square;stroke-linejoin:miter;stroke-width:0.8;"/>
   </g>
   <g id="patch_11">
    <path d="M 68.925 256.8 
L 349.2 256.8 
" style="fill:none;stroke:#000000;stroke-linecap:square;stroke-linejoin:miter;stroke-width:0.8;"/>
   </g>
   <g id="legend_2">
    <g id="line2d_41">
     <path d="M 231.820312 269.898438 
L 251.820312 269.898438 
" style="fill:none;stroke:#0000ff;stroke-linecap:square;stroke-opacity:0.5;stroke-width:1.5;"/>
    </g>
    <g id="line2d_42"/>
    <g id="text_35">
     <!-- rss = 1.688e-06 -->
     <g transform="translate(259.820312 273.398438)scale(0.1 -0.1)">
      <use xlink:href="#DejaVuSans-72"/>
      <use x="41.113281" xlink:href="#DejaVuSans-73"/>
      <use x="93.212891" xlink:href="#DejaVuSans-73"/>
      <use x="145.3125" xlink:href="#DejaVuSans-20"/>
      <use x="177.099609" xlink:href="#DejaVuSans-3d"/>
      <use x="260.888672" xlink:href="#DejaVuSans-20"/>
      <use x="292.675781" xlink:href="#DejaVuSans-31"/>
      <use x="356.298828" xlink:href="#DejaVuSans-2e"/>
      <use x="388.085938" xlink:href="#DejaVuSans-36"/>
      <use x="451.708984" xlink:href="#DejaVuSans-38"/>
      <use x="515.332031" xlink:href="#DejaVuSans-38"/>
      <use x="578.955078" xlink:href="#DejaVuSans-65"/>
      <use x="640.478516" xlink:href="#DejaVuSans-2d"/>
      <use x="676.5625" xlink:href="#DejaVuSans-30"/>
      <use x="740.185547" xlink:href="#DejaVuSans-36"/>
     </g>
    </g>
   </g>
  </g>
 </g>
 <defs>
  <clipPath id="p5534a3fad6">
   <rect height="184.2" width="280.275" x="68.925" y="26.8"/>
  </clipPath>
  <clipPath id="pa32bbc0e8c">
   <rect height="61.4" width="280.275" x="68.925" y="256.8"/>
  </clipPath>
 </defs>
</svg>
