<?xml version="1.0" encoding="utf-8" standalone="no"?>
<!DOCTYPE svg PUBLIC "-//W3C//DTD SVG 1.1//EN"
  "http://www.w3.org/Graphics/SVG/1.1/DTD/svg11.dtd">
<svg height="432pt" version="1.1" viewBox="0 0 1200 432" width="1200pt" xmlns="http://www.w3.org/2000/svg" xmlns:xlink="http://www.w3.org/1999/xlink">
 <metadata>
  <rdf:RDF xmlns:cc="http://creativecommons.org/ns#" xmlns:dc="http://purl.org/dc/elements/1.1/" xmlns:rdf="http://www.w3.org/1999/02/22-rdf-syntax-ns#">
   <cc:Work>
    <dc:type rdf:resource="http://purl.org/dc/dcmitype/StillImage"/>
    <dc:date>2025-01-22T13:41:03.198529</dc:date>
    <dc:format>image/svg+xml</dc:format>
    <dc:creator>
     <cc:Agent>
      <dc:title>Matplotlib v3.4.2, https://matplotlib.org/</dc:title>
     </cc:Agent>
    </dc:creator>
   </cc:Work>
  </rdf:RDF>
 </metadata>
 <defs>
  <style type="text/css">*{stroke-linecap:butt;stroke-linejoin:round;}</style>
 </defs>
 <g id="figure_1">
  <g id="patch_1">
   <path d="M 0 432 
L 1200 432 
L 1200 0 
L 0 0 
z
" style="fill:none;"/>
  </g>
  <g id="axes_1">
   <g id="patch_2">
    <path d="M 44.55 404.2 
L 1189.2 404.2 
L 1189.2 26.8 
L 44.55 26.8 
z
" style="fill:#ffffff;"/>
   </g>
   <g id="PathCollection_1">
    <defs>
     <path d="M -0 5.477226 
L 5.477226 -5.477226 
L -5.477226 -5.477226 
z
" id="m24b33e458a" style="stroke:#005794;"/>
    </defs>
    <g clip-path="url(#pc508e626b3)">
     <use style="fill:#1f77b4;stroke:#005794;" x="68.396875" xlink:href="#m24b33e458a" y="386.895505"/>
    </g>
   </g>
   <g id="PathCollection_2">
    <path clip-path="url(#pc508e626b3)" d="M 68.396875 392.456787 
C 69.849452 392.456787 71.242731 391.879672 72.269858 390.852545 
C 73.296986 389.825418 73.874101 388.432139 73.874101 386.979561 
C 73.874101 385.526984 73.296986 384.133705 72.269858 383.106578 
C 71.242731 382.079451 69.849452 381.502336 68.396875 381.502336 
C 66.944298 381.502336 65.551019 382.079451 64.523892 383.106578 
C 63.496764 384.133705 62.919649 385.526984 62.919649 386.979561 
C 62.919649 388.432139 63.496764 389.825418 64.523892 390.852545 
C 65.551019 391.879672 66.944298 392.456787 68.396875 392.456787 
z
" style="fill:none;stroke:#8b0000;"/>
   </g>
   <g id="PathCollection_3"/>
   <g id="PathCollection_4"/>
   <g id="PathCollection_5">
    <g clip-path="url(#pc508e626b3)">
     <use style="fill:#1f77b4;stroke:#005794;" x="116.090625" xlink:href="#m24b33e458a" y="295.135411"/>
    </g>
   </g>
   <g id="PathCollection_6">
    <path clip-path="url(#pc508e626b3)" d="M 116.090625 309.436805 
C 117.543202 309.436805 118.936481 308.85969 119.963608 307.832563 
C 120.990736 306.805436 121.567851 305.412157 121.567851 303.95958 
C 121.567851 302.507002 120.990736 301.113723 119.963608 300.086596 
C 118.936481 299.059469 117.543202 298.482354 116.090625 298.482354 
C 114.638048 298.482354 113.244769 299.059469 112.217642 300.086596 
C 111.190514 301.113723 110.613399 302.507002 110.613399 303.95958 
C 110.613399 305.412157 111.190514 306.805436 112.217642 307.832563 
C 113.244769 308.85969 114.638048 309.436805 116.090625 309.436805 
z
" style="fill:none;stroke:#8b0000;"/>
   </g>
   <g id="PathCollection_7"/>
   <g id="PathCollection_8"/>
   <g id="PathCollection_9">
    <g clip-path="url(#pc508e626b3)">
     <use style="fill:#1f77b4;stroke:#005794;" x="163.784375" xlink:href="#m24b33e458a" y="211.091383"/>
    </g>
   </g>
   <g id="PathCollection_10">
    <path clip-path="url(#pc508e626b3)" d="M 163.784375 226.416823 
C 165.236952 226.416823 166.630231 225.839708 167.657358 224.812581 
C 168.684486 223.785454 169.261601 222.392175 169.261601 220.939598 
C 169.261601 219.48702 168.684486 218.093741 167.657358 217.066614 
C 166.630231 216.039487 165.236952 215.462372 163.784375 215.462372 
C 162.331798 215.462372 160.938519 216.039487 159.911392 217.066614 
C 158.884264 218.093741 158.307149 219.48702 158.307149 220.939598 
C 158.307149 222.392175 158.884264 223.785454 159.911392 224.812581 
C 160.938519 225.839708 162.331798 226.416823 163.784375 226.416823 
z
" style="fill:none;stroke:#8b0000;"/>
   </g>
   <g id="PathCollection_11"/>
   <g id="PathCollection_12"/>
   <g id="PathCollection_13">
    <g clip-path="url(#pc508e626b3)">
     <use style="fill:#1f77b4;stroke:#005794;" x="211.478125" xlink:href="#m24b33e458a" y="122.518817"/>
    </g>
   </g>
   <g id="PathCollection_14">
    <path clip-path="url(#pc508e626b3)" d="M 211.478125 143.396841 
C 212.930702 143.396841 214.323981 142.819726 215.351108 141.792599 
C 216.378236 140.765472 216.955351 139.372193 216.955351 137.919616 
C 216.955351 136.467038 216.378236 135.073759 215.351108 134.046632 
C 214.323981 133.019505 212.930702 132.44239 211.478125 132.44239 
C 210.025548 132.44239 208.632269 133.019505 207.605142 134.046632 
C 206.578014 135.073759 206.000899 136.467038 206.000899 137.919616 
C 206.000899 139.372193 206.578014 140.765472 207.605142 141.792599 
C 208.632269 142.819726 210.025548 143.396841 211.478125 143.396841 
z
" style="fill:none;stroke:#8b0000;"/>
   </g>
   <g id="PathCollection_15"/>
   <g id="PathCollection_16"/>
   <g id="PathCollection_17">
    <defs>
     <path d="M -0 4.27294 
L 4.27294 -4.27294 
L -4.27294 -4.27294 
z
" id="mdf3e7542c2" style="stroke:#005794;"/>
    </defs>
    <g clip-path="url(#pc508e626b3)">
     <use style="fill:#1f77b4;stroke:#005794;" x="259.171875" xlink:href="#mdf3e7542c2" y="383.214104"/>
    </g>
   </g>
   <g id="PathCollection_18">
    <defs>
     <path d="M -0 4.091697 
L 4.091697 -4.091697 
L -4.091697 -4.091697 
z
" id="m78ba12322d" style="stroke:#005794;"/>
    </defs>
    <g clip-path="url(#pc508e626b3)">
     <use style="fill:#1f77b4;stroke:#005794;" x="259.171875" xlink:href="#m78ba12322d" y="65.080398"/>
    </g>
   </g>
   <g id="PathCollection_19">
    <path clip-path="url(#pc508e626b3)" d="M 259.171875 391.162862 
C 260.281299 391.162862 261.345434 390.722083 262.129915 389.937601 
C 262.914396 389.15312 263.355175 388.088986 263.355175 386.979561 
C 263.355175 385.870137 262.914396 384.806003 262.129915 384.021522 
C 261.345434 383.23704 260.281299 382.796261 259.171875 382.796261 
C 258.062451 382.796261 256.998316 383.23704 256.213835 384.021522 
C 255.429354 384.806003 254.988575 385.870137 254.988575 386.979561 
C 254.988575 388.088986 255.429354 389.15312 256.213835 389.937601 
C 256.998316 390.722083 258.062451 391.162862 259.171875 391.162862 
z
" style="fill:none;stroke:#8b0000;"/>
   </g>
   <g id="PathCollection_20">
    <path clip-path="url(#pc508e626b3)" d="M 259.171875 59.082934 
C 260.281299 59.082934 261.345434 58.642155 262.129915 57.857674 
C 262.914396 57.073192 263.355175 56.009058 263.355175 54.899634 
C 263.355175 53.79021 262.914396 52.726075 262.129915 51.941594 
C 261.345434 51.157112 260.281299 50.716334 259.171875 50.716334 
C 258.062451 50.716334 256.998316 51.157112 256.213835 51.941594 
C 255.429354 52.726075 254.988575 53.79021 254.988575 54.899634 
C 254.988575 56.009058 255.429354 57.073192 256.213835 57.857674 
C 256.998316 58.642155 258.062451 59.082934 259.171875 59.082934 
z
" style="fill:none;stroke:#8b0000;"/>
   </g>
   <g id="PathCollection_21"/>
   <g id="PathCollection_22">
    <defs>
     <path d="M -0 4.268013 
L 4.268013 -4.268013 
L -4.268013 -4.268013 
z
" id="m2f142a1285" style="stroke:#005794;"/>
    </defs>
    <g clip-path="url(#pc508e626b3)">
     <use style="fill:#1f77b4;stroke:#005794;" x="306.865625" xlink:href="#m2f142a1285" y="385.409639"/>
    </g>
   </g>
   <g id="PathCollection_23">
    <defs>
     <path d="M -0 4.096836 
L 4.096836 -4.096836 
L -4.096836 -4.096836 
z
" id="me78fb10135" style="stroke:#005794;"/>
    </defs>
    <g clip-path="url(#pc508e626b3)">
     <use style="fill:#1f77b4;stroke:#005794;" x="306.865625" xlink:href="#me78fb10135" y="296.932001"/>
    </g>
   </g>
   <g id="PathCollection_24">
    <path clip-path="url(#pc508e626b3)" d="M 306.865625 391.162862 
C 307.975049 391.162862 309.039184 390.722083 309.823665 389.937601 
C 310.608146 389.15312 311.048925 388.088986 311.048925 386.979561 
C 311.048925 385.870137 310.608146 384.806003 309.823665 384.021522 
C 309.039184 383.23704 307.975049 382.796261 306.865625 382.796261 
C 305.756201 382.796261 304.692066 383.23704 303.907585 384.021522 
C 303.123104 384.806003 302.682325 385.870137 302.682325 386.979561 
C 302.682325 388.088986 303.123104 389.15312 303.907585 389.937601 
C 304.692066 390.722083 305.756201 391.162862 306.865625 391.162862 
z
" style="fill:none;stroke:#8b0000;"/>
   </g>
   <g id="PathCollection_25">
    <path clip-path="url(#pc508e626b3)" d="M 306.865625 308.14288 
C 307.975049 308.14288 309.039184 307.702101 309.823665 306.917619 
C 310.608146 306.133138 311.048925 305.069004 311.048925 303.95958 
C 311.048925 302.850155 310.608146 301.786021 309.823665 301.00154 
C 309.039184 300.217058 307.975049 299.776279 306.865625 299.776279 
C 305.756201 299.776279 304.692066 300.217058 303.907585 301.00154 
C 303.123104 301.786021 302.682325 302.850155 302.682325 303.95958 
C 302.682325 305.069004 303.123104 306.133138 303.907585 306.917619 
C 304.692066 307.702101 305.756201 308.14288 306.865625 308.14288 
z
" style="fill:none;stroke:#8b0000;"/>
   </g>
   <g id="PathCollection_26"/>
   <g id="PathCollection_27">
    <defs>
     <path d="M -0 4.289512 
L 4.289512 -4.289512 
L -4.289512 -4.289512 
z
" id="m4629829305" style="stroke:#005794;"/>
    </defs>
    <g clip-path="url(#pc508e626b3)">
     <use style="fill:#1f77b4;stroke:#005794;" x="354.559375" xlink:href="#m4629829305" y="385.171837"/>
    </g>
   </g>
   <g id="PathCollection_28">
    <defs>
     <path d="M -0 4.074321 
L 4.074321 -4.074321 
L -4.074321 -4.074321 
z
" id="ma0cfabfe7a" style="stroke:#005794;"/>
    </defs>
    <g clip-path="url(#pc508e626b3)">
     <use style="fill:#1f77b4;stroke:#005794;" x="354.559375" xlink:href="#ma0cfabfe7a" y="210.148678"/>
    </g>
   </g>
   <g id="PathCollection_29">
    <path clip-path="url(#pc508e626b3)" d="M 354.559375 391.162862 
C 355.668799 391.162862 356.732934 390.722083 357.517415 389.937601 
C 358.301896 389.15312 358.742675 388.088986 358.742675 386.979561 
C 358.742675 385.870137 358.301896 384.806003 357.517415 384.021522 
C 356.732934 383.23704 355.668799 382.796261 354.559375 382.796261 
C 353.449951 382.796261 352.385816 383.23704 351.601335 384.021522 
C 350.816854 384.806003 350.376075 385.870137 350.376075 386.979561 
C 350.376075 388.088986 350.816854 389.15312 351.601335 389.937601 
C 352.385816 390.722083 353.449951 391.162862 354.559375 391.162862 
z
" style="fill:none;stroke:#8b0000;"/>
   </g>
   <g id="PathCollection_30">
    <path clip-path="url(#pc508e626b3)" d="M 354.559375 225.122898 
C 355.668799 225.122898 356.732934 224.682119 357.517415 223.897637 
C 358.301896 223.113156 358.742675 222.049022 358.742675 220.939598 
C 358.742675 219.830173 358.301896 218.766039 357.517415 217.981558 
C 356.732934 217.197076 355.668799 216.756297 354.559375 216.756297 
C 353.449951 216.756297 352.385816 217.197076 351.601335 217.981558 
C 350.816854 218.766039 350.376075 219.830173 350.376075 220.939598 
C 350.376075 222.049022 350.816854 223.113156 351.601335 223.897637 
C 352.385816 224.682119 353.449951 225.122898 354.559375 225.122898 
z
" style="fill:none;stroke:#8b0000;"/>
   </g>
   <g id="PathCollection_31"/>
   <g id="PathCollection_32">
    <defs>
     <path d="M -0 4.291011 
L 4.291011 -4.291011 
L -4.291011 -4.291011 
z
" id="m5646e305c3" style="stroke:#005794;"/>
    </defs>
    <g clip-path="url(#pc508e626b3)">
     <use style="fill:#1f77b4;stroke:#005794;" x="402.253125" xlink:href="#m5646e305c3" y="384.746478"/>
    </g>
   </g>
   <g id="PathCollection_33">
    <defs>
     <path d="M -0 4.072742 
L 4.072742 -4.072742 
L -4.072742 -4.072742 
z
" id="md5eefb1f3d" style="stroke:#005794;"/>
    </defs>
    <g clip-path="url(#pc508e626b3)">
     <use style="fill:#1f77b4;stroke:#005794;" x="402.253125" xlink:href="#md5eefb1f3d" y="131.310226"/>
    </g>
   </g>
   <g id="PathCollection_34">
    <path clip-path="url(#pc508e626b3)" d="M 402.253125 391.162862 
C 403.362549 391.162862 404.426684 390.722083 405.211165 389.937601 
C 405.995646 389.15312 406.436425 388.088986 406.436425 386.979561 
C 406.436425 385.870137 405.995646 384.806003 405.211165 384.021522 
C 404.426684 383.23704 403.362549 382.796261 402.253125 382.796261 
C 401.143701 382.796261 400.079566 383.23704 399.295085 384.021522 
C 398.510604 384.806003 398.069825 385.870137 398.069825 386.979561 
C 398.069825 388.088986 398.510604 389.15312 399.295085 389.937601 
C 400.079566 390.722083 401.143701 391.162862 402.253125 391.162862 
z
" style="fill:none;stroke:#8b0000;"/>
   </g>
   <g id="PathCollection_35">
    <path clip-path="url(#pc508e626b3)" d="M 402.253125 142.102916 
C 403.362549 142.102916 404.426684 141.662137 405.211165 140.877656 
C 405.995646 140.093174 406.436425 139.02904 406.436425 137.919616 
C 406.436425 136.810191 405.995646 135.746057 405.211165 134.961576 
C 404.426684 134.177094 403.362549 133.736316 402.253125 133.736316 
C 401.143701 133.736316 400.079566 134.177094 399.295085 134.961576 
C 398.510604 135.746057 398.069825 136.810191 398.069825 137.919616 
C 398.069825 139.02904 398.510604 140.093174 399.295085 140.877656 
C 400.079566 141.662137 401.143701 142.102916 402.253125 142.102916 
z
" style="fill:none;stroke:#8b0000;"/>
   </g>
   <g id="PathCollection_36"/>
   <g id="PathCollection_37">
    <defs>
     <path d="M -0 4.184656 
L 4.184656 -4.184656 
L -4.184656 -4.184656 
z
" id="m70e64a0958" style="stroke:#005794;"/>
    </defs>
    <g clip-path="url(#pc508e626b3)">
     <use style="fill:#1f77b4;stroke:#005794;" x="449.946875" xlink:href="#m70e64a0958" y="293.133628"/>
    </g>
   </g>
   <g id="PathCollection_38">
    <defs>
     <path d="M -0 4.181944 
L 4.181944 -4.181944 
L -4.181944 -4.181944 
z
" id="md4f93acc95" style="stroke:#005794;"/>
    </defs>
    <g clip-path="url(#pc508e626b3)">
     <use style="fill:#1f77b4;stroke:#005794;" x="449.946875" xlink:href="#md4f93acc95" y="66.485722"/>
    </g>
   </g>
   <g id="PathCollection_39">
    <path clip-path="url(#pc508e626b3)" d="M 449.946875 308.14288 
C 451.056299 308.14288 452.120434 307.702101 452.904915 306.917619 
C 453.689396 306.133138 454.130175 305.069004 454.130175 303.95958 
C 454.130175 302.850155 453.689396 301.786021 452.904915 301.00154 
C 452.120434 300.217058 451.056299 299.776279 449.946875 299.776279 
C 448.837451 299.776279 447.773316 300.217058 446.988835 301.00154 
C 446.204354 301.786021 445.763575 302.850155 445.763575 303.95958 
C 445.763575 305.069004 446.204354 306.133138 446.988835 306.917619 
C 447.773316 307.702101 448.837451 308.14288 449.946875 308.14288 
z
" style="fill:none;stroke:#8b0000;"/>
   </g>
   <g id="PathCollection_40">
    <path clip-path="url(#pc508e626b3)" d="M 449.946875 59.082934 
C 451.056299 59.082934 452.120434 58.642155 452.904915 57.857674 
C 453.689396 57.073192 454.130175 56.009058 454.130175 54.899634 
C 454.130175 53.79021 453.689396 52.726075 452.904915 51.941594 
C 452.120434 51.157112 451.056299 50.716334 449.946875 50.716334 
C 448.837451 50.716334 447.773316 51.157112 446.988835 51.941594 
C 446.204354 52.726075 445.763575 53.79021 445.763575 54.899634 
C 445.763575 56.009058 446.204354 57.073192 446.988835 57.857674 
C 447.773316 58.642155 448.837451 59.082934 449.946875 59.082934 
z
" style="fill:none;stroke:#8b0000;"/>
   </g>
   <g id="PathCollection_41"/>
   <g id="PathCollection_42">
    <defs>
     <path d="M -0 4.197434 
L 4.197434 -4.197434 
L -4.197434 -4.197434 
z
" id="maa7c262358" style="stroke:#005794;"/>
    </defs>
    <g clip-path="url(#pc508e626b3)">
     <use style="fill:#1f77b4;stroke:#005794;" x="497.640625" xlink:href="#maa7c262358" y="291.858264"/>
    </g>
   </g>
   <g id="PathCollection_43">
    <defs>
     <path d="M -0 4.169118 
L 4.169118 -4.169118 
L -4.169118 -4.169118 
z
" id="m080d2799fc" style="stroke:#005794;"/>
    </defs>
    <g clip-path="url(#pc508e626b3)">
     <use style="fill:#1f77b4;stroke:#005794;" x="497.640625" xlink:href="#m080d2799fc" y="206.927929"/>
    </g>
   </g>
   <g id="PathCollection_44">
    <path clip-path="url(#pc508e626b3)" d="M 497.640625 308.14288 
C 498.750049 308.14288 499.814184 307.702101 500.598665 306.917619 
C 501.383146 306.133138 501.823925 305.069004 501.823925 303.95958 
C 501.823925 302.850155 501.383146 301.786021 500.598665 301.00154 
C 499.814184 300.217058 498.750049 299.776279 497.640625 299.776279 
C 496.531201 299.776279 495.467066 300.217058 494.682585 301.00154 
C 493.898104 301.786021 493.457325 302.850155 493.457325 303.95958 
C 493.457325 305.069004 493.898104 306.133138 494.682585 306.917619 
C 495.467066 307.702101 496.531201 308.14288 497.640625 308.14288 
z
" style="fill:none;stroke:#8b0000;"/>
   </g>
   <g id="PathCollection_45">
    <path clip-path="url(#pc508e626b3)" d="M 497.640625 225.122898 
C 498.750049 225.122898 499.814184 224.682119 500.598665 223.897637 
C 501.383146 223.113156 501.823925 222.049022 501.823925 220.939598 
C 501.823925 219.830173 501.383146 218.766039 500.598665 217.981558 
C 499.814184 217.197076 498.750049 216.756297 497.640625 216.756297 
C 496.531201 216.756297 495.467066 217.197076 494.682585 217.981558 
C 493.898104 218.766039 493.457325 219.830173 493.457325 220.939598 
C 493.457325 222.049022 493.898104 223.113156 494.682585 223.897637 
C 495.467066 224.682119 496.531201 225.122898 497.640625 225.122898 
z
" style="fill:none;stroke:#8b0000;"/>
   </g>
   <g id="PathCollection_46"/>
   <g id="PathCollection_47">
    <defs>
     <path d="M -0 4.197881 
L 4.197881 -4.197881 
L -4.197881 -4.197881 
z
" id="mc3e6cd9c15" style="stroke:#005794;"/>
    </defs>
    <g clip-path="url(#pc508e626b3)">
     <use style="fill:#1f77b4;stroke:#005794;" x="545.334375" xlink:href="#mc3e6cd9c15" y="291.462563"/>
    </g>
   </g>
   <g id="PathCollection_48">
    <defs>
     <path d="M -0 4.168668 
L 4.168668 -4.168668 
L -4.168668 -4.168668 
z
" id="mc3e9ea6e71" style="stroke:#005794;"/>
    </defs>
    <g clip-path="url(#pc508e626b3)">
     <use style="fill:#1f77b4;stroke:#005794;" x="545.334375" xlink:href="#mc3e9ea6e71" y="122.422751"/>
    </g>
   </g>
   <g id="PathCollection_49">
    <path clip-path="url(#pc508e626b3)" d="M 545.334375 308.14288 
C 546.443799 308.14288 547.507934 307.702101 548.292415 306.917619 
C 549.076896 306.133138 549.517675 305.069004 549.517675 303.95958 
C 549.517675 302.850155 549.076896 301.786021 548.292415 301.00154 
C 547.507934 300.217058 546.443799 299.776279 545.334375 299.776279 
C 544.224951 299.776279 543.160816 300.217058 542.376335 301.00154 
C 541.591854 301.786021 541.151075 302.850155 541.151075 303.95958 
C 541.151075 305.069004 541.591854 306.133138 542.376335 306.917619 
C 543.160816 307.702101 544.224951 308.14288 545.334375 308.14288 
z
" style="fill:none;stroke:#8b0000;"/>
   </g>
   <g id="PathCollection_50">
    <path clip-path="url(#pc508e626b3)" d="M 545.334375 142.102916 
C 546.443799 142.102916 547.507934 141.662137 548.292415 140.877656 
C 549.076896 140.093174 549.517675 139.02904 549.517675 137.919616 
C 549.517675 136.810191 549.076896 135.746057 548.292415 134.961576 
C 547.507934 134.177094 546.443799 133.736316 545.334375 133.736316 
C 544.224951 133.736316 543.160816 134.177094 542.376335 134.961576 
C 541.591854 135.746057 541.151075 136.810191 541.151075 137.919616 
C 541.151075 139.02904 541.591854 140.093174 542.376335 140.877656 
C 543.160816 141.662137 544.224951 142.102916 545.334375 142.102916 
z
" style="fill:none;stroke:#8b0000;"/>
   </g>
   <g id="PathCollection_51"/>
   <g id="PathCollection_52">
    <defs>
     <path d="M -0 4.153607 
L 4.153607 -4.153607 
L -4.153607 -4.153607 
z
" id="md487dfdcb2" style="stroke:#005794;"/>
    </defs>
    <g clip-path="url(#pc508e626b3)">
     <use style="fill:#1f77b4;stroke:#005794;" x="593.028125" xlink:href="#md487dfdcb2" y="208.091902"/>
    </g>
   </g>
   <g id="PathCollection_53">
    <defs>
     <path d="M -0 4.212784 
L 4.212784 -4.212784 
L -4.212784 -4.212784 
z
" id="m1f760bd8e6" style="stroke:#005794;"/>
    </defs>
    <g clip-path="url(#pc508e626b3)">
     <use style="fill:#1f77b4;stroke:#005794;" x="593.028125" xlink:href="#m1f760bd8e6" y="66.809203"/>
    </g>
   </g>
   <g id="PathCollection_54">
    <path clip-path="url(#pc508e626b3)" d="M 593.028125 225.122898 
C 594.137549 225.122898 595.201684 224.682119 595.986165 223.897637 
C 596.770646 223.113156 597.211425 222.049022 597.211425 220.939598 
C 597.211425 219.830173 596.770646 218.766039 595.986165 217.981558 
C 595.201684 217.197076 594.137549 216.756297 593.028125 216.756297 
C 591.918701 216.756297 590.854566 217.197076 590.070085 217.981558 
C 589.285604 218.766039 588.844825 219.830173 588.844825 220.939598 
C 588.844825 222.049022 589.285604 223.113156 590.070085 223.897637 
C 590.854566 224.682119 591.918701 225.122898 593.028125 225.122898 
z
" style="fill:none;stroke:#8b0000;"/>
   </g>
   <g id="PathCollection_55">
    <path clip-path="url(#pc508e626b3)" d="M 593.028125 59.082934 
C 594.137549 59.082934 595.201684 58.642155 595.986165 57.857674 
C 596.770646 57.073192 597.211425 56.009058 597.211425 54.899634 
C 597.211425 53.79021 596.770646 52.726075 595.986165 51.941594 
C 595.201684 51.157112 594.137549 50.716334 593.028125 50.716334 
C 591.918701 50.716334 590.854566 51.157112 590.070085 51.941594 
C 589.285604 52.726075 588.844825 53.79021 588.844825 54.899634 
C 588.844825 56.009058 589.285604 57.073192 590.070085 57.857674 
C 590.854566 58.642155 591.918701 59.082934 593.028125 59.082934 
z
" style="fill:none;stroke:#8b0000;"/>
   </g>
   <g id="PathCollection_56"/>
   <g id="PathCollection_57">
    <defs>
     <path d="M -0 4.03401 
L 4.03401 -4.03401 
L -4.03401 -4.03401 
z
" id="m996f37ceb1" style="stroke:#005794;"/>
    </defs>
    <g clip-path="url(#pc508e626b3)">
     <use style="fill:#1f77b4;stroke:#005794;" x="640.721875" xlink:href="#m996f37ceb1" y="205.5412"/>
    </g>
   </g>
   <g id="PathCollection_58">
    <defs>
     <path d="M -0 4.327443 
L 4.327443 -4.327443 
L -4.327443 -4.327443 
z
" id="mb6be39d403" style="stroke:#005794;"/>
    </defs>
    <g clip-path="url(#pc508e626b3)">
     <use style="fill:#1f77b4;stroke:#005794;" x="640.721875" xlink:href="#mb6be39d403" y="126.518507"/>
    </g>
   </g>
   <g id="PathCollection_59">
    <path clip-path="url(#pc508e626b3)" d="M 640.721875 225.122898 
C 641.831299 225.122898 642.895434 224.682119 643.679915 223.897637 
C 644.464396 223.113156 644.905175 222.049022 644.905175 220.939598 
C 644.905175 219.830173 644.464396 218.766039 643.679915 217.981558 
C 642.895434 217.197076 641.831299 216.756297 640.721875 216.756297 
C 639.612451 216.756297 638.548316 217.197076 637.763835 217.981558 
C 636.979354 218.766039 636.538575 219.830173 636.538575 220.939598 
C 636.538575 222.049022 636.979354 223.113156 637.763835 223.897637 
C 638.548316 224.682119 639.612451 225.122898 640.721875 225.122898 
z
" style="fill:none;stroke:#8b0000;"/>
   </g>
   <g id="PathCollection_60">
    <path clip-path="url(#pc508e626b3)" d="M 640.721875 142.102916 
C 641.831299 142.102916 642.895434 141.662137 643.679915 140.877656 
C 644.464396 140.093174 644.905175 139.02904 644.905175 137.919616 
C 644.905175 136.810191 644.464396 135.746057 643.679915 134.961576 
C 642.895434 134.177094 641.831299 133.736316 640.721875 133.736316 
C 639.612451 133.736316 638.548316 134.177094 637.763835 134.961576 
C 636.979354 135.746057 636.538575 136.810191 636.538575 137.919616 
C 636.538575 139.02904 636.979354 140.093174 637.763835 140.877656 
C 638.548316 141.662137 639.612451 142.102916 640.721875 142.102916 
z
" style="fill:none;stroke:#8b0000;"/>
   </g>
   <g id="PathCollection_61"/>
   <g id="PathCollection_62">
    <defs>
     <path d="M -0 4.236437 
L 4.236437 -4.236437 
L -4.236437 -4.236437 
z
" id="mfa71eebb34" style="stroke:#005794;"/>
    </defs>
    <g clip-path="url(#pc508e626b3)">
     <use style="fill:#1f77b4;stroke:#005794;" x="688.415625" xlink:href="#mfa71eebb34" y="125.384689"/>
    </g>
   </g>
   <g id="PathCollection_63">
    <defs>
     <path d="M -0 4.129479 
L 4.129479 -4.129479 
L -4.129479 -4.129479 
z
" id="m148b31484c" style="stroke:#005794;"/>
    </defs>
    <g clip-path="url(#pc508e626b3)">
     <use style="fill:#1f77b4;stroke:#005794;" x="688.415625" xlink:href="#m148b31484c" y="63.336087"/>
    </g>
   </g>
   <g id="PathCollection_64">
    <path clip-path="url(#pc508e626b3)" d="M 688.415625 142.102916 
C 689.525049 142.102916 690.589184 141.662137 691.373665 140.877656 
C 692.158146 140.093174 692.598925 139.02904 692.598925 137.919616 
C 692.598925 136.810191 692.158146 135.746057 691.373665 134.961576 
C 690.589184 134.177094 689.525049 133.736316 688.415625 133.736316 
C 687.306201 133.736316 686.242066 134.177094 685.457585 134.961576 
C 684.673104 135.746057 684.232325 136.810191 684.232325 137.919616 
C 684.232325 139.02904 684.673104 140.093174 685.457585 140.877656 
C 686.242066 141.662137 687.306201 142.102916 688.415625 142.102916 
z
" style="fill:none;stroke:#8b0000;"/>
   </g>
   <g id="PathCollection_65">
    <path clip-path="url(#pc508e626b3)" d="M 688.415625 59.082934 
C 689.525049 59.082934 690.589184 58.642155 691.373665 57.857674 
C 692.158146 57.073192 692.598925 56.009058 692.598925 54.899634 
C 692.598925 53.79021 692.158146 52.726075 691.373665 51.941594 
C 690.589184 51.157112 689.525049 50.716334 688.415625 50.716334 
C 687.306201 50.716334 686.242066 51.157112 685.457585 51.941594 
C 684.673104 52.726075 684.232325 53.79021 684.232325 54.899634 
C 684.232325 56.009058 684.673104 57.073192 685.457585 57.857674 
C 686.242066 58.642155 687.306201 59.082934 688.415625 59.082934 
z
" style="fill:none;stroke:#8b0000;"/>
   </g>
   <g id="PathCollection_66"/>
   <g id="PathCollection_67">
    <defs>
     <path d="M -0 3.221808 
L 3.221808 -3.221808 
L -3.221808 -3.221808 
z
" id="m9b86865aa7" style="stroke:#005794;"/>
    </defs>
    <g clip-path="url(#pc508e626b3)">
     <use style="fill:#1f77b4;stroke:#005794;" x="736.109375" xlink:href="#m9b86865aa7" y="292.241247"/>
    </g>
   </g>
   <g id="PathCollection_68">
    <defs>
     <path d="M -0 4.96185 
L 4.96185 -4.96185 
L -4.96185 -4.96185 
z
" id="m28a85cb180" style="stroke:#005794;"/>
    </defs>
    <g clip-path="url(#pc508e626b3)">
     <use style="fill:#1f77b4;stroke:#005794;" x="736.109375" xlink:href="#m28a85cb180" y="55.575242"/>
    </g>
   </g>
   <g id="PathCollection_69">
    <path clip-path="url(#pc508e626b3)" d="M 736.109375 307.313681 
C 736.998893 307.313681 737.852099 306.960272 738.481083 306.331288 
C 739.110068 305.702303 739.463477 304.849098 739.463477 303.95958 
C 739.463477 303.070061 739.110068 302.216856 738.481083 301.587871 
C 737.852099 300.958887 736.998893 300.605478 736.109375 300.605478 
C 735.219857 300.605478 734.366651 300.958887 733.737667 301.587871 
C 733.108682 302.216856 732.755273 303.070061 732.755273 303.95958 
C 732.755273 304.849098 733.108682 305.702303 733.737667 306.331288 
C 734.366651 306.960272 735.219857 307.313681 736.109375 307.313681 
z
" style="fill:none;stroke:#8b0000;"/>
   </g>
   <g id="PathCollection_70">
    <path clip-path="url(#pc508e626b3)" d="M 736.109375 59.773031 
C 737.401815 59.773031 738.641494 59.259539 739.555387 58.345646 
C 740.46928 57.431753 740.982772 56.192074 740.982772 54.899634 
C 740.982772 53.607194 740.46928 52.367515 739.555387 51.453622 
C 738.641494 50.539728 737.401815 50.026237 736.109375 50.026237 
C 734.816935 50.026237 733.577256 50.539728 732.663363 51.453622 
C 731.74947 52.367515 731.235978 53.607194 731.235978 54.899634 
C 731.235978 56.192074 731.74947 57.431753 732.663363 58.345646 
C 733.577256 59.259539 734.816935 59.773031 736.109375 59.773031 
z
" style="fill:none;stroke:#8b0000;"/>
   </g>
   <g id="PathCollection_71"/>
   <g id="PathCollection_72">
    <defs>
     <path d="M -0 3.058298 
L 3.058298 -3.058298 
L -3.058298 -3.058298 
z
" id="mb451b3a658" style="stroke:#005794;"/>
    </defs>
    <g clip-path="url(#pc508e626b3)">
     <use style="fill:#1f77b4;stroke:#005794;" x="783.803125" xlink:href="#mb451b3a658" y="299.541294"/>
    </g>
   </g>
   <g id="PathCollection_73">
    <defs>
     <path d="M -0 5.064268 
L 5.064268 -5.064268 
L -5.064268 -5.064268 
z
" id="m468411482d" style="stroke:#005794;"/>
    </defs>
    <g clip-path="url(#pc508e626b3)">
     <use style="fill:#1f77b4;stroke:#005794;" x="783.803125" xlink:href="#m468411482d" y="210.240659"/>
    </g>
   </g>
   <g id="PathCollection_74">
    <path clip-path="url(#pc508e626b3)" d="M 783.803125 307.313681 
C 784.692643 307.313681 785.545849 306.960272 786.174833 306.331288 
C 786.803818 305.702303 787.157227 304.849098 787.157227 303.95958 
C 787.157227 303.070061 786.803818 302.216856 786.174833 301.587871 
C 785.545849 300.958887 784.692643 300.605478 783.803125 300.605478 
C 782.913607 300.605478 782.060401 300.958887 781.431417 301.587871 
C 780.802432 302.216856 780.449023 303.070061 780.449023 303.95958 
C 780.449023 304.849098 780.802432 305.702303 781.431417 306.331288 
C 782.060401 306.960272 782.913607 307.313681 783.803125 307.313681 
z
" style="fill:none;stroke:#8b0000;"/>
   </g>
   <g id="PathCollection_75">
    <path clip-path="url(#pc508e626b3)" d="M 783.803125 225.812995 
C 785.095565 225.812995 786.335244 225.299503 787.249137 224.38561 
C 788.16303 223.471717 788.676522 222.232038 788.676522 220.939598 
C 788.676522 219.647158 788.16303 218.407479 787.249137 217.493585 
C 786.335244 216.579692 785.095565 216.0662 783.803125 216.0662 
C 782.510685 216.0662 781.271006 216.579692 780.357113 217.493585 
C 779.44322 218.407479 778.929728 219.647158 778.929728 220.939598 
C 778.929728 222.232038 779.44322 223.471717 780.357113 224.38561 
C 781.271006 225.299503 782.510685 225.812995 783.803125 225.812995 
z
" style="fill:none;stroke:#8b0000;"/>
   </g>
   <g id="PathCollection_76"/>
   <g id="PathCollection_77">
    <defs>
     <path d="M -0 3.296775 
L 3.296775 -3.296775 
L -3.296775 -3.296775 
z
" id="m7544a59c68" style="stroke:#005794;"/>
    </defs>
    <g clip-path="url(#pc508e626b3)">
     <use style="fill:#1f77b4;stroke:#005794;" x="831.496875" xlink:href="#m7544a59c68" y="288.55549"/>
    </g>
   </g>
   <g id="PathCollection_78">
    <defs>
     <path d="M -0 4.912359 
L 4.912359 -4.912359 
L -4.912359 -4.912359 
z
" id="m9333968641" style="stroke:#005794;"/>
    </defs>
    <g clip-path="url(#pc508e626b3)">
     <use style="fill:#1f77b4;stroke:#005794;" x="831.496875" xlink:href="#m9333968641" y="120.345108"/>
    </g>
   </g>
   <g id="PathCollection_79">
    <path clip-path="url(#pc508e626b3)" d="M 831.496875 307.313681 
C 832.386393 307.313681 833.239599 306.960272 833.868583 306.331288 
C 834.497568 305.702303 834.850977 304.849098 834.850977 303.95958 
C 834.850977 303.070061 834.497568 302.216856 833.868583 301.587871 
C 833.239599 300.958887 832.386393 300.605478 831.496875 300.605478 
C 830.607357 300.605478 829.754151 300.958887 829.125167 301.587871 
C 828.496182 302.216856 828.142773 303.070061 828.142773 303.95958 
C 828.142773 304.849098 828.496182 305.702303 829.125167 306.331288 
C 829.754151 306.960272 830.607357 307.313681 831.496875 307.313681 
z
" style="fill:none;stroke:#8b0000;"/>
   </g>
   <g id="PathCollection_80">
    <path clip-path="url(#pc508e626b3)" d="M 831.496875 142.793013 
C 832.789315 142.793013 834.028994 142.279521 834.942887 141.365628 
C 835.85678 140.451735 836.370272 139.212056 836.370272 137.919616 
C 836.370272 136.627176 835.85678 135.387497 834.942887 134.473603 
C 834.028994 133.55971 832.789315 133.046218 831.496875 133.046218 
C 830.204435 133.046218 828.964756 133.55971 828.050863 134.473603 
C 827.13697 135.387497 826.623478 136.627176 826.623478 137.919616 
C 826.623478 139.212056 827.13697 140.451735 828.050863 141.365628 
C 828.964756 142.279521 830.204435 142.793013 831.496875 142.793013 
z
" style="fill:none;stroke:#8b0000;"/>
   </g>
   <g id="PathCollection_81"/>
   <g id="PathCollection_82">
    <defs>
     <path d="M -0 4.93456 
L 4.93456 -4.93456 
L -4.93456 -4.93456 
z
" id="m7e1d0c7eb6" style="stroke:#005794;"/>
    </defs>
    <g clip-path="url(#pc508e626b3)">
     <use style="fill:#1f77b4;stroke:#005794;" x="879.190625" xlink:href="#m7e1d0c7eb6" y="291.505743"/>
    </g>
   </g>
   <g id="PathCollection_83">
    <defs>
     <path d="M -0 3.263451 
L 3.263451 -3.263451 
L -3.263451 -3.263451 
z
" id="m67b4166f95" style="stroke:#005794;"/>
    </defs>
    <g clip-path="url(#pc508e626b3)">
     <use style="fill:#1f77b4;stroke:#005794;" x="879.190625" xlink:href="#m67b4166f95" y="122.58603"/>
    </g>
   </g>
   <g id="PathCollection_84">
    <path clip-path="url(#pc508e626b3)" d="M 879.190625 308.832977 
C 880.483065 308.832977 881.722744 308.319485 882.636637 307.405592 
C 883.55053 306.491699 884.064022 305.25202 884.064022 303.95958 
C 884.064022 302.667139 883.55053 301.42746 882.636637 300.513567 
C 881.722744 299.599674 880.483065 299.086182 879.190625 299.086182 
C 877.898185 299.086182 876.658506 299.599674 875.744613 300.513567 
C 874.83072 301.42746 874.317228 302.667139 874.317228 303.95958 
C 874.317228 305.25202 874.83072 306.491699 875.744613 307.405592 
C 876.658506 308.319485 877.898185 308.832977 879.190625 308.832977 
z
" style="fill:none;stroke:#8b0000;"/>
   </g>
   <g id="PathCollection_85">
    <path clip-path="url(#pc508e626b3)" d="M 879.190625 141.273718 
C 880.080143 141.273718 880.933349 140.920308 881.562333 140.291324 
C 882.191318 139.66234 882.544727 138.809134 882.544727 137.919616 
C 882.544727 137.030097 882.191318 136.176892 881.562333 135.547907 
C 880.933349 134.918923 880.080143 134.565514 879.190625 134.565514 
C 878.301107 134.565514 877.447901 134.918923 876.818917 135.547907 
C 876.189932 136.176892 875.836523 137.030097 875.836523 137.919616 
C 875.836523 138.809134 876.189932 139.66234 876.818917 140.291324 
C 877.447901 140.920308 878.301107 141.273718 879.190625 141.273718 
z
" style="fill:none;stroke:#8b0000;"/>
   </g>
   <g id="PathCollection_86"/>
   <g id="PathCollection_87">
    <defs>
     <path d="M -0 3.88333 
L 3.88333 -3.88333 
L -3.88333 -3.88333 
z
" id="m77c4533967" style="stroke:#005794;"/>
    </defs>
    <g clip-path="url(#pc508e626b3)">
     <use style="fill:#1f77b4;stroke:#005794;" x="926.884375" xlink:href="#m77c4533967" y="139.454535"/>
    </g>
   </g>
   <g id="PathCollection_88">
    <defs>
     <path d="M -0 4.463154 
L 4.463154 -4.463154 
L -4.463154 -4.463154 
z
" id="m21211dacb1" style="stroke:#005794;"/>
    </defs>
    <g clip-path="url(#pc508e626b3)">
     <use style="fill:#1f77b4;stroke:#005794;" x="926.884375" xlink:href="#m21211dacb1" y="77.977234"/>
    </g>
   </g>
   <g id="PathCollection_89">
    <path clip-path="url(#pc508e626b3)" d="M 926.884375 142.793013 
C 928.176815 142.793013 929.416494 142.279521 930.330387 141.365628 
C 931.24428 140.451735 931.757772 139.212056 931.757772 137.919616 
C 931.757772 136.627176 931.24428 135.387497 930.330387 134.473603 
C 929.416494 133.55971 928.176815 133.046218 926.884375 133.046218 
C 925.591935 133.046218 924.352256 133.55971 923.438363 134.473603 
C 922.52447 135.387497 922.010978 136.627176 922.010978 137.919616 
C 922.010978 139.212056 922.52447 140.451735 923.438363 141.365628 
C 924.352256 142.279521 925.591935 142.793013 926.884375 142.793013 
z
" style="fill:none;stroke:#8b0000;"/>
   </g>
   <g id="PathCollection_90">
    <path clip-path="url(#pc508e626b3)" d="M 926.884375 58.253736 
C 927.773893 58.253736 928.627099 57.900326 929.256083 57.271342 
C 929.885068 56.642358 930.238477 55.789152 930.238477 54.899634 
C 930.238477 54.010115 929.885068 53.15691 929.256083 52.527925 
C 928.627099 51.898941 927.773893 51.545532 926.884375 51.545532 
C 925.994857 51.545532 925.141651 51.898941 924.512667 52.527925 
C 923.883682 53.15691 923.530273 54.010115 923.530273 54.899634 
C 923.530273 55.789152 923.883682 56.642358 924.512667 57.271342 
C 925.141651 57.900326 925.994857 58.253736 926.884375 58.253736 
z
" style="fill:none;stroke:#8b0000;"/>
   </g>
   <g id="PathCollection_91"/>
   <g id="PathCollection_92">
    <defs>
     <path d="M -0 3.785152 
L 3.785152 -3.785152 
L -3.785152 -3.785152 
z
" id="md0be3915cb" style="stroke:#005794;"/>
    </defs>
    <g clip-path="url(#pc508e626b3)">
     <use style="fill:#1f77b4;stroke:#005794;" x="974.578125" xlink:href="#md0be3915cb" y="382.701347"/>
    </g>
   </g>
   <g id="PathCollection_93">
    <defs>
     <path d="M -0 3.560263 
L 3.560263 -3.560263 
L -3.560263 -3.560263 
z
" id="md84674fded" style="stroke:#005794;"/>
    </defs>
    <g clip-path="url(#pc508e626b3)">
     <use style="fill:#1f77b4;stroke:#005794;" x="974.578125" xlink:href="#md84674fded" y="292.303202"/>
    </g>
   </g>
   <g id="PathCollection_94">
    <defs>
     <path d="M -0 3.605156 
L 3.605156 -3.605156 
L -3.605156 -3.605156 
z
" id="m11d025e06f" style="stroke:#005794;"/>
    </defs>
    <g clip-path="url(#pc508e626b3)">
     <use style="fill:#1f77b4;stroke:#005794;" x="974.578125" xlink:href="#m11d025e06f" y="125.823686"/>
    </g>
   </g>
   <g id="PathCollection_95">
    <path clip-path="url(#pc508e626b3)" d="M 974.578125 390.619616 
C 975.543479 390.619616 976.469424 390.236077 977.152033 389.553469 
C 977.834641 388.870861 978.21818 387.944915 978.21818 386.979561 
C 978.21818 386.014208 977.834641 385.088262 977.152033 384.405654 
C 976.469424 383.723046 975.543479 383.339507 974.578125 383.339507 
C 973.612771 383.339507 972.686826 383.723046 972.004217 384.405654 
C 971.321609 385.088262 970.93807 386.014208 970.93807 386.979561 
C 970.93807 387.944915 971.321609 388.870861 972.004217 389.553469 
C 972.686826 390.236077 973.612771 390.619616 974.578125 390.619616 
z
" style="fill:none;stroke:#8b0000;"/>
   </g>
   <g id="PathCollection_96">
    <path clip-path="url(#pc508e626b3)" d="M 974.578125 307.599634 
C 975.543479 307.599634 976.469424 307.216095 977.152033 306.533487 
C 977.834641 305.850879 978.21818 304.924933 978.21818 303.95958 
C 978.21818 302.994226 977.834641 302.06828 977.152033 301.385672 
C 976.469424 300.703064 975.543479 300.319525 974.578125 300.319525 
C 973.612771 300.319525 972.686826 300.703064 972.004217 301.385672 
C 971.321609 302.06828 970.93807 302.994226 970.93807 303.95958 
C 970.93807 304.924933 971.321609 305.850879 972.004217 306.533487 
C 972.686826 307.216095 973.612771 307.599634 974.578125 307.599634 
z
" style="fill:none;stroke:#8b0000;"/>
   </g>
   <g id="PathCollection_97">
    <path clip-path="url(#pc508e626b3)" d="M 974.578125 141.559671 
C 975.543479 141.559671 976.469424 141.176131 977.152033 140.493523 
C 977.834641 139.810915 978.21818 138.884969 978.21818 137.919616 
C 978.21818 136.954262 977.834641 136.028316 977.152033 135.345708 
C 976.469424 134.6631 975.543479 134.279561 974.578125 134.279561 
C 973.612771 134.279561 972.686826 134.6631 972.004217 135.345708 
C 971.321609 136.028316 970.93807 136.954262 970.93807 137.919616 
C 970.93807 138.884969 971.321609 139.810915 972.004217 140.493523 
C 972.686826 141.176131 973.612771 141.559671 974.578125 141.559671 
z
" style="fill:none;stroke:#8b0000;"/>
   </g>
   <g id="PathCollection_98">
    <defs>
     <path d="M -0 3.733691 
L 3.733691 -3.733691 
L -3.733691 -3.733691 
z
" id="m9b81e0881a" style="stroke:#005794;"/>
    </defs>
    <g clip-path="url(#pc508e626b3)">
     <use style="fill:#1f77b4;stroke:#005794;" x="1022.271875" xlink:href="#m9b81e0881a" y="383.214118"/>
    </g>
   </g>
   <g id="PathCollection_99">
    <defs>
     <path d="M -0 3.564319 
L 3.564319 -3.564319 
L -3.564319 -3.564319 
z
" id="mdab82c0e0d" style="stroke:#005794;"/>
    </defs>
    <g clip-path="url(#pc508e626b3)">
     <use style="fill:#1f77b4;stroke:#005794;" x="1022.271875" xlink:href="#mdab82c0e0d" y="208.575473"/>
    </g>
   </g>
   <g id="PathCollection_100">
    <defs>
     <path d="M -0 3.654474 
L 3.654474 -3.654474 
L -3.654474 -3.654474 
z
" id="m5de5be6b62" style="stroke:#005794;"/>
    </defs>
    <g clip-path="url(#pc508e626b3)">
     <use style="fill:#1f77b4;stroke:#005794;" x="1022.271875" xlink:href="#m5de5be6b62" y="63.569365"/>
    </g>
   </g>
   <g id="PathCollection_101">
    <path clip-path="url(#pc508e626b3)" d="M 1022.271875 390.619616 
C 1023.237229 390.619616 1024.163174 390.236077 1024.845783 389.553469 
C 1025.528391 388.870861 1025.91193 387.944915 1025.91193 386.979561 
C 1025.91193 386.014208 1025.528391 385.088262 1024.845783 384.405654 
C 1024.163174 383.723046 1023.237229 383.339507 1022.271875 383.339507 
C 1021.306521 383.339507 1020.380576 383.723046 1019.697967 384.405654 
C 1019.015359 385.088262 1018.63182 386.014208 1018.63182 386.979561 
C 1018.63182 387.944915 1019.015359 388.870861 1019.697967 389.553469 
C 1020.380576 390.236077 1021.306521 390.619616 1022.271875 390.619616 
z
" style="fill:none;stroke:#8b0000;"/>
   </g>
   <g id="PathCollection_102">
    <path clip-path="url(#pc508e626b3)" d="M 1022.271875 224.579653 
C 1023.237229 224.579653 1024.163174 224.196113 1024.845783 223.513505 
C 1025.528391 222.830897 1025.91193 221.904951 1025.91193 220.939598 
C 1025.91193 219.974244 1025.528391 219.048298 1024.845783 218.36569 
C 1024.163174 217.683082 1023.237229 217.299543 1022.271875 217.299543 
C 1021.306521 217.299543 1020.380576 217.683082 1019.697967 218.36569 
C 1019.015359 219.048298 1018.63182 219.974244 1018.63182 220.939598 
C 1018.63182 221.904951 1019.015359 222.830897 1019.697967 223.513505 
C 1020.380576 224.196113 1021.306521 224.579653 1022.271875 224.579653 
z
" style="fill:none;stroke:#8b0000;"/>
   </g>
   <g id="PathCollection_103">
    <path clip-path="url(#pc508e626b3)" d="M 1022.271875 58.539689 
C 1023.237229 58.539689 1024.163174 58.156149 1024.845783 57.473541 
C 1025.528391 56.790933 1025.91193 55.864988 1025.91193 54.899634 
C 1025.91193 53.93428 1025.528391 53.008334 1024.845783 52.325726 
C 1024.163174 51.643118 1023.237229 51.259579 1022.271875 51.259579 
C 1021.306521 51.259579 1020.380576 51.643118 1019.697967 52.325726 
C 1019.015359 53.008334 1018.63182 53.93428 1018.63182 54.899634 
C 1018.63182 55.864988 1019.015359 56.790933 1019.697967 57.473541 
C 1020.380576 58.156149 1021.306521 58.539689 1022.271875 58.539689 
z
" style="fill:none;stroke:#8b0000;"/>
   </g>
   <g id="PathCollection_104">
    <defs>
     <path d="M -0 3.598339 
L 3.598339 -3.598339 
L -3.598339 -3.598339 
z
" id="md2381daf6b" style="stroke:#005794;"/>
    </defs>
    <g clip-path="url(#pc508e626b3)">
     <use style="fill:#1f77b4;stroke:#005794;" x="1069.965625" xlink:href="#md2381daf6b" y="289.02074"/>
    </g>
   </g>
   <g id="PathCollection_105">
    <defs>
     <path d="M -0 3.643627 
L 3.643627 -3.643627 
L -3.643627 -3.643627 
z
" id="m4f47f9efbe" style="stroke:#005794;"/>
    </defs>
    <g clip-path="url(#pc508e626b3)">
     <use style="fill:#1f77b4;stroke:#005794;" x="1069.965625" xlink:href="#m4f47f9efbe" y="135.672877"/>
    </g>
   </g>
   <g id="PathCollection_106">
    <defs>
     <path d="M -0 3.711596 
L 3.711596 -3.711596 
L -3.711596 -3.711596 
z
" id="m7ae461de0a" style="stroke:#005794;"/>
    </defs>
    <g clip-path="url(#pc508e626b3)">
     <use style="fill:#1f77b4;stroke:#005794;" x="1069.965625" xlink:href="#m7ae461de0a" y="59.811374"/>
    </g>
   </g>
   <g id="PathCollection_107">
    <path clip-path="url(#pc508e626b3)" d="M 1069.965625 307.599634 
C 1070.930979 307.599634 1071.856924 307.216095 1072.539533 306.533487 
C 1073.222141 305.850879 1073.60568 304.924933 1073.60568 303.95958 
C 1073.60568 302.994226 1073.222141 302.06828 1072.539533 301.385672 
C 1071.856924 300.703064 1070.930979 300.319525 1069.965625 300.319525 
C 1069.000271 300.319525 1068.074326 300.703064 1067.391717 301.385672 
C 1066.709109 302.06828 1066.32557 302.994226 1066.32557 303.95958 
C 1066.32557 304.924933 1066.709109 305.850879 1067.391717 306.533487 
C 1068.074326 307.216095 1069.000271 307.599634 1069.965625 307.599634 
z
" style="fill:none;stroke:#8b0000;"/>
   </g>
   <g id="PathCollection_108">
    <path clip-path="url(#pc508e626b3)" d="M 1069.965625 141.559671 
C 1070.930979 141.559671 1071.856924 141.176131 1072.539533 140.493523 
C 1073.222141 139.810915 1073.60568 138.884969 1073.60568 137.919616 
C 1073.60568 136.954262 1073.222141 136.028316 1072.539533 135.345708 
C 1071.856924 134.6631 1070.930979 134.279561 1069.965625 134.279561 
C 1069.000271 134.279561 1068.074326 134.6631 1067.391717 135.345708 
C 1066.709109 136.028316 1066.32557 136.954262 1066.32557 137.919616 
C 1066.32557 138.884969 1066.709109 139.810915 1067.391717 140.493523 
C 1068.074326 141.176131 1069.000271 141.559671 1069.965625 141.559671 
z
" style="fill:none;stroke:#8b0000;"/>
   </g>
   <g id="PathCollection_109">
    <path clip-path="url(#pc508e626b3)" d="M 1069.965625 58.539689 
C 1070.930979 58.539689 1071.856924 58.156149 1072.539533 57.473541 
C 1073.222141 56.790933 1073.60568 55.864988 1073.60568 54.899634 
C 1073.60568 53.93428 1073.222141 53.008334 1072.539533 52.325726 
C 1071.856924 51.643118 1070.930979 51.259579 1069.965625 51.259579 
C 1069.000271 51.259579 1068.074326 51.643118 1067.391717 52.325726 
C 1066.709109 53.008334 1066.32557 53.93428 1066.32557 54.899634 
C 1066.32557 55.864988 1066.709109 56.790933 1067.391717 57.473541 
C 1068.074326 58.156149 1069.000271 58.539689 1069.965625 58.539689 
z
" style="fill:none;stroke:#8b0000;"/>
   </g>
   <g id="PathCollection_110">
    <g clip-path="url(#pc508e626b3)">
     <use style="fill:#1f77b4;stroke:#005794;" x="1117.659375" xlink:href="#m24b33e458a" y="57.458942"/>
    </g>
   </g>
   <g id="PathCollection_111">
    <path clip-path="url(#pc508e626b3)" d="M 1117.659375 60.376859 
C 1119.111952 60.376859 1120.505231 59.799744 1121.532358 58.772617 
C 1122.559486 57.74549 1123.136601 56.352211 1123.136601 54.899634 
C 1123.136601 53.447056 1122.559486 52.053778 1121.532358 51.02665 
C 1120.505231 49.999523 1119.111952 49.422408 1117.659375 49.422408 
C 1116.206798 49.422408 1114.813519 49.999523 1113.786392 51.02665 
C 1112.759264 52.053778 1112.182149 53.447056 1112.182149 54.899634 
C 1112.182149 56.352211 1112.759264 57.74549 1113.786392 58.772617 
C 1114.813519 59.799744 1116.206798 60.376859 1117.659375 60.376859 
z
" style="fill:none;stroke:#8b0000;"/>
   </g>
   <g id="PathCollection_112"/>
   <g id="PathCollection_113"/>
   <g id="matplotlib.axis_1">
    <g id="xtick_1">
     <g id="line2d_1">
      <defs>
       <path d="M 0 0 
L 0 3.5 
" id="meca5e3dcfd" style="stroke:#000000;stroke-width:0.8;"/>
      </defs>
      <g>
       <use style="stroke:#000000;stroke-width:0.8;" x="68.396875" xlink:href="#meca5e3dcfd" y="404.2"/>
      </g>
     </g>
     <g id="text_1">
      <!-- 0 -->
      <g transform="translate(65.215625 418.798437)scale(0.1 -0.1)">
       <defs>
        <path d="M 2034 4250 
Q 1547 4250 1301 3770 
Q 1056 3291 1056 2328 
Q 1056 1369 1301 889 
Q 1547 409 2034 409 
Q 2525 409 2770 889 
Q 3016 1369 3016 2328 
Q 3016 3291 2770 3770 
Q 2525 4250 2034 4250 
z
M 2034 4750 
Q 2819 4750 3233 4129 
Q 3647 3509 3647 2328 
Q 3647 1150 3233 529 
Q 2819 -91 2034 -91 
Q 1250 -91 836 529 
Q 422 1150 422 2328 
Q 422 3509 836 4129 
Q 1250 4750 2034 4750 
z
" id="DejaVuSans-30" transform="scale(0.015625)"/>
       </defs>
       <use xlink:href="#DejaVuSans-30"/>
      </g>
     </g>
    </g>
    <g id="xtick_2">
     <g id="line2d_2">
      <g>
       <use style="stroke:#000000;stroke-width:0.8;" x="306.865625" xlink:href="#meca5e3dcfd" y="404.2"/>
      </g>
     </g>
     <g id="text_2">
      <!-- 5 -->
      <g transform="translate(303.684375 418.798437)scale(0.1 -0.1)">
       <defs>
        <path d="M 691 4666 
L 3169 4666 
L 3169 4134 
L 1269 4134 
L 1269 2991 
Q 1406 3038 1543 3061 
Q 1681 3084 1819 3084 
Q 2600 3084 3056 2656 
Q 3513 2228 3513 1497 
Q 3513 744 3044 326 
Q 2575 -91 1722 -91 
Q 1428 -91 1123 -41 
Q 819 9 494 109 
L 494 744 
Q 775 591 1075 516 
Q 1375 441 1709 441 
Q 2250 441 2565 725 
Q 2881 1009 2881 1497 
Q 2881 1984 2565 2268 
Q 2250 2553 1709 2553 
Q 1456 2553 1204 2497 
Q 953 2441 691 2322 
L 691 4666 
z
" id="DejaVuSans-35" transform="scale(0.015625)"/>
       </defs>
       <use xlink:href="#DejaVuSans-35"/>
      </g>
     </g>
    </g>
    <g id="xtick_3">
     <g id="line2d_3">
      <g>
       <use style="stroke:#000000;stroke-width:0.8;" x="545.334375" xlink:href="#meca5e3dcfd" y="404.2"/>
      </g>
     </g>
     <g id="text_3">
      <!-- 10 -->
      <g transform="translate(538.971875 418.798437)scale(0.1 -0.1)">
       <defs>
        <path d="M 794 531 
L 1825 531 
L 1825 4091 
L 703 3866 
L 703 4441 
L 1819 4666 
L 2450 4666 
L 2450 531 
L 3481 531 
L 3481 0 
L 794 0 
L 794 531 
z
" id="DejaVuSans-31" transform="scale(0.015625)"/>
       </defs>
       <use xlink:href="#DejaVuSans-31"/>
       <use x="63.623047" xlink:href="#DejaVuSans-30"/>
      </g>
     </g>
    </g>
    <g id="xtick_4">
     <g id="line2d_4">
      <g>
       <use style="stroke:#000000;stroke-width:0.8;" x="783.803125" xlink:href="#meca5e3dcfd" y="404.2"/>
      </g>
     </g>
     <g id="text_4">
      <!-- 15 -->
      <g transform="translate(777.440625 418.798437)scale(0.1 -0.1)">
       <use xlink:href="#DejaVuSans-31"/>
       <use x="63.623047" xlink:href="#DejaVuSans-35"/>
      </g>
     </g>
    </g>
    <g id="xtick_5">
     <g id="line2d_5">
      <g>
       <use style="stroke:#000000;stroke-width:0.8;" x="1022.271875" xlink:href="#meca5e3dcfd" y="404.2"/>
      </g>
     </g>
     <g id="text_5">
      <!-- 20 -->
      <g transform="translate(1015.909375 418.798437)scale(0.1 -0.1)">
       <defs>
        <path d="M 1228 531 
L 3431 531 
L 3431 0 
L 469 0 
L 469 531 
Q 828 903 1448 1529 
Q 2069 2156 2228 2338 
Q 2531 2678 2651 2914 
Q 2772 3150 2772 3378 
Q 2772 3750 2511 3984 
Q 2250 4219 1831 4219 
Q 1534 4219 1204 4116 
Q 875 4013 500 3803 
L 500 4441 
Q 881 4594 1212 4672 
Q 1544 4750 1819 4750 
Q 2544 4750 2975 4387 
Q 3406 4025 3406 3419 
Q 3406 3131 3298 2873 
Q 3191 2616 2906 2266 
Q 2828 2175 2409 1742 
Q 1991 1309 1228 531 
z
" id="DejaVuSans-32" transform="scale(0.015625)"/>
       </defs>
       <use xlink:href="#DejaVuSans-32"/>
       <use x="63.623047" xlink:href="#DejaVuSans-30"/>
      </g>
     </g>
    </g>
    <g id="text_6">
     <!-- Test Experiment -->
     <g transform="translate(576.550781 432.476562)scale(0.1 -0.1)">
      <defs>
       <path d="M -19 4666 
L 3928 4666 
L 3928 4134 
L 2272 4134 
L 2272 0 
L 1638 0 
L 1638 4134 
L -19 4134 
L -19 4666 
z
" id="DejaVuSans-54" transform="scale(0.015625)"/>
       <path d="M 3597 1894 
L 3597 1613 
L 953 1613 
Q 991 1019 1311 708 
Q 1631 397 2203 397 
Q 2534 397 2845 478 
Q 3156 559 3463 722 
L 3463 178 
Q 3153 47 2828 -22 
Q 2503 -91 2169 -91 
Q 1331 -91 842 396 
Q 353 884 353 1716 
Q 353 2575 817 3079 
Q 1281 3584 2069 3584 
Q 2775 3584 3186 3129 
Q 3597 2675 3597 1894 
z
M 3022 2063 
Q 3016 2534 2758 2815 
Q 2500 3097 2075 3097 
Q 1594 3097 1305 2825 
Q 1016 2553 972 2059 
L 3022 2063 
z
" id="DejaVuSans-65" transform="scale(0.015625)"/>
       <path d="M 2834 3397 
L 2834 2853 
Q 2591 2978 2328 3040 
Q 2066 3103 1784 3103 
Q 1356 3103 1142 2972 
Q 928 2841 928 2578 
Q 928 2378 1081 2264 
Q 1234 2150 1697 2047 
L 1894 2003 
Q 2506 1872 2764 1633 
Q 3022 1394 3022 966 
Q 3022 478 2636 193 
Q 2250 -91 1575 -91 
Q 1294 -91 989 -36 
Q 684 19 347 128 
L 347 722 
Q 666 556 975 473 
Q 1284 391 1588 391 
Q 1994 391 2212 530 
Q 2431 669 2431 922 
Q 2431 1156 2273 1281 
Q 2116 1406 1581 1522 
L 1381 1569 
Q 847 1681 609 1914 
Q 372 2147 372 2553 
Q 372 3047 722 3315 
Q 1072 3584 1716 3584 
Q 2034 3584 2315 3537 
Q 2597 3491 2834 3397 
z
" id="DejaVuSans-73" transform="scale(0.015625)"/>
       <path d="M 1172 4494 
L 1172 3500 
L 2356 3500 
L 2356 3053 
L 1172 3053 
L 1172 1153 
Q 1172 725 1289 603 
Q 1406 481 1766 481 
L 2356 481 
L 2356 0 
L 1766 0 
Q 1100 0 847 248 
Q 594 497 594 1153 
L 594 3053 
L 172 3053 
L 172 3500 
L 594 3500 
L 594 4494 
L 1172 4494 
z
" id="DejaVuSans-74" transform="scale(0.015625)"/>
       <path id="DejaVuSans-20" transform="scale(0.015625)"/>
       <path d="M 628 4666 
L 3578 4666 
L 3578 4134 
L 1259 4134 
L 1259 2753 
L 3481 2753 
L 3481 2222 
L 1259 2222 
L 1259 531 
L 3634 531 
L 3634 0 
L 628 0 
L 628 4666 
z
" id="DejaVuSans-45" transform="scale(0.015625)"/>
       <path d="M 3513 3500 
L 2247 1797 
L 3578 0 
L 2900 0 
L 1881 1375 
L 863 0 
L 184 0 
L 1544 1831 
L 300 3500 
L 978 3500 
L 1906 2253 
L 2834 3500 
L 3513 3500 
z
" id="DejaVuSans-78" transform="scale(0.015625)"/>
       <path d="M 1159 525 
L 1159 -1331 
L 581 -1331 
L 581 3500 
L 1159 3500 
L 1159 2969 
Q 1341 3281 1617 3432 
Q 1894 3584 2278 3584 
Q 2916 3584 3314 3078 
Q 3713 2572 3713 1747 
Q 3713 922 3314 415 
Q 2916 -91 2278 -91 
Q 1894 -91 1617 61 
Q 1341 213 1159 525 
z
M 3116 1747 
Q 3116 2381 2855 2742 
Q 2594 3103 2138 3103 
Q 1681 3103 1420 2742 
Q 1159 2381 1159 1747 
Q 1159 1113 1420 752 
Q 1681 391 2138 391 
Q 2594 391 2855 752 
Q 3116 1113 3116 1747 
z
" id="DejaVuSans-70" transform="scale(0.015625)"/>
       <path d="M 2631 2963 
Q 2534 3019 2420 3045 
Q 2306 3072 2169 3072 
Q 1681 3072 1420 2755 
Q 1159 2438 1159 1844 
L 1159 0 
L 581 0 
L 581 3500 
L 1159 3500 
L 1159 2956 
Q 1341 3275 1631 3429 
Q 1922 3584 2338 3584 
Q 2397 3584 2469 3576 
Q 2541 3569 2628 3553 
L 2631 2963 
z
" id="DejaVuSans-72" transform="scale(0.015625)"/>
       <path d="M 603 3500 
L 1178 3500 
L 1178 0 
L 603 0 
L 603 3500 
z
M 603 4863 
L 1178 4863 
L 1178 4134 
L 603 4134 
L 603 4863 
z
" id="DejaVuSans-69" transform="scale(0.015625)"/>
       <path d="M 3328 2828 
Q 3544 3216 3844 3400 
Q 4144 3584 4550 3584 
Q 5097 3584 5394 3201 
Q 5691 2819 5691 2113 
L 5691 0 
L 5113 0 
L 5113 2094 
Q 5113 2597 4934 2840 
Q 4756 3084 4391 3084 
Q 3944 3084 3684 2787 
Q 3425 2491 3425 1978 
L 3425 0 
L 2847 0 
L 2847 2094 
Q 2847 2600 2669 2842 
Q 2491 3084 2119 3084 
Q 1678 3084 1418 2786 
Q 1159 2488 1159 1978 
L 1159 0 
L 581 0 
L 581 3500 
L 1159 3500 
L 1159 2956 
Q 1356 3278 1631 3431 
Q 1906 3584 2284 3584 
Q 2666 3584 2933 3390 
Q 3200 3197 3328 2828 
z
" id="DejaVuSans-6d" transform="scale(0.015625)"/>
       <path d="M 3513 2113 
L 3513 0 
L 2938 0 
L 2938 2094 
Q 2938 2591 2744 2837 
Q 2550 3084 2163 3084 
Q 1697 3084 1428 2787 
Q 1159 2491 1159 1978 
L 1159 0 
L 581 0 
L 581 3500 
L 1159 3500 
L 1159 2956 
Q 1366 3272 1645 3428 
Q 1925 3584 2291 3584 
Q 2894 3584 3203 3211 
Q 3513 2838 3513 2113 
z
" id="DejaVuSans-6e" transform="scale(0.015625)"/>
      </defs>
      <use xlink:href="#DejaVuSans-54"/>
      <use x="44.083984" xlink:href="#DejaVuSans-65"/>
      <use x="105.607422" xlink:href="#DejaVuSans-73"/>
      <use x="157.707031" xlink:href="#DejaVuSans-74"/>
      <use x="196.916016" xlink:href="#DejaVuSans-20"/>
      <use x="228.703125" xlink:href="#DejaVuSans-45"/>
      <use x="291.886719" xlink:href="#DejaVuSans-78"/>
      <use x="351.066406" xlink:href="#DejaVuSans-70"/>
      <use x="414.542969" xlink:href="#DejaVuSans-65"/>
      <use x="476.066406" xlink:href="#DejaVuSans-72"/>
      <use x="517.179688" xlink:href="#DejaVuSans-69"/>
      <use x="544.962891" xlink:href="#DejaVuSans-6d"/>
      <use x="642.375" xlink:href="#DejaVuSans-65"/>
      <use x="703.898438" xlink:href="#DejaVuSans-6e"/>
      <use x="767.277344" xlink:href="#DejaVuSans-74"/>
     </g>
    </g>
   </g>
   <g id="matplotlib.axis_2">
    <g id="ytick_1">
     <g id="line2d_6">
      <defs>
       <path d="M 0 0 
L -3.5 0 
" id="mef3e4e8100" style="stroke:#000000;stroke-width:0.8;"/>
      </defs>
      <g>
       <use style="stroke:#000000;stroke-width:0.8;" x="44.55" xlink:href="#mef3e4e8100" y="386.979561"/>
      </g>
     </g>
     <g id="text_7">
      <!-- 0 -->
      <g transform="translate(31.1875 390.77878)scale(0.1 -0.1)">
       <use xlink:href="#DejaVuSans-30"/>
      </g>
     </g>
    </g>
    <g id="ytick_2">
     <g id="line2d_7">
      <g>
       <use style="stroke:#000000;stroke-width:0.8;" x="44.55" xlink:href="#mef3e4e8100" y="335.890342"/>
      </g>
     </g>
     <g id="text_8">
      <!-- 2 -->
      <g transform="translate(31.1875 339.689561)scale(0.1 -0.1)">
       <use xlink:href="#DejaVuSans-32"/>
      </g>
     </g>
    </g>
    <g id="ytick_3">
     <g id="line2d_8">
      <g>
       <use style="stroke:#000000;stroke-width:0.8;" x="44.55" xlink:href="#mef3e4e8100" y="284.801122"/>
      </g>
     </g>
     <g id="text_9">
      <!-- 4 -->
      <g transform="translate(31.1875 288.600341)scale(0.1 -0.1)">
       <defs>
        <path d="M 2419 4116 
L 825 1625 
L 2419 1625 
L 2419 4116 
z
M 2253 4666 
L 3047 4666 
L 3047 1625 
L 3713 1625 
L 3713 1100 
L 3047 1100 
L 3047 0 
L 2419 0 
L 2419 1100 
L 313 1100 
L 313 1709 
L 2253 4666 
z
" id="DejaVuSans-34" transform="scale(0.015625)"/>
       </defs>
       <use xlink:href="#DejaVuSans-34"/>
      </g>
     </g>
    </g>
    <g id="ytick_4">
     <g id="line2d_9">
      <g>
       <use style="stroke:#000000;stroke-width:0.8;" x="44.55" xlink:href="#mef3e4e8100" y="233.711902"/>
      </g>
     </g>
     <g id="text_10">
      <!-- 6 -->
      <g transform="translate(31.1875 237.511121)scale(0.1 -0.1)">
       <defs>
        <path d="M 2113 2584 
Q 1688 2584 1439 2293 
Q 1191 2003 1191 1497 
Q 1191 994 1439 701 
Q 1688 409 2113 409 
Q 2538 409 2786 701 
Q 3034 994 3034 1497 
Q 3034 2003 2786 2293 
Q 2538 2584 2113 2584 
z
M 3366 4563 
L 3366 3988 
Q 3128 4100 2886 4159 
Q 2644 4219 2406 4219 
Q 1781 4219 1451 3797 
Q 1122 3375 1075 2522 
Q 1259 2794 1537 2939 
Q 1816 3084 2150 3084 
Q 2853 3084 3261 2657 
Q 3669 2231 3669 1497 
Q 3669 778 3244 343 
Q 2819 -91 2113 -91 
Q 1303 -91 875 529 
Q 447 1150 447 2328 
Q 447 3434 972 4092 
Q 1497 4750 2381 4750 
Q 2619 4750 2861 4703 
Q 3103 4656 3366 4563 
z
" id="DejaVuSans-36" transform="scale(0.015625)"/>
       </defs>
       <use xlink:href="#DejaVuSans-36"/>
      </g>
     </g>
    </g>
    <g id="ytick_5">
     <g id="line2d_10">
      <g>
       <use style="stroke:#000000;stroke-width:0.8;" x="44.55" xlink:href="#mef3e4e8100" y="182.622683"/>
      </g>
     </g>
     <g id="text_11">
      <!-- 8 -->
      <g transform="translate(31.1875 186.421902)scale(0.1 -0.1)">
       <defs>
        <path d="M 2034 2216 
Q 1584 2216 1326 1975 
Q 1069 1734 1069 1313 
Q 1069 891 1326 650 
Q 1584 409 2034 409 
Q 2484 409 2743 651 
Q 3003 894 3003 1313 
Q 3003 1734 2745 1975 
Q 2488 2216 2034 2216 
z
M 1403 2484 
Q 997 2584 770 2862 
Q 544 3141 544 3541 
Q 544 4100 942 4425 
Q 1341 4750 2034 4750 
Q 2731 4750 3128 4425 
Q 3525 4100 3525 3541 
Q 3525 3141 3298 2862 
Q 3072 2584 2669 2484 
Q 3125 2378 3379 2068 
Q 3634 1759 3634 1313 
Q 3634 634 3220 271 
Q 2806 -91 2034 -91 
Q 1263 -91 848 271 
Q 434 634 434 1313 
Q 434 1759 690 2068 
Q 947 2378 1403 2484 
z
M 1172 3481 
Q 1172 3119 1398 2916 
Q 1625 2713 2034 2713 
Q 2441 2713 2670 2916 
Q 2900 3119 2900 3481 
Q 2900 3844 2670 4047 
Q 2441 4250 2034 4250 
Q 1625 4250 1398 4047 
Q 1172 3844 1172 3481 
z
" id="DejaVuSans-38" transform="scale(0.015625)"/>
       </defs>
       <use xlink:href="#DejaVuSans-38"/>
      </g>
     </g>
    </g>
    <g id="ytick_6">
     <g id="line2d_11">
      <g>
       <use style="stroke:#000000;stroke-width:0.8;" x="44.55" xlink:href="#mef3e4e8100" y="131.533463"/>
      </g>
     </g>
     <g id="text_12">
      <!-- 10 -->
      <g transform="translate(24.825 135.332682)scale(0.1 -0.1)">
       <use xlink:href="#DejaVuSans-31"/>
       <use x="63.623047" xlink:href="#DejaVuSans-30"/>
      </g>
     </g>
    </g>
    <g id="ytick_7">
     <g id="line2d_12">
      <g>
       <use style="stroke:#000000;stroke-width:0.8;" x="44.55" xlink:href="#mef3e4e8100" y="80.444244"/>
      </g>
     </g>
     <g id="text_13">
      <!-- 12 -->
      <g transform="translate(24.825 84.243462)scale(0.1 -0.1)">
       <use xlink:href="#DejaVuSans-31"/>
       <use x="63.623047" xlink:href="#DejaVuSans-32"/>
      </g>
     </g>
    </g>
    <g id="ytick_8">
     <g id="line2d_13">
      <g>
       <use style="stroke:#000000;stroke-width:0.8;" x="44.55" xlink:href="#mef3e4e8100" y="29.355024"/>
      </g>
     </g>
     <g id="text_14">
      <!-- 14 -->
      <g transform="translate(24.825 33.154243)scale(0.1 -0.1)">
       <use xlink:href="#DejaVuSans-31"/>
       <use x="63.623047" xlink:href="#DejaVuSans-34"/>
      </g>
     </g>
    </g>
    <g id="text_15">
     <!-- Deuterium Level (Da) -->
     <g transform="translate(18.745312 269.309375)rotate(-90)scale(0.1 -0.1)">
      <defs>
       <path d="M 1259 4147 
L 1259 519 
L 2022 519 
Q 2988 519 3436 956 
Q 3884 1394 3884 2338 
Q 3884 3275 3436 3711 
Q 2988 4147 2022 4147 
L 1259 4147 
z
M 628 4666 
L 1925 4666 
Q 3281 4666 3915 4102 
Q 4550 3538 4550 2338 
Q 4550 1131 3912 565 
Q 3275 0 1925 0 
L 628 0 
L 628 4666 
z
" id="DejaVuSans-44" transform="scale(0.015625)"/>
       <path d="M 544 1381 
L 544 3500 
L 1119 3500 
L 1119 1403 
Q 1119 906 1312 657 
Q 1506 409 1894 409 
Q 2359 409 2629 706 
Q 2900 1003 2900 1516 
L 2900 3500 
L 3475 3500 
L 3475 0 
L 2900 0 
L 2900 538 
Q 2691 219 2414 64 
Q 2138 -91 1772 -91 
Q 1169 -91 856 284 
Q 544 659 544 1381 
z
M 1991 3584 
L 1991 3584 
z
" id="DejaVuSans-75" transform="scale(0.015625)"/>
       <path d="M 628 4666 
L 1259 4666 
L 1259 531 
L 3531 531 
L 3531 0 
L 628 0 
L 628 4666 
z
" id="DejaVuSans-4c" transform="scale(0.015625)"/>
       <path d="M 191 3500 
L 800 3500 
L 1894 563 
L 2988 3500 
L 3597 3500 
L 2284 0 
L 1503 0 
L 191 3500 
z
" id="DejaVuSans-76" transform="scale(0.015625)"/>
       <path d="M 603 4863 
L 1178 4863 
L 1178 0 
L 603 0 
L 603 4863 
z
" id="DejaVuSans-6c" transform="scale(0.015625)"/>
       <path d="M 1984 4856 
Q 1566 4138 1362 3434 
Q 1159 2731 1159 2009 
Q 1159 1288 1364 580 
Q 1569 -128 1984 -844 
L 1484 -844 
Q 1016 -109 783 600 
Q 550 1309 550 2009 
Q 550 2706 781 3412 
Q 1013 4119 1484 4856 
L 1984 4856 
z
" id="DejaVuSans-28" transform="scale(0.015625)"/>
       <path d="M 2194 1759 
Q 1497 1759 1228 1600 
Q 959 1441 959 1056 
Q 959 750 1161 570 
Q 1363 391 1709 391 
Q 2188 391 2477 730 
Q 2766 1069 2766 1631 
L 2766 1759 
L 2194 1759 
z
M 3341 1997 
L 3341 0 
L 2766 0 
L 2766 531 
Q 2569 213 2275 61 
Q 1981 -91 1556 -91 
Q 1019 -91 701 211 
Q 384 513 384 1019 
Q 384 1609 779 1909 
Q 1175 2209 1959 2209 
L 2766 2209 
L 2766 2266 
Q 2766 2663 2505 2880 
Q 2244 3097 1772 3097 
Q 1472 3097 1187 3025 
Q 903 2953 641 2809 
L 641 3341 
Q 956 3463 1253 3523 
Q 1550 3584 1831 3584 
Q 2591 3584 2966 3190 
Q 3341 2797 3341 1997 
z
" id="DejaVuSans-61" transform="scale(0.015625)"/>
       <path d="M 513 4856 
L 1013 4856 
Q 1481 4119 1714 3412 
Q 1947 2706 1947 2009 
Q 1947 1309 1714 600 
Q 1481 -109 1013 -844 
L 513 -844 
Q 928 -128 1133 580 
Q 1338 1288 1338 2009 
Q 1338 2731 1133 3434 
Q 928 4138 513 4856 
z
" id="DejaVuSans-29" transform="scale(0.015625)"/>
      </defs>
      <use xlink:href="#DejaVuSans-44"/>
      <use x="77.001953" xlink:href="#DejaVuSans-65"/>
      <use x="138.525391" xlink:href="#DejaVuSans-75"/>
      <use x="201.904297" xlink:href="#DejaVuSans-74"/>
      <use x="241.113281" xlink:href="#DejaVuSans-65"/>
      <use x="302.636719" xlink:href="#DejaVuSans-72"/>
      <use x="343.75" xlink:href="#DejaVuSans-69"/>
      <use x="371.533203" xlink:href="#DejaVuSans-75"/>
      <use x="434.912109" xlink:href="#DejaVuSans-6d"/>
      <use x="532.324219" xlink:href="#DejaVuSans-20"/>
      <use x="564.111328" xlink:href="#DejaVuSans-4c"/>
      <use x="618.074219" xlink:href="#DejaVuSans-65"/>
      <use x="679.597656" xlink:href="#DejaVuSans-76"/>
      <use x="738.777344" xlink:href="#DejaVuSans-65"/>
      <use x="800.300781" xlink:href="#DejaVuSans-6c"/>
      <use x="828.083984" xlink:href="#DejaVuSans-20"/>
      <use x="859.871094" xlink:href="#DejaVuSans-28"/>
      <use x="898.884766" xlink:href="#DejaVuSans-44"/>
      <use x="975.886719" xlink:href="#DejaVuSans-61"/>
      <use x="1037.166016" xlink:href="#DejaVuSans-29"/>
     </g>
    </g>
   </g>
   <g id="LineCollection_1">
    <path clip-path="url(#pc508e626b3)" d="M 68.396875 387.045455 
L 68.396875 386.745555 
" style="fill:none;stroke:#1f77b4;stroke-width:1.5;"/>
   </g>
   <g id="LineCollection_2">
    <path clip-path="url(#pc508e626b3)" d="M 116.090625 296.065822 
L 116.090625 294.204999 
" style="fill:none;stroke:#1f77b4;stroke-width:1.5;"/>
   </g>
   <g id="LineCollection_3">
    <path clip-path="url(#pc508e626b3)" d="M 163.784375 212.207659 
L 163.784375 209.975108 
" style="fill:none;stroke:#1f77b4;stroke-width:1.5;"/>
   </g>
   <g id="LineCollection_4">
    <path clip-path="url(#pc508e626b3)" d="M 211.478125 123.562047 
L 211.478125 121.475587 
" style="fill:none;stroke:#1f77b4;stroke-width:1.5;"/>
   </g>
   <g id="LineCollection_5">
    <path clip-path="url(#pc508e626b3)" d="M 259.171875 383.828156 
L 259.171875 382.600051 
" style="fill:none;stroke:#1f77b4;stroke-width:1.5;"/>
   </g>
   <g id="LineCollection_6">
    <path clip-path="url(#pc508e626b3)" d="M 259.171875 66.864787 
L 259.171875 63.29601 
" style="fill:none;stroke:#1f77b4;stroke-width:1.5;"/>
   </g>
   <g id="LineCollection_7">
    <path clip-path="url(#pc508e626b3)" d="M 306.865625 386.345793 
L 306.865625 384.473486 
" style="fill:none;stroke:#1f77b4;stroke-width:1.5;"/>
   </g>
   <g id="LineCollection_8">
    <path clip-path="url(#pc508e626b3)" d="M 306.865625 300.285317 
L 306.865625 293.578684 
" style="fill:none;stroke:#1f77b4;stroke-width:1.5;"/>
   </g>
   <g id="LineCollection_9">
    <path clip-path="url(#pc508e626b3)" d="M 354.559375 385.853557 
L 354.559375 384.490116 
" style="fill:none;stroke:#1f77b4;stroke-width:1.5;"/>
   </g>
   <g id="LineCollection_10">
    <path clip-path="url(#pc508e626b3)" d="M 354.559375 212.420275 
L 354.559375 207.87708 
" style="fill:none;stroke:#1f77b4;stroke-width:1.5;"/>
   </g>
   <g id="LineCollection_11">
    <path clip-path="url(#pc508e626b3)" d="M 402.253125 385.666168 
L 402.253125 383.826788 
" style="fill:none;stroke:#1f77b4;stroke-width:1.5;"/>
   </g>
   <g id="LineCollection_12">
    <path clip-path="url(#pc508e626b3)" d="M 402.253125 134.585283 
L 402.253125 128.035169 
" style="fill:none;stroke:#1f77b4;stroke-width:1.5;"/>
   </g>
   <g id="LineCollection_13">
    <path clip-path="url(#pc508e626b3)" d="M 449.946875 294.679002 
L 449.946875 291.588255 
" style="fill:none;stroke:#1f77b4;stroke-width:1.5;"/>
   </g>
   <g id="LineCollection_14">
    <path clip-path="url(#pc508e626b3)" d="M 449.946875 68.326604 
L 449.946875 64.64484 
" style="fill:none;stroke:#1f77b4;stroke-width:1.5;"/>
   </g>
   <g id="LineCollection_15">
    <path clip-path="url(#pc508e626b3)" d="M 497.640625 302.552879 
L 497.640625 281.163649 
" style="fill:none;stroke:#1f77b4;stroke-width:1.5;"/>
   </g>
   <g id="LineCollection_16">
    <path clip-path="url(#pc508e626b3)" d="M 497.640625 218.843823 
L 497.640625 195.012034 
" style="fill:none;stroke:#1f77b4;stroke-width:1.5;"/>
   </g>
   <g id="LineCollection_17">
    <path clip-path="url(#pc508e626b3)" d="M 545.334375 294.602743 
L 545.334375 288.322383 
" style="fill:none;stroke:#1f77b4;stroke-width:1.5;"/>
   </g>
   <g id="LineCollection_18">
    <path clip-path="url(#pc508e626b3)" d="M 545.334375 125.909587 
L 545.334375 118.935915 
" style="fill:none;stroke:#1f77b4;stroke-width:1.5;"/>
   </g>
   <g id="LineCollection_19">
    <path clip-path="url(#pc508e626b3)" d="M 593.028125 214.284441 
L 593.028125 201.899362 
" style="fill:none;stroke:#1f77b4;stroke-width:1.5;"/>
   </g>
   <g id="LineCollection_20">
    <path clip-path="url(#pc508e626b3)" d="M 593.028125 70.742623 
L 593.028125 62.875784 
" style="fill:none;stroke:#1f77b4;stroke-width:1.5;"/>
   </g>
   <g id="LineCollection_21">
    <path clip-path="url(#pc508e626b3)" d="M 640.721875 223.031116 
L 640.721875 188.051284 
" style="fill:none;stroke:#1f77b4;stroke-width:1.5;"/>
   </g>
   <g id="LineCollection_22">
    <path clip-path="url(#pc508e626b3)" d="M 640.721875 139.258962 
L 640.721875 113.778051 
" style="fill:none;stroke:#1f77b4;stroke-width:1.5;"/>
   </g>
   <g id="LineCollection_23">
    <path clip-path="url(#pc508e626b3)" d="M 688.415625 152.908521 
L 688.415625 97.860857 
" style="fill:none;stroke:#1f77b4;stroke-width:1.5;"/>
   </g>
   <g id="LineCollection_24">
    <path clip-path="url(#pc508e626b3)" d="M 688.415625 75.2864 
L 688.415625 51.385774 
" style="fill:none;stroke:#1f77b4;stroke-width:1.5;"/>
   </g>
   <g id="LineCollection_25">
    <path clip-path="url(#pc508e626b3)" d="M 736.109375 295.115122 
L 736.109375 289.367371 
" style="fill:none;stroke:#1f77b4;stroke-width:1.5;"/>
   </g>
   <g id="LineCollection_26">
    <path clip-path="url(#pc508e626b3)" d="M 736.109375 56.423852 
L 736.109375 54.726632 
" style="fill:none;stroke:#1f77b4;stroke-width:1.5;"/>
   </g>
   <g id="LineCollection_27">
    <path clip-path="url(#pc508e626b3)" d="M 783.803125 316.228387 
L 783.803125 282.854201 
" style="fill:none;stroke:#1f77b4;stroke-width:1.5;"/>
   </g>
   <g id="LineCollection_28">
    <path clip-path="url(#pc508e626b3)" d="M 783.803125 214.915655 
L 783.803125 205.565662 
" style="fill:none;stroke:#1f77b4;stroke-width:1.5;"/>
   </g>
   <g id="LineCollection_29">
    <path clip-path="url(#pc508e626b3)" d="M 831.496875 293.595294 
L 831.496875 283.515686 
" style="fill:none;stroke:#1f77b4;stroke-width:1.5;"/>
   </g>
   <g id="LineCollection_30">
    <path clip-path="url(#pc508e626b3)" d="M 831.496875 121.734579 
L 831.496875 118.955636 
" style="fill:none;stroke:#1f77b4;stroke-width:1.5;"/>
   </g>
   <g id="LineCollection_31">
    <path clip-path="url(#pc508e626b3)" d="M 879.190625 293.37956 
L 879.190625 289.631927 
" style="fill:none;stroke:#1f77b4;stroke-width:1.5;"/>
   </g>
   <g id="LineCollection_32">
    <path clip-path="url(#pc508e626b3)" d="M 879.190625 129.672077 
L 879.190625 115.499982 
" style="fill:none;stroke:#1f77b4;stroke-width:1.5;"/>
   </g>
   <g id="LineCollection_33">
    <path clip-path="url(#pc508e626b3)" d="M 926.884375 159.423571 
L 926.884375 119.485499 
" style="fill:none;stroke:#1f77b4;stroke-width:1.5;"/>
   </g>
   <g id="LineCollection_34">
    <path clip-path="url(#pc508e626b3)" d="M 926.884375 98.47048 
L 926.884375 57.483988 
" style="fill:none;stroke:#1f77b4;stroke-width:1.5;"/>
   </g>
   <g id="LineCollection_35">
    <path clip-path="url(#pc508e626b3)" d="M 974.578125 385.02846 
L 974.578125 380.374234 
" style="fill:none;stroke:#1f77b4;stroke-width:1.5;"/>
   </g>
   <g id="LineCollection_36">
    <path clip-path="url(#pc508e626b3)" d="M 974.578125 298.035189 
L 974.578125 286.571215 
" style="fill:none;stroke:#1f77b4;stroke-width:1.5;"/>
   </g>
   <g id="LineCollection_37">
    <path clip-path="url(#pc508e626b3)" d="M 974.578125 130.641438 
L 974.578125 121.005934 
" style="fill:none;stroke:#1f77b4;stroke-width:1.5;"/>
   </g>
   <g id="LineCollection_38">
    <path clip-path="url(#pc508e626b3)" d="M 1022.271875 383.996933 
L 1022.271875 382.431303 
" style="fill:none;stroke:#1f77b4;stroke-width:1.5;"/>
   </g>
   <g id="LineCollection_39">
    <path clip-path="url(#pc508e626b3)" d="M 1022.271875 215.972965 
L 1022.271875 201.177981 
" style="fill:none;stroke:#1f77b4;stroke-width:1.5;"/>
   </g>
   <g id="LineCollection_40">
    <path clip-path="url(#pc508e626b3)" d="M 1022.271875 68.67776 
L 1022.271875 58.46097 
" style="fill:none;stroke:#1f77b4;stroke-width:1.5;"/>
   </g>
   <g id="LineCollection_41">
    <path clip-path="url(#pc508e626b3)" d="M 1069.965625 295.469646 
L 1069.965625 282.571833 
" style="fill:none;stroke:#1f77b4;stroke-width:1.5;"/>
   </g>
   <g id="LineCollection_42">
    <path clip-path="url(#pc508e626b3)" d="M 1069.965625 176.702429 
L 1069.965625 94.643326 
" style="fill:none;stroke:#1f77b4;stroke-width:1.5;"/>
   </g>
   <g id="LineCollection_43">
    <path clip-path="url(#pc508e626b3)" d="M 1069.965625 75.668202 
L 1069.965625 43.954545 
" style="fill:none;stroke:#1f77b4;stroke-width:1.5;"/>
   </g>
   <g id="LineCollection_44">
    <path clip-path="url(#pc508e626b3)" d="M 1117.659375 58.361154 
L 1117.659375 56.55673 
" style="fill:none;stroke:#1f77b4;stroke-width:1.5;"/>
   </g>
   <g id="LineCollection_45">
    <path clip-path="url(#pc508e626b3)" d="M 20.703125 386.979561 
L 1201 386.979561 
" style="fill:none;stroke:#808080;stroke-dasharray:1.5,2.475;stroke-dashoffset:0;stroke-opacity:0.5;stroke-width:1.5;"/>
    <path clip-path="url(#pc508e626b3)" d="M 20.703125 303.95958 
L 1201 303.95958 
" style="fill:none;stroke:#808080;stroke-dasharray:1.5,2.475;stroke-dashoffset:0;stroke-opacity:0.5;stroke-width:1.5;"/>
    <path clip-path="url(#pc508e626b3)" d="M 20.703125 220.939598 
L 1201 220.939598 
" style="fill:none;stroke:#808080;stroke-dasharray:1.5,2.475;stroke-dashoffset:0;stroke-opacity:0.5;stroke-width:1.5;"/>
    <path clip-path="url(#pc508e626b3)" d="M 20.703125 137.919616 
L 1201 137.919616 
" style="fill:none;stroke:#808080;stroke-dasharray:1.5,2.475;stroke-dashoffset:0;stroke-opacity:0.5;stroke-width:1.5;"/>
    <path clip-path="url(#pc508e626b3)" d="M 20.703125 54.899634 
L 1201 54.899634 
" style="fill:none;stroke:#808080;stroke-dasharray:1.5,2.475;stroke-dashoffset:0;stroke-opacity:0.5;stroke-width:1.5;"/>
   </g>
   <g id="line2d_14">
    <path clip-path="url(#pc508e626b3)" d="M 68.396875 386.895505 
" style="fill:none;stroke:#1f77b4;stroke-linecap:square;stroke-width:1.5;"/>
   </g>
   <g id="line2d_15">
    <path clip-path="url(#pc508e626b3)" d="M 116.090625 295.135411 
" style="fill:none;stroke:#1f77b4;stroke-linecap:square;stroke-width:1.5;"/>
   </g>
   <g id="line2d_16">
    <path clip-path="url(#pc508e626b3)" d="M 163.784375 211.091383 
" style="fill:none;stroke:#1f77b4;stroke-linecap:square;stroke-width:1.5;"/>
   </g>
   <g id="line2d_17">
    <path clip-path="url(#pc508e626b3)" d="M 211.478125 122.518817 
" style="fill:none;stroke:#1f77b4;stroke-linecap:square;stroke-width:1.5;"/>
   </g>
   <g id="line2d_18">
    <path clip-path="url(#pc508e626b3)" d="M 259.171875 383.214104 
" style="fill:none;stroke:#1f77b4;stroke-linecap:square;stroke-width:1.5;"/>
   </g>
   <g id="line2d_19">
    <path clip-path="url(#pc508e626b3)" d="M 259.171875 65.080398 
" style="fill:none;stroke:#1f77b4;stroke-linecap:square;stroke-width:1.5;"/>
   </g>
   <g id="line2d_20">
    <path clip-path="url(#pc508e626b3)" d="M 306.865625 385.409639 
" style="fill:none;stroke:#1f77b4;stroke-linecap:square;stroke-width:1.5;"/>
   </g>
   <g id="line2d_21">
    <path clip-path="url(#pc508e626b3)" d="M 306.865625 296.932001 
" style="fill:none;stroke:#1f77b4;stroke-linecap:square;stroke-width:1.5;"/>
   </g>
   <g id="line2d_22">
    <path clip-path="url(#pc508e626b3)" d="M 354.559375 385.171837 
" style="fill:none;stroke:#1f77b4;stroke-linecap:square;stroke-width:1.5;"/>
   </g>
   <g id="line2d_23">
    <path clip-path="url(#pc508e626b3)" d="M 354.559375 210.148678 
" style="fill:none;stroke:#1f77b4;stroke-linecap:square;stroke-width:1.5;"/>
   </g>
   <g id="line2d_24">
    <path clip-path="url(#pc508e626b3)" d="M 402.253125 384.746478 
" style="fill:none;stroke:#1f77b4;stroke-linecap:square;stroke-width:1.5;"/>
   </g>
   <g id="line2d_25">
    <path clip-path="url(#pc508e626b3)" d="M 402.253125 131.310226 
" style="fill:none;stroke:#1f77b4;stroke-linecap:square;stroke-width:1.5;"/>
   </g>
   <g id="line2d_26">
    <path clip-path="url(#pc508e626b3)" d="M 449.946875 293.133628 
" style="fill:none;stroke:#1f77b4;stroke-linecap:square;stroke-width:1.5;"/>
   </g>
   <g id="line2d_27">
    <path clip-path="url(#pc508e626b3)" d="M 449.946875 66.485722 
" style="fill:none;stroke:#1f77b4;stroke-linecap:square;stroke-width:1.5;"/>
   </g>
   <g id="line2d_28">
    <path clip-path="url(#pc508e626b3)" d="M 497.640625 291.858264 
" style="fill:none;stroke:#1f77b4;stroke-linecap:square;stroke-width:1.5;"/>
   </g>
   <g id="line2d_29">
    <path clip-path="url(#pc508e626b3)" d="M 497.640625 206.927929 
" style="fill:none;stroke:#1f77b4;stroke-linecap:square;stroke-width:1.5;"/>
   </g>
   <g id="line2d_30">
    <path clip-path="url(#pc508e626b3)" d="M 545.334375 291.462563 
" style="fill:none;stroke:#1f77b4;stroke-linecap:square;stroke-width:1.5;"/>
   </g>
   <g id="line2d_31">
    <path clip-path="url(#pc508e626b3)" d="M 545.334375 122.422751 
" style="fill:none;stroke:#1f77b4;stroke-linecap:square;stroke-width:1.5;"/>
   </g>
   <g id="line2d_32">
    <path clip-path="url(#pc508e626b3)" d="M 593.028125 208.091902 
" style="fill:none;stroke:#1f77b4;stroke-linecap:square;stroke-width:1.5;"/>
   </g>
   <g id="line2d_33">
    <path clip-path="url(#pc508e626b3)" d="M 593.028125 66.809203 
" style="fill:none;stroke:#1f77b4;stroke-linecap:square;stroke-width:1.5;"/>
   </g>
   <g id="line2d_34">
    <path clip-path="url(#pc508e626b3)" d="M 640.721875 205.5412 
" style="fill:none;stroke:#1f77b4;stroke-linecap:square;stroke-width:1.5;"/>
   </g>
   <g id="line2d_35">
    <path clip-path="url(#pc508e626b3)" d="M 640.721875 126.518507 
" style="fill:none;stroke:#1f77b4;stroke-linecap:square;stroke-width:1.5;"/>
   </g>
   <g id="line2d_36">
    <path clip-path="url(#pc508e626b3)" d="M 688.415625 125.384689 
" style="fill:none;stroke:#1f77b4;stroke-linecap:square;stroke-width:1.5;"/>
   </g>
   <g id="line2d_37">
    <path clip-path="url(#pc508e626b3)" d="M 688.415625 63.336087 
" style="fill:none;stroke:#1f77b4;stroke-linecap:square;stroke-width:1.5;"/>
   </g>
   <g id="line2d_38">
    <path clip-path="url(#pc508e626b3)" d="M 736.109375 292.241247 
" style="fill:none;stroke:#1f77b4;stroke-linecap:square;stroke-width:1.5;"/>
   </g>
   <g id="line2d_39">
    <path clip-path="url(#pc508e626b3)" d="M 736.109375 55.575242 
" style="fill:none;stroke:#1f77b4;stroke-linecap:square;stroke-width:1.5;"/>
   </g>
   <g id="line2d_40">
    <path clip-path="url(#pc508e626b3)" d="M 783.803125 299.541294 
" style="fill:none;stroke:#1f77b4;stroke-linecap:square;stroke-width:1.5;"/>
   </g>
   <g id="line2d_41">
    <path clip-path="url(#pc508e626b3)" d="M 783.803125 210.240659 
" style="fill:none;stroke:#1f77b4;stroke-linecap:square;stroke-width:1.5;"/>
   </g>
   <g id="line2d_42">
    <path clip-path="url(#pc508e626b3)" d="M 831.496875 288.55549 
" style="fill:none;stroke:#1f77b4;stroke-linecap:square;stroke-width:1.5;"/>
   </g>
   <g id="line2d_43">
    <path clip-path="url(#pc508e626b3)" d="M 831.496875 120.345108 
" style="fill:none;stroke:#1f77b4;stroke-linecap:square;stroke-width:1.5;"/>
   </g>
   <g id="line2d_44">
    <path clip-path="url(#pc508e626b3)" d="M 879.190625 291.505743 
" style="fill:none;stroke:#1f77b4;stroke-linecap:square;stroke-width:1.5;"/>
   </g>
   <g id="line2d_45">
    <path clip-path="url(#pc508e626b3)" d="M 879.190625 122.58603 
" style="fill:none;stroke:#1f77b4;stroke-linecap:square;stroke-width:1.5;"/>
   </g>
   <g id="line2d_46">
    <path clip-path="url(#pc508e626b3)" d="M 926.884375 139.454535 
" style="fill:none;stroke:#1f77b4;stroke-linecap:square;stroke-width:1.5;"/>
   </g>
   <g id="line2d_47">
    <path clip-path="url(#pc508e626b3)" d="M 926.884375 77.977234 
" style="fill:none;stroke:#1f77b4;stroke-linecap:square;stroke-width:1.5;"/>
   </g>
   <g id="line2d_48">
    <path clip-path="url(#pc508e626b3)" d="M 974.578125 382.701347 
" style="fill:none;stroke:#1f77b4;stroke-linecap:square;stroke-width:1.5;"/>
   </g>
   <g id="line2d_49">
    <path clip-path="url(#pc508e626b3)" d="M 974.578125 292.303202 
" style="fill:none;stroke:#1f77b4;stroke-linecap:square;stroke-width:1.5;"/>
   </g>
   <g id="line2d_50">
    <path clip-path="url(#pc508e626b3)" d="M 974.578125 125.823686 
" style="fill:none;stroke:#1f77b4;stroke-linecap:square;stroke-width:1.5;"/>
   </g>
   <g id="line2d_51">
    <path clip-path="url(#pc508e626b3)" d="M 1022.271875 383.214118 
" style="fill:none;stroke:#1f77b4;stroke-linecap:square;stroke-width:1.5;"/>
   </g>
   <g id="line2d_52">
    <path clip-path="url(#pc508e626b3)" d="M 1022.271875 208.575473 
" style="fill:none;stroke:#1f77b4;stroke-linecap:square;stroke-width:1.5;"/>
   </g>
   <g id="line2d_53">
    <path clip-path="url(#pc508e626b3)" d="M 1022.271875 63.569365 
" style="fill:none;stroke:#1f77b4;stroke-linecap:square;stroke-width:1.5;"/>
   </g>
   <g id="line2d_54">
    <path clip-path="url(#pc508e626b3)" d="M 1069.965625 289.02074 
" style="fill:none;stroke:#1f77b4;stroke-linecap:square;stroke-width:1.5;"/>
   </g>
   <g id="line2d_55">
    <path clip-path="url(#pc508e626b3)" d="M 1069.965625 135.672877 
" style="fill:none;stroke:#1f77b4;stroke-linecap:square;stroke-width:1.5;"/>
   </g>
   <g id="line2d_56">
    <path clip-path="url(#pc508e626b3)" d="M 1069.965625 59.811374 
" style="fill:none;stroke:#1f77b4;stroke-linecap:square;stroke-width:1.5;"/>
   </g>
   <g id="line2d_57">
    <path clip-path="url(#pc508e626b3)" d="M 1117.659375 57.458942 
" style="fill:none;stroke:#1f77b4;stroke-linecap:square;stroke-width:1.5;"/>
   </g>
   <g id="patch_3">
    <path d="M 44.55 404.2 
L 44.55 26.8 
" style="fill:none;stroke:#000000;stroke-linecap:square;stroke-linejoin:miter;stroke-width:0.8;"/>
   </g>
   <g id="patch_4">
    <path d="M 1189.2 404.2 
L 1189.2 26.8 
" style="fill:none;stroke:#000000;stroke-linecap:square;stroke-linejoin:miter;stroke-width:0.8;"/>
   </g>
   <g id="patch_5">
    <path d="M 44.55 404.2 
L 1189.2 404.2 
" style="fill:none;stroke:#000000;stroke-linecap:square;stroke-linejoin:miter;stroke-width:0.8;"/>
   </g>
   <g id="patch_6">
    <path d="M 44.55 26.8 
L 1189.2 26.8 
" style="fill:none;stroke:#000000;stroke-linecap:square;stroke-linejoin:miter;stroke-width:0.8;"/>
   </g>
   <g id="text_16">
    <!-- GluFib_HI: 0001-0014 EGVNDNEEGFFSAR z=2 -->
    <g transform="translate(479.175938 20.8)scale(0.12 -0.12)">
     <defs>
      <path d="M 3809 666 
L 3809 1919 
L 2778 1919 
L 2778 2438 
L 4434 2438 
L 4434 434 
Q 4069 175 3628 42 
Q 3188 -91 2688 -91 
Q 1594 -91 976 548 
Q 359 1188 359 2328 
Q 359 3472 976 4111 
Q 1594 4750 2688 4750 
Q 3144 4750 3555 4637 
Q 3966 4525 4313 4306 
L 4313 3634 
Q 3963 3931 3569 4081 
Q 3175 4231 2741 4231 
Q 1884 4231 1454 3753 
Q 1025 3275 1025 2328 
Q 1025 1384 1454 906 
Q 1884 428 2741 428 
Q 3075 428 3337 486 
Q 3600 544 3809 666 
z
" id="DejaVuSans-47" transform="scale(0.015625)"/>
      <path d="M 628 4666 
L 3309 4666 
L 3309 4134 
L 1259 4134 
L 1259 2759 
L 3109 2759 
L 3109 2228 
L 1259 2228 
L 1259 0 
L 628 0 
L 628 4666 
z
" id="DejaVuSans-46" transform="scale(0.015625)"/>
      <path d="M 3116 1747 
Q 3116 2381 2855 2742 
Q 2594 3103 2138 3103 
Q 1681 3103 1420 2742 
Q 1159 2381 1159 1747 
Q 1159 1113 1420 752 
Q 1681 391 2138 391 
Q 2594 391 2855 752 
Q 3116 1113 3116 1747 
z
M 1159 2969 
Q 1341 3281 1617 3432 
Q 1894 3584 2278 3584 
Q 2916 3584 3314 3078 
Q 3713 2572 3713 1747 
Q 3713 922 3314 415 
Q 2916 -91 2278 -91 
Q 1894 -91 1617 61 
Q 1341 213 1159 525 
L 1159 0 
L 581 0 
L 581 4863 
L 1159 4863 
L 1159 2969 
z
" id="DejaVuSans-62" transform="scale(0.015625)"/>
      <path d="M 3263 -1063 
L 3263 -1509 
L -63 -1509 
L -63 -1063 
L 3263 -1063 
z
" id="DejaVuSans-5f" transform="scale(0.015625)"/>
      <path d="M 628 4666 
L 1259 4666 
L 1259 2753 
L 3553 2753 
L 3553 4666 
L 4184 4666 
L 4184 0 
L 3553 0 
L 3553 2222 
L 1259 2222 
L 1259 0 
L 628 0 
L 628 4666 
z
" id="DejaVuSans-48" transform="scale(0.015625)"/>
      <path d="M 628 4666 
L 1259 4666 
L 1259 0 
L 628 0 
L 628 4666 
z
" id="DejaVuSans-49" transform="scale(0.015625)"/>
      <path d="M 750 794 
L 1409 794 
L 1409 0 
L 750 0 
L 750 794 
z
M 750 3309 
L 1409 3309 
L 1409 2516 
L 750 2516 
L 750 3309 
z
" id="DejaVuSans-3a" transform="scale(0.015625)"/>
      <path d="M 313 2009 
L 1997 2009 
L 1997 1497 
L 313 1497 
L 313 2009 
z
" id="DejaVuSans-2d" transform="scale(0.015625)"/>
      <path d="M 1831 0 
L 50 4666 
L 709 4666 
L 2188 738 
L 3669 4666 
L 4325 4666 
L 2547 0 
L 1831 0 
z
" id="DejaVuSans-56" transform="scale(0.015625)"/>
      <path d="M 628 4666 
L 1478 4666 
L 3547 763 
L 3547 4666 
L 4159 4666 
L 4159 0 
L 3309 0 
L 1241 3903 
L 1241 0 
L 628 0 
L 628 4666 
z
" id="DejaVuSans-4e" transform="scale(0.015625)"/>
      <path d="M 3425 4513 
L 3425 3897 
Q 3066 4069 2747 4153 
Q 2428 4238 2131 4238 
Q 1616 4238 1336 4038 
Q 1056 3838 1056 3469 
Q 1056 3159 1242 3001 
Q 1428 2844 1947 2747 
L 2328 2669 
Q 3034 2534 3370 2195 
Q 3706 1856 3706 1288 
Q 3706 609 3251 259 
Q 2797 -91 1919 -91 
Q 1588 -91 1214 -16 
Q 841 59 441 206 
L 441 856 
Q 825 641 1194 531 
Q 1563 422 1919 422 
Q 2459 422 2753 634 
Q 3047 847 3047 1241 
Q 3047 1584 2836 1778 
Q 2625 1972 2144 2069 
L 1759 2144 
Q 1053 2284 737 2584 
Q 422 2884 422 3419 
Q 422 4038 858 4394 
Q 1294 4750 2059 4750 
Q 2388 4750 2728 4690 
Q 3069 4631 3425 4513 
z
" id="DejaVuSans-53" transform="scale(0.015625)"/>
      <path d="M 2188 4044 
L 1331 1722 
L 3047 1722 
L 2188 4044 
z
M 1831 4666 
L 2547 4666 
L 4325 0 
L 3669 0 
L 3244 1197 
L 1141 1197 
L 716 0 
L 50 0 
L 1831 4666 
z
" id="DejaVuSans-41" transform="scale(0.015625)"/>
      <path d="M 2841 2188 
Q 3044 2119 3236 1894 
Q 3428 1669 3622 1275 
L 4263 0 
L 3584 0 
L 2988 1197 
Q 2756 1666 2539 1819 
Q 2322 1972 1947 1972 
L 1259 1972 
L 1259 0 
L 628 0 
L 628 4666 
L 2053 4666 
Q 2853 4666 3247 4331 
Q 3641 3997 3641 3322 
Q 3641 2881 3436 2590 
Q 3231 2300 2841 2188 
z
M 1259 4147 
L 1259 2491 
L 2053 2491 
Q 2509 2491 2742 2702 
Q 2975 2913 2975 3322 
Q 2975 3731 2742 3939 
Q 2509 4147 2053 4147 
L 1259 4147 
z
" id="DejaVuSans-52" transform="scale(0.015625)"/>
      <path d="M 353 3500 
L 3084 3500 
L 3084 2975 
L 922 459 
L 3084 459 
L 3084 0 
L 275 0 
L 275 525 
L 2438 3041 
L 353 3041 
L 353 3500 
z
" id="DejaVuSans-7a" transform="scale(0.015625)"/>
      <path d="M 678 2906 
L 4684 2906 
L 4684 2381 
L 678 2381 
L 678 2906 
z
M 678 1631 
L 4684 1631 
L 4684 1100 
L 678 1100 
L 678 1631 
z
" id="DejaVuSans-3d" transform="scale(0.015625)"/>
     </defs>
     <use xlink:href="#DejaVuSans-47"/>
     <use x="77.490234" xlink:href="#DejaVuSans-6c"/>
     <use x="105.273438" xlink:href="#DejaVuSans-75"/>
     <use x="168.652344" xlink:href="#DejaVuSans-46"/>
     <use x="218.921875" xlink:href="#DejaVuSans-69"/>
     <use x="246.705078" xlink:href="#DejaVuSans-62"/>
     <use x="310.181641" xlink:href="#DejaVuSans-5f"/>
     <use x="360.181641" xlink:href="#DejaVuSans-48"/>
     <use x="435.376953" xlink:href="#DejaVuSans-49"/>
     <use x="464.869141" xlink:href="#DejaVuSans-3a"/>
     <use x="498.560547" xlink:href="#DejaVuSans-20"/>
     <use x="530.347656" xlink:href="#DejaVuSans-30"/>
     <use x="593.970703" xlink:href="#DejaVuSans-30"/>
     <use x="657.59375" xlink:href="#DejaVuSans-30"/>
     <use x="721.216797" xlink:href="#DejaVuSans-31"/>
     <use x="784.839844" xlink:href="#DejaVuSans-2d"/>
     <use x="820.923828" xlink:href="#DejaVuSans-30"/>
     <use x="884.546875" xlink:href="#DejaVuSans-30"/>
     <use x="948.169922" xlink:href="#DejaVuSans-31"/>
     <use x="1011.792969" xlink:href="#DejaVuSans-34"/>
     <use x="1075.416016" xlink:href="#DejaVuSans-20"/>
     <use x="1107.203125" xlink:href="#DejaVuSans-45"/>
     <use x="1170.386719" xlink:href="#DejaVuSans-47"/>
     <use x="1247.876953" xlink:href="#DejaVuSans-56"/>
     <use x="1316.285156" xlink:href="#DejaVuSans-4e"/>
     <use x="1391.089844" xlink:href="#DejaVuSans-44"/>
     <use x="1468.091797" xlink:href="#DejaVuSans-4e"/>
     <use x="1542.896484" xlink:href="#DejaVuSans-45"/>
     <use x="1606.080078" xlink:href="#DejaVuSans-45"/>
     <use x="1669.263672" xlink:href="#DejaVuSans-47"/>
     <use x="1746.753906" xlink:href="#DejaVuSans-46"/>
     <use x="1804.273438" xlink:href="#DejaVuSans-46"/>
     <use x="1860.042969" xlink:href="#DejaVuSans-53"/>
     <use x="1925.394531" xlink:href="#DejaVuSans-41"/>
     <use x="1993.802734" xlink:href="#DejaVuSans-52"/>
     <use x="2063.285156" xlink:href="#DejaVuSans-20"/>
     <use x="2095.072266" xlink:href="#DejaVuSans-7a"/>
     <use x="2147.5625" xlink:href="#DejaVuSans-3d"/>
     <use x="2231.351562" xlink:href="#DejaVuSans-32"/>
    </g>
   </g>
   <g id="legend_1">
    <g id="patch_7">
     <path d="M 51.55 64.15625 
L 124.2875 64.15625 
Q 126.2875 64.15625 126.2875 62.15625 
L 126.2875 33.8 
Q 126.2875 31.8 124.2875 31.8 
L 51.55 31.8 
Q 49.55 31.8 49.55 33.8 
L 49.55 62.15625 
Q 49.55 64.15625 51.55 64.15625 
z
" style="fill:#ffffff;opacity:0.8;stroke:#cccccc;stroke-linejoin:miter;"/>
    </g>
    <g id="line2d_58">
     <path d="M 53.55 39.898438 
L 73.55 39.898438 
" style="fill:none;stroke:#ffffff;stroke-linecap:square;stroke-width:1.5;"/>
    </g>
    <g id="line2d_59">
     <defs>
      <path d="M -0 5 
L 5 -5 
L -5 -5 
z
" id="mfd7f33d99f" style="stroke:#ffffff;stroke-linejoin:miter;"/>
     </defs>
     <g>
      <use style="fill:#1f77b4;stroke:#ffffff;stroke-linejoin:miter;" x="63.55" xlink:href="#mfd7f33d99f" y="39.898438"/>
     </g>
    </g>
    <g id="text_17">
     <!-- Fit Data -->
     <g transform="translate(81.55 43.398438)scale(0.1 -0.1)">
      <use xlink:href="#DejaVuSans-46"/>
      <use x="50.269531" xlink:href="#DejaVuSans-69"/>
      <use x="78.052734" xlink:href="#DejaVuSans-74"/>
      <use x="117.261719" xlink:href="#DejaVuSans-20"/>
      <use x="149.048828" xlink:href="#DejaVuSans-44"/>
      <use x="226.050781" xlink:href="#DejaVuSans-61"/>
      <use x="287.330078" xlink:href="#DejaVuSans-74"/>
      <use x="326.539062" xlink:href="#DejaVuSans-61"/>
     </g>
    </g>
    <g id="line2d_60">
     <path d="M 53.55 54.576563 
L 73.55 54.576563 
" style="fill:none;stroke:#ffffff;stroke-linecap:square;stroke-width:1.5;"/>
    </g>
    <g id="line2d_61">
     <defs>
      <path d="M 0 5 
C 1.326016 5 2.597899 4.473168 3.535534 3.535534 
C 4.473168 2.597899 5 1.326016 5 0 
C 5 -1.326016 4.473168 -2.597899 3.535534 -3.535534 
C 2.597899 -4.473168 1.326016 -5 0 -5 
C -1.326016 -5 -2.597899 -4.473168 -3.535534 -3.535534 
C -4.473168 -2.597899 -5 -1.326016 -5 0 
C -5 1.326016 -4.473168 2.597899 -3.535534 3.535534 
C -2.597899 4.473168 -1.326016 5 0 5 
z
" id="m461753354b" style="stroke:#8b0000;"/>
     </defs>
     <g>
      <use style="fill:#ffffff;stroke:#8b0000;" x="63.55" xlink:href="#m461753354b" y="54.576563"/>
     </g>
    </g>
    <g id="text_18">
     <!-- Solution -->
     <g transform="translate(81.55 58.076563)scale(0.1 -0.1)">
      <defs>
       <path d="M 1959 3097 
Q 1497 3097 1228 2736 
Q 959 2375 959 1747 
Q 959 1119 1226 758 
Q 1494 397 1959 397 
Q 2419 397 2687 759 
Q 2956 1122 2956 1747 
Q 2956 2369 2687 2733 
Q 2419 3097 1959 3097 
z
M 1959 3584 
Q 2709 3584 3137 3096 
Q 3566 2609 3566 1747 
Q 3566 888 3137 398 
Q 2709 -91 1959 -91 
Q 1206 -91 779 398 
Q 353 888 353 1747 
Q 353 2609 779 3096 
Q 1206 3584 1959 3584 
z
" id="DejaVuSans-6f" transform="scale(0.015625)"/>
      </defs>
      <use xlink:href="#DejaVuSans-53"/>
      <use x="63.476562" xlink:href="#DejaVuSans-6f"/>
      <use x="124.658203" xlink:href="#DejaVuSans-6c"/>
      <use x="152.441406" xlink:href="#DejaVuSans-75"/>
      <use x="215.820312" xlink:href="#DejaVuSans-74"/>
      <use x="255.029297" xlink:href="#DejaVuSans-69"/>
      <use x="282.8125" xlink:href="#DejaVuSans-6f"/>
      <use x="343.994141" xlink:href="#DejaVuSans-6e"/>
     </g>
    </g>
   </g>
  </g>
 </g>
 <defs>
  <clipPath id="pc508e626b3">
   <rect height="377.4" width="1144.65" x="44.55" y="26.8"/>
  </clipPath>
 </defs>
</svg>
